<svg xmlns="http://www.w3.org/2000/svg" width="100" height="100" viewBox="0 0 100 100">
  <defs>
    <style>
      .cls-1 {
        fill: #fff;
        stroke: #707070;
      }

      .cls-2, .cls-4 {
        fill: none;
      }

      .cls-3, .cls-5 {
        stroke: none;
      }

      .cls-5 {
        fill: #000e08;
      }
    </style>
  </defs>
  <g id="Grupo_368" data-name="Grupo 368" transform="translate(-707 -865.322)">
    <g id="Elipse_51" data-name="Elipse 51" class="cls-1" transform="translate(707 865.322)">
      <circle class="cls-3" cx="50" cy="50" r="50"/>
      <circle class="cls-4" cx="50" cy="50" r="49.5"/>
    </g>
    <g id="Polígono_7" data-name="Polígono 7" class="cls-2" transform="translate(710.538 899.283) rotate(-30)">
      <path class="cls-3" d="M26.928,7.6a5,5,0,0,1,8.682,0L58.264,47.241a5,5,0,0,1-4.341,7.481H8.616a5,5,0,0,1-4.341-7.481Z"/>
      <path class="cls-5" d="M 31.2692756652832 12.09338760375977 L 10.33907318115234 48.72122955322266 L 52.19947814941406 48.72122955322266 L 31.2692756652832 12.09338760375977 M 31.26927185058594 5.077823638916016 C 32.96001052856445 5.077823638916016 34.65074920654297 5.917591094970703 35.61048889160156 7.597126007080078 L 58.26386260986328 47.24053955078125 C 60.16859817504883 50.57382965087891 57.76177215576172 54.72122955322266 53.92265319824219 54.72122955322266 L 8.615890502929688 54.72122955322266 C 4.776782989501953 54.72122955322266 2.369945526123047 50.57382965087891 4.274677276611328 47.24053955078125 L 26.92806243896484 7.597126007080078 C 27.88779830932617 5.917591094970703 29.57853317260742 5.077823638916016 31.26927185058594 5.077823638916016 Z"/>
    </g>
  </g>
</svg>
