<svg id="Capa_1" data-name="Capa 1" xmlns="http://www.w3.org/2000/svg" viewBox="0 0 185.46 112.76"><defs><style>.cls-1{fill:#f75c03;}</style></defs><title>Isotipo</title><path class="cls-1" d="M168.45,14.84a55.39,55.39,0,0,0-20.16-11.2,86.14,86.14,0,0,0-26-3.64H78.52c-5.44.09-9,3.56-9,8.84v51.3c0,4-1,7-3,9s-4.86,3-8.69,3c-5.66,0-7.82-2.25-8.53-3-2-2.06-2.95-5-2.95-9.07V8.84C46.38,3.47,42.75,0,37.12,0H9.18A9.6,9.6,0,0,0,2.65,2.3,8.49,8.49,0,0,0,0,8.84V58.67C0,76.17,5.06,89.73,15,99A48.32,48.32,0,0,0,33.49,109.4a81.22,81.22,0,0,0,24.4,3.36H61.2a66.92,66.92,0,0,0,18.85-3.69A61.31,61.31,0,0,0,99.38,98.28a55,55,0,0,0,12.19-15l.33-.77H112l.06-.1v.1h10.09c7.72,0,14.05-2.44,18.82-7.27s7.15-11.15,7.15-18.85S145.7,42.33,141,37.52s-11.1-7.26-18.82-7.26H106.92V58.67c0,15.07-4,26.1-12.11,33.7S74.27,103.8,57.91,103.8,29.3,100,21.13,92.4,9,73.78,9,58.67V9H37.42V60.14c0,6.39,1.84,11.53,5.45,15.28s8.71,5.74,15,5.74,11.33-1.92,15.06-5.7,5.6-8.91,5.6-15.32V9h43.75c17.27,0,30.81,4.23,40.25,12.59s14,19.72,14,34.83-4.57,26.5-14,34.83-23,12.59-40.25,12.59H104.15a36.5,36.5,0,0,1-3.72,4.28,37.84,37.84,0,0,1-5.81,4.68h27.65a86.45,86.45,0,0,0,26-3.64,55.67,55.67,0,0,0,20.17-11.2c11.28-10,17-24,17-41.54S179.74,24.83,168.45,14.84ZM116.69,39.21h5.44c5.31,0,9.39,1.51,12.45,4.61s4.57,7.22,4.57,12.56-1.5,9.45-4.57,12.56-7.14,4.6-12.45,4.6h-5.44Z"/></svg>