<svg id="Capa_1" data-name="Capa 1" xmlns="http://www.w3.org/2000/svg" viewBox="0 0 399 114.98"><defs><style>.cls-1{fill:#f75c03;}.cls-2{fill:#fff;}</style></defs><title>Logo completo</title><path class="cls-1" d="M168.45,16.21A55.25,55.25,0,0,0,148.29,5a86.14,86.14,0,0,0-26-3.64H78.52c-5.44.09-9,3.56-9,8.84v51.3c0,4-1,7-3,9s-4.86,3-8.69,3c-5.66,0-7.82-2.25-8.53-3-2-2.06-2.95-5-2.95-9.07V10.21c0-5.37-3.63-8.84-9.26-8.84H9.18a9.55,9.55,0,0,0-6.53,2.3A8.47,8.47,0,0,0,0,10.21V60C0,77.54,5.06,91.1,15,100.34a48.32,48.32,0,0,0,18.45,10.43,81.22,81.22,0,0,0,24.4,3.36H61.2a67.63,67.63,0,0,0,18.85-3.69A61.31,61.31,0,0,0,99.38,99.65a55,55,0,0,0,12.19-15l.33-.77H112l.06-.1v.1h10.09c7.72,0,14.05-2.45,18.82-7.27s7.15-11.15,7.15-18.85-2.4-14-7.15-18.86-11.1-7.26-18.82-7.26H106.92V60c0,15.08-4,26.11-12.11,33.71s-20.53,11.43-36.89,11.43S29.3,101.33,21.13,93.76,9,75.15,9,60V10.32H37.42V61.51c0,6.38,1.84,11.52,5.45,15.28s8.71,5.74,15,5.74,11.33-1.92,15.06-5.7,5.6-8.92,5.6-15.32V10.32h43.75c17.27,0,30.81,4.24,40.25,12.6s14,19.72,14,34.83-4.57,26.5-14,34.83-23,12.59-40.25,12.59H104.15a36.5,36.5,0,0,1-3.72,4.28,37.84,37.84,0,0,1-5.81,4.68h27.65a86.45,86.45,0,0,0,26-3.64,55.54,55.54,0,0,0,20.17-11.21c11.28-10,17-24,17-41.53S179.74,26.2,168.45,16.21ZM116.69,40.58h5.44c5.31,0,9.39,1.51,12.45,4.61s4.57,7.22,4.57,12.56-1.5,9.44-4.57,12.56-7.14,4.6-12.45,4.6h-5.44Z"/><path class="cls-2" d="M224.82,43.07q-8.61,0-13.68-5t-5.07-13.47V3.29c0-.73.38-1.09,1.15-1.09H214a1,1,0,0,1,1.08,1.09V24.74a10.62,10.62,0,0,0,2.69,7.59,9.27,9.27,0,0,0,7.06,2.86A9.38,9.38,0,0,0,232,32.33a10.62,10.62,0,0,0,2.69-7.59V3.29a1,1,0,0,1,1.08-1.09h6.83a1,1,0,0,1,1.09,1.09V24.63q0,8.49-5.09,13.47T224.82,43.07Z"/><path class="cls-2" d="M269.78,13.57a12.12,12.12,0,0,1,9,3.45,12.49,12.49,0,0,1,3.41,9.17V41.06a1,1,0,0,1-1.08,1.09h-6.39c-.76,0-1.14-.36-1.14-1.09V27.33A6.65,6.65,0,0,0,272,22.65a5.6,5.6,0,0,0-4.36-1.78A6.36,6.36,0,0,0,263,22.55,5.93,5.93,0,0,0,261.25,27v14a1,1,0,0,1-1.09,1.09h-6.38a1,1,0,0,1-1.08-1.09V23.15a2,2,0,0,0-2.23-2.23c-.15,0-.57.06-1.25.17-.84,0-1.26-.3-1.26-.89V15.52a1.2,1.2,0,0,1,.87-1.26,11.12,11.12,0,0,1,4.09-.69c3.27,0,5.55,1.19,6.85,3.59Q263.4,13.56,269.78,13.57Z"/><path class="cls-2" d="M296.44,8a5.48,5.48,0,0,1-7.25,0,4.42,4.42,0,0,1-1.46-3.35,4.34,4.34,0,0,1,1.46-3.33,5.57,5.57,0,0,1,7.25,0,4.34,4.34,0,0,1,1.46,3.33A4.42,4.42,0,0,1,296.44,8Zm-6.81,34.13a1,1,0,0,1-1.09-1.09V15.57a1,1,0,0,1,1.09-1.08H296a1,1,0,0,1,1.08,1.08V41.06A1,1,0,0,1,296,42.15Z"/><path class="cls-2" d="M329.38,39q-4.31,4-11.38,4t-11.38-4a14,14,0,0,1-4.31-10.69,14,14,0,0,1,4.31-10.72q4.29-4,11.38-4t11.38,4.05a14,14,0,0,1,4.3,10.71A14,14,0,0,1,329.38,39Zm-16.83-5.11a8.17,8.17,0,0,0,10.89,0,7.55,7.55,0,0,0,2.08-5.58,7.57,7.57,0,0,0-2.08-5.58,8.08,8.08,0,0,0-10.89,0,7.61,7.61,0,0,0-2.08,5.58A7.59,7.59,0,0,0,312.55,33.91Zm2.6-24a.94.94,0,0,1-.82-.38.78.78,0,0,1,0-.88l3.76-7a1.3,1.3,0,0,1,1.25-.8h6.74c.43,0,.71.11.84.34s.05.56-.22,1l-4.85,7.14a1.52,1.52,0,0,1-1.31.64Z"/><path class="cls-2" d="M358.39,13.57a12.12,12.12,0,0,1,9,3.45,12.49,12.49,0,0,1,3.41,9.17V41.06a1,1,0,0,1-1.09,1.09h-6.38c-.76,0-1.14-.36-1.14-1.09V27.33a6.65,6.65,0,0,0-1.63-4.68,5.6,5.6,0,0,0-4.36-1.78,6.36,6.36,0,0,0-4.59,1.68A5.9,5.9,0,0,0,349.86,27v14a1,1,0,0,1-1.09,1.09h-6.38a1,1,0,0,1-1.08-1.09V23.15a2,2,0,0,0-2.23-2.23c-.15,0-.57.06-1.26.17s-1.25-.3-1.25-.89V15.52a1.2,1.2,0,0,1,.86-1.26,11.18,11.18,0,0,1,4.1-.69c3.27,0,5.55,1.19,6.85,3.59Q352,13.56,358.39,13.57Z"/><path class="cls-1" d="M222.43,60.82q10.22,0,16.3,5.46t6.07,14.53q0,9.06-6.07,14.51t-16.3,5.45H207.77c-.76,0-1.14-.36-1.14-1.09V61.9q0-1.08,1.14-1.08Zm-.62,32.31q6.27,0,10.08-3.39a11.44,11.44,0,0,0,3.8-8.93,11.41,11.41,0,0,0-3.8-8.93q-3.81-3.41-10.08-3.4H215.6V93.13Z"/><path class="cls-1" d="M258.76,66.64a5.47,5.47,0,0,1-7.24,0,4.43,4.43,0,0,1-1.46-3.36A4.37,4.37,0,0,1,251.52,60a5.59,5.59,0,0,1,7.24,0,4.34,4.34,0,0,1,1.47,3.33A4.41,4.41,0,0,1,258.76,66.64ZM252,100.77a1,1,0,0,1-1.08-1.09V74.19A1,1,0,0,1,252,73.1h6.38a1,1,0,0,1,1.09,1.09V99.68a1,1,0,0,1-1.09,1.09Z"/><path class="cls-1" d="M295.25,73.1a1,1,0,0,1,1.09,1.09v27.27a12.42,12.42,0,0,1-4.22,9.78Q287.89,115,281,115a17.73,17.73,0,0,1-10.29-2.86,11.39,11.39,0,0,1-5-7.59c-.19-.73.16-1.09,1-1.09h6.38a1.36,1.36,0,0,1,1.25.87,4.82,4.82,0,0,0,2.34,2.7,8.5,8.5,0,0,0,4.24,1,6.71,6.71,0,0,0,4.9-1.77,6.28,6.28,0,0,0,1.81-4.72v-2.4a12.75,12.75,0,0,1-7.91,2.46A14.8,14.8,0,0,1,269,97.44a14.21,14.21,0,0,1-4.22-10.59A14.11,14.11,0,0,1,269,76.29a14.86,14.86,0,0,1,10.8-4.11,12.86,12.86,0,0,1,8.11,2.62v-.61A1,1,0,0,1,289,73.1ZM280.52,94.83a6.65,6.65,0,0,0,5.19-2.22,8.33,8.33,0,0,0,2-5.77,8.17,8.17,0,0,0-2-5.75,6.66,6.66,0,0,0-5.16-2.22,6.88,6.88,0,0,0-5.28,2.24,8.1,8.1,0,0,0-2.08,5.73,8.18,8.18,0,0,0,2,5.77A6.88,6.88,0,0,0,280.52,94.83Z"/><path class="cls-1" d="M311,66.64a5.47,5.47,0,0,1-7.24,0,4.41,4.41,0,0,1-1.47-3.36A4.34,4.34,0,0,1,303.8,60,5.59,5.59,0,0,1,311,60a4.37,4.37,0,0,1,1.46,3.33A4.43,4.43,0,0,1,311,66.64Zm-6.81,34.13a1,1,0,0,1-1.09-1.09V74.19a1,1,0,0,1,1.09-1.09h6.38a1,1,0,0,1,1.08,1.09V99.68a1,1,0,0,1-1.08,1.09Z"/><path class="cls-1" d="M333.82,101.69q-5.6,0-8.82-3.18a11.6,11.6,0,0,1-3.21-8.64V80h-5.27a1,1,0,0,1-1.08-1.08V74.19a1,1,0,0,1,1.08-1.09h5.27V65.86a1,1,0,0,1,1.06-1.09h6.4a1,1,0,0,1,1.09,1.09V73.1h8.94a1,1,0,0,1,1.09,1.09v4.74A1,1,0,0,1,339.28,80h-8.94V89.6A4.58,4.58,0,0,0,331.62,93a4.73,4.73,0,0,0,3.46,1.26,17,17,0,0,0,4.26-.53,1,1,0,0,1,1.25.86l.75,4.9a1.16,1.16,0,0,1-.86,1.26A27.32,27.32,0,0,1,333.82,101.69Z"/><path class="cls-1" d="M380.93,99.79A1,1,0,0,1,380,101a15.23,15.23,0,0,1-4.26.7q-5.24,0-7.19-3.49a14.08,14.08,0,0,1-9.61,3.49,14.77,14.77,0,0,1-10.81-4.11A14.24,14.24,0,0,1,344,87a14.27,14.27,0,0,1,4.19-10.67,14.83,14.83,0,0,1,10.8-4.1,12.86,12.86,0,0,1,8.11,2.62v-.61a1,1,0,0,1,1.08-1.09h6.3a.94.94,0,0,1,1.06,1.09V92.1c0,1.49.63,2.23,1.89,2.23a6.92,6.92,0,0,0,1.76-.19c.76-.08,1.16.23,1.19.92ZM359.7,95a6.59,6.59,0,0,0,5.2-2.26,9.49,9.49,0,0,0,0-11.63,6.64,6.64,0,0,0-5.2-2.24,6.89,6.89,0,0,0-5.31,2.24,9.31,9.31,0,0,0,0,11.63A6.84,6.84,0,0,0,359.7,95Z"/><path class="cls-1" d="M393.72,101.69a10.13,10.13,0,0,1-6.35-1.83,5.92,5.92,0,0,1-2.37-5V59.62a1,1,0,0,1,1.09-1.09h6.38a1,1,0,0,1,1.09,1.09V92.16c0,1.45.65,2.17,1.95,2.17a6.64,6.64,0,0,0,1.7-.19c.76-.08,1.16.23,1.19.92l.59,4.73a1,1,0,0,1-.92,1.2A15.48,15.48,0,0,1,393.72,101.69Z"/></svg>