<svg xmlns="http://www.w3.org/2000/svg" width="72.797" height="72.797" viewBox="0 0 72.797 72.797"><g transform="translate(72.797 72.797) rotate(180)"><path d="M36.4,0A36.4,36.4,0,1,1,0,36.4,36.4,36.4,0,0,1,36.4,0Z" transform="translate(0 0)" fill="#fff"/><g transform="translate(2.575 24.723) rotate(-30)" fill="none"><path d="M18.422,7.6a5,5,0,0,1,8.682,0L41.252,32.355a5,5,0,0,1-4.341,7.481H8.616a5,5,0,0,1-4.341-7.481Z" stroke="none"/><path d="M 22.76322937011719 12.0933952331543 L 10.33908081054688 33.83567428588867 L 35.18739318847656 33.83567428588867 L 22.76322937011719 12.0933952331543 M 22.76323318481445 5.07781982421875 C 24.4539737701416 5.07781982421875 26.14471626281738 5.917591094970703 27.10445022583008 7.597133636474609 L 41.25179290771484 32.35498046875 C 43.15653228759766 35.68826293945313 40.74968719482422 39.83567428588867 36.91057968139648 39.83567428588867 L 8.615898132324219 39.83567428588867 C 4.776779174804688 39.83567428588867 2.369945526123047 35.68826293945313 4.274684906005859 32.35498046875 L 18.42201614379883 7.597133636474609 C 19.38175010681152 5.917591094970703 21.0724925994873 5.07781982421875 22.76323318481445 5.07781982421875 Z" stroke="none" fill="#000e08"/></g></g></svg>