<svg id="Capa_1" data-name="Capa 1" xmlns="http://www.w3.org/2000/svg" viewBox="0 0 174.64 486.43"><defs><style>.cls-1{fill:#fff;}.cls-2{fill:#979797;}.cls-3{fill:none;}</style></defs><title>Daniel</title><g id="Daniel"><g id="peep-standing-3"><g id="BODY-2"><g id="Grupo_90" data-name="Grupo 90"><g id="Grupo_89" data-name="Grupo 89"><path id="Trazado_2096" data-name="Trazado 2096" class="cls-1" d="M14.43,436.7c-.24.6-.49,1.2-.76,1.78-.15.3-.32.59-.49.9A7,7,0,0,0,11.91,443a18.29,18.29,0,0,1,.43,6.91,30.67,30.67,0,0,1-.6,3.29c-.26,1.11-.56,2.24-.88,3.44v0l-.13.48a61.49,61.49,0,0,0-1.38,10.65c-.08,1.18-.16,2.4-.27,3.68A36.7,36.7,0,0,0,8.9,480c.24,1,1.92,1.66,3.26,2.17a35.74,35.74,0,0,0,14.76,3.1h0a39.74,39.74,0,0,0,8.13-.93,21.12,21.12,0,0,0,3.88-1.24,7,7,0,0,0,2.62-1.83,2.34,2.34,0,0,0,.36-.61,2.3,2.3,0,0,0,.15-.64,7,7,0,0,0,0-1.37,8.16,8.16,0,0,1,0-1.31c0-2.33-.06-4.53-1.55-5.7l-1,.94A80.51,80.51,0,0,0,36.27,462a113.81,113.81,0,0,0-4.92-11.2,1.62,1.62,0,0,0,.28-1,3.85,3.85,0,0,0-.6-1.28,9.08,9.08,0,0,1-.88-2.36,12.31,12.31,0,0,1-.26-2.49,33,33,0,0,1,.45-4.86,92.29,92.29,0,0,1-15.53-2.07Z"/></g></g><g id="Grupo_92" data-name="Grupo 92"><g id="Grupo_91" data-name="Grupo 91"><path id="Trazado_2097" data-name="Trazado 2097" class="cls-1" d="M127.18,467.43l-.39.06a6.32,6.32,0,0,0-1.43-5,11.81,11.81,0,0,0-2-1.9,25.68,25.68,0,0,0-2.45-1.66,86.43,86.43,0,0,1-11.35-9.11,45.49,45.49,0,0,1-4.24-4.43,38.94,38.94,0,0,0-5.15-5.2,12.56,12.56,0,0,0-2.93-1.73,9.28,9.28,0,0,0-1.61-.48,9.15,9.15,0,0,0-1.73-.18,3.62,3.62,0,0,0-.47,0,3,3,0,0,1,0-.42c0-.45.06-.95-.29-1.18-.19-1.92-.47-3.83-.81-5.72a99,99,0,0,0-15.48,2.56c0,.12,0,.25,0,.37a4.79,4.79,0,0,1-1.55,3.7l-.39.47a15,15,0,0,0-1.33,4.73q-.18,1.41-.24,2.85c0,.95,0,1.95,0,3a41.45,41.45,0,0,0,.6,5.67,20.58,20.58,0,0,0,1.18,4.28,5.08,5.08,0,0,1,.12,2.45,6,6,0,0,0,0,1.79,7.75,7.75,0,0,0,.38,1.58,7.51,7.51,0,0,0,.74,1.57,4.34,4.34,0,0,0,1,1.2,2,2,0,0,0,1.25.48h.21c3.49,1.36,6.5,2.47,9.2,3.39,3.07,1,5.84,1.88,8.47,2.55a73.63,73.63,0,0,0,8.06,1.6c1.34.18,2.68.32,4,.41s2.68.14,4,.14a59.91,59.91,0,0,0,6.28-.34,29,29,0,0,0,5.29-1.06,6.18,6.18,0,0,0,3.52-2.42,4.05,4.05,0,0,0,.57-1.8,7,7,0,0,0-.28-2.36Z"/></g></g><g id="Grupo_94" data-name="Grupo 94"><g id="Grupo_93" data-name="Grupo 93"><path id="Trazado_2098" data-name="Trazado 2098" class="cls-1" d="M128.35,468c-.14-.22-.3-.44-.46-.65-.32-.38-.64-.72-.68-.76V466a5.73,5.73,0,0,0-.38-2.13,6.81,6.81,0,0,0-1-1.8,11.64,11.64,0,0,0-2.06-2c-.79-.62-1.63-1.18-2.34-1.63l-.32-.2c-2-1.38-4-2.81-5.81-4.28s-3.76-3.14-5.47-4.78a42,42,0,0,1-3.83-3.95l-1.21-1.39a41.58,41.58,0,0,0-3.52-3.63,13.35,13.35,0,0,0-4-2.53c-2.84.24-5.54.39-5.57.39-1.56,0-2.51,1.32-3.52,2.73A12.09,12.09,0,0,1,86.32,443a4.43,4.43,0,0,1-1.2.76,4.08,4.08,0,0,1-1.5.29,4.28,4.28,0,0,1-2-.49,5.46,5.46,0,0,1-1.72-1.45,11.25,11.25,0,0,1-1.47-2.42,24,24,0,0,1-1.2-3.39H75l-.24.31a7.43,7.43,0,0,0-1.35,2.58,18.47,18.47,0,0,0-.6,5.63,41.36,41.36,0,0,0,.11,6.77,28.57,28.57,0,0,0,.56,3.33,22.89,22.89,0,0,0,1,3.23,11.53,11.53,0,0,1,0,2.42,9.51,9.51,0,0,0,0,1.6,8,8,0,0,0,.55,2.1,7.89,7.89,0,0,0,1.14,2,4.26,4.26,0,0,0,1,.92,2.38,2.38,0,0,0,1.22.36l.3,0,.1,0,.48.2c2.77,1.17,5.48,2.22,8.05,3.12,2.83,1,5.62,1.83,8.28,2.51a78.2,78.2,0,0,0,8.44,1.67,62.25,62.25,0,0,0,8.52.61,54,54,0,0,0,6.1-.35h0c.64-.11,6.31-1.11,7.9-2.25a5.29,5.29,0,0,0,1.38-2.42,11.42,11.42,0,0,0,.5-1.91v-.2A1.2,1.2,0,0,0,128.35,468Z"/></g></g><g id="Grupo_96" data-name="Grupo 96"><g id="Grupo_95" data-name="Grupo 95"><path id="Trazado_2099" data-name="Trazado 2099" class="cls-1" d="M41.92,474.43a11,11,0,0,0-1-1.54,16.55,16.55,0,0,0-1.36-1.65l-.14-.67a82.66,82.66,0,0,0-3.61-11.72l-.52-1.41A12.67,12.67,0,0,0,33.17,454a19.08,19.08,0,0,1-1.31-1.79,7.84,7.84,0,0,1-1-2.17c0-.16.27-.28.61-.41s.7-.26.66-.45a26.5,26.5,0,0,0-2.44-1.93,18.64,18.64,0,0,0-2.39-1.43,8.62,8.62,0,0,0-2.57-.84,6.4,6.4,0,0,0-.88-.06,10.27,10.27,0,0,0-2.4.32,17.35,17.35,0,0,0-2.19.69,18.11,18.11,0,0,0-2.2,1h0a3.74,3.74,0,0,0-1.76.48,6.76,6.76,0,0,0-1.43,1.07,10.17,10.17,0,0,0-1.3,1.55l-1.22,2.1c-.27,1.29-.58,2.6-.88,3.86-.47,2-1,4.1-1.33,6.16a43.14,43.14,0,0,0-.74,6.21,32.76,32.76,0,0,1-.15,4.2l-.07.78a26.61,26.61,0,0,0-.09,5,4.58,4.58,0,0,0,.07,1.33,2.54,2.54,0,0,0,.43,1,3,3,0,0,0,.92.82,7.45,7.45,0,0,0,1.35.61,34.76,34.76,0,0,0,8.54,2.86c1.37.23,2.72.41,4,.53,1.42.13,2.8.2,4.1.2a34.25,34.25,0,0,0,3.79-.21,27.5,27.5,0,0,0,3.71-.68,21.16,21.16,0,0,0,3.53-1.25,18.76,18.76,0,0,0,3.27-1.91,2.06,2.06,0,0,0,.46-1.18,13.54,13.54,0,0,0,.16-1.91c0-1.3,0-2.5,0-2.56A4,4,0,0,0,41.92,474.43Z"/></g></g><g id="Grupo_100" data-name="Grupo 100"><g id="Grupo_99" data-name="Grupo 99"><path id="Trazado_2101" data-name="Trazado 2101" d="M28,445.21a8,8,0,0,0-2.13-.95,8.3,8.3,0,0,0-2.22-.29,12.61,12.61,0,0,0-5.35,1.35,22.15,22.15,0,0,0-4.7,3.08,8.21,8.21,0,0,0-.3-3c-.1-.49-.22-1-.28-1.5a5.46,5.46,0,0,1,0-1.51l.52-1.3h0a29.44,29.44,0,0,0,1.42-4c0-.1,0-.2.07-.3l-.24,0-1.37-.3c-.08.2-.15.41-.23.61l-.05.11a18.13,18.13,0,0,1-.87,1.7A11.15,11.15,0,0,0,11,441.83a10,10,0,0,0,.25,3.58,17.71,17.71,0,0,1,.31,2.17,5.9,5.9,0,0,1-.27,2.21,24.93,24.93,0,0,1-1,5.06,31.72,31.72,0,0,0-.89,3.83c-.4,2.17-.67,4-.85,5.66a37.68,37.68,0,0,0-.19,5.72,20.78,20.78,0,0,0-.59,4c-.08,1.42,0,2.83,0,4v.48c0,.12,0,.25,0,.38a3.75,3.75,0,0,0,.65,2.43,12.72,12.72,0,0,0,3.61,1.94c.48.19,1,.39,1.44.61a46.72,46.72,0,0,0,6.8,1.83,39,39,0,0,0,7.15.69,28.9,28.9,0,0,0,7.68-1,23.8,23.8,0,0,0,3.63-1.3,21.55,21.55,0,0,0,3.4-1.93,2.91,2.91,0,0,0,.88-2,15.39,15.39,0,0,0-.08-2.63,16.64,16.64,0,0,1-.09-2,7.87,7.87,0,0,0-.33-2.2,9.44,9.44,0,0,0-.45-1.22,4.17,4.17,0,0,0-.62-1,1.39,1.39,0,0,0-1-.55,1.25,1.25,0,0,0-.5.11c-.4-1.69-.89-3.42-1.44-5.15s-1.11-3.33-1.77-5c-1.19-3.08-2.6-6.26-4.3-9.7a1.75,1.75,0,0,0,.13-1.31,5,5,0,0,0-.56-1.22l-.1-.16a6.69,6.69,0,0,1-.8-2.07,10.77,10.77,0,0,1-.23-2.33,35.69,35.69,0,0,1,.45-4.85l-2.13-.11A23.68,23.68,0,0,0,28,445.21Zm10.62,34.43a7.78,7.78,0,0,0,1.67-.67,1.84,1.84,0,0,0,.85-.85.94.94,0,0,0,0-.62,1.87,1.87,0,0,0-.45-.7,10.53,10.53,0,0,0,0-2.1c-.08-.74-.22-1.47-.34-2.08l-.05-.26a3.85,3.85,0,0,1,.62,1.12,6.74,6.74,0,0,1,.31,1.31,21.68,21.68,0,0,1,.1,2.9,18.35,18.35,0,0,0,.08,2.57A5,5,0,0,1,39.65,482,13.33,13.33,0,0,1,37,483.26a24.73,24.73,0,0,1-2.94.85c-1.07.25-2,.4-2.59.49l-.26,0a34,34,0,0,1-4.28.26,35.66,35.66,0,0,1-8.9-1.13,35.19,35.19,0,0,1-8.39-3.35c-.67-1-.66-3.09-.66-4.79,0-.52,0-1,0-1.42v-.12h0a3.89,3.89,0,0,0,.74,1.83,6.39,6.39,0,0,0,1.6,1.51,16.89,16.89,0,0,0,4.84,2.13A41.6,41.6,0,0,0,26,481H26c.77,0,4.36-.09,7.88-.51A29.51,29.51,0,0,0,38.64,479.64Zm-7.87-27.89c.24.48.48,1,.78,1.64.22.47.42,1,.64,1.49a18.93,18.93,0,0,0,1.09,2.38,5.43,5.43,0,0,0,1.6,1.87c.32,1.29.66,2.59,1,3.85.67,2.58,1.37,5.24,1.95,7.9.06.33.12.66.19,1a15.09,15.09,0,0,1,.41,4.78,1.47,1.47,0,0,0-.91.53c-1.89.43-3.74.77-5.5,1a45.63,45.63,0,0,1-5.59.37,37.64,37.64,0,0,1-3.83-.2,31.88,31.88,0,0,1-3.77-.63,27.32,27.32,0,0,1-3.67-1.13,25.29,25.29,0,0,1-3.52-1.69,14.87,14.87,0,0,1-.67-2,15.67,15.67,0,0,1-.41-2,23.49,23.49,0,0,1-.2-4.19,64.18,64.18,0,0,1,1-8.51h0c.21-1.3.42-2.52.58-3.74a4.83,4.83,0,0,1,.27-1.46,8,8,0,0,1,.52-1.16,5.91,5.91,0,0,0,.77-2.37A36.27,36.27,0,0,1,18.17,447a17.57,17.57,0,0,1,2.56-.88,10.46,10.46,0,0,1,2.56-.34,7,7,0,0,1,2.73.53,6.28,6.28,0,0,1,1.25.73,6.47,6.47,0,0,1,1.14,1.08c.11.25.21.52.31.81a9.87,9.87,0,0,0,.76,1.73A2.48,2.48,0,0,0,30.77,451.75Z"/></g></g><g id="Grupo_102" data-name="Grupo 102"><g id="Grupo_101" data-name="Grupo 101"><path id="Trazado_2102" data-name="Trazado 2102" d="M128,466.25l-.2,0a7.72,7.72,0,0,0-.2-1.51,7.85,7.85,0,0,0-.46-1.34,8.67,8.67,0,0,0-1.56-2.24,24.13,24.13,0,0,0-4.55-3.43,29.21,29.21,0,0,1-3.48-2.47,72,72,0,0,1-7.23-6.17c-2.06-2-4.22-4.26-6.61-6.95a20.37,20.37,0,0,0-4.15-3.66,11.1,11.1,0,0,0-2.42-1.19,8.57,8.57,0,0,0-2.65-.45,1.59,1.59,0,0,0-.35-1.07l0-.29c-.18-1.69-.42-3.37-.71-5-.72,0-1.45.09-2.17.15,0,.46,0,.93-.06,1.39s0,1.16,0,1.74a8.62,8.62,0,0,0,.3,3.71,3.7,3.7,0,0,0-1,.5,5.79,5.79,0,0,0-.88.76A16.63,16.63,0,0,0,88,440.66a13,13,0,0,1-1.75,2.17,4,4,0,0,1-1.06.71,3.3,3.3,0,0,1-1.31.27,5.09,5.09,0,0,1-.55,0,6.47,6.47,0,0,1-1.86-.77,7.8,7.8,0,0,1-1.59-1.33,8.56,8.56,0,0,1-2-3.72.79.79,0,0,0,.32-.73l-.27-4.35-2,.46c0,.32-.05.64-.1.95A5,5,0,0,1,74.17,437a11.67,11.67,0,0,0-1.29,3.66,27.38,27.38,0,0,0-.47,4.51c0,1.55,0,3.11.1,4.66.09,1.34.23,2.73.4,4.1l0,.29a27.15,27.15,0,0,0,1.17,4l.12.36a4.77,4.77,0,0,1,0,2.06,5.65,5.65,0,0,0,0,1.88,8.73,8.73,0,0,0,.45,1.88,10.14,10.14,0,0,0,.92,1.87,5.65,5.65,0,0,0,1.32,1.44,2.84,2.84,0,0,0,1.65.57l.36,0c3,1.2,5.56,2.2,8,3.06,3,1.05,5.67,1.9,8.3,2.62,1.44.39,2.86.73,4.23,1s2.87.58,4.25.79,2.88.39,4.27.51,2.87.18,4.26.18a45.1,45.1,0,0,0,7.06-.55c1.18-.2,2.35-.44,3.49-.73s2.32-.65,3.45-1.06a7.93,7.93,0,0,0,1.55-1,3.43,3.43,0,0,0,1-1.58,10.19,10.19,0,0,0,.3-2.33,4.78,4.78,0,0,0-.45-2.47A.89.89,0,0,0,128,466.25ZM76.4,435.62c0,.21,0,.45,0,.68a.93.93,0,0,0-.35-.13A3.7,3.7,0,0,0,76.4,435.62Zm-2.28,16.76a42.79,42.79,0,0,1,0-9.73c0-.2.08-.51.12-.87.23-1.83.66-5.24,1.94-5.24h0a.73.73,0,0,1,.3.06,3.55,3.55,0,0,0,.1.86.77.77,0,0,0,.5.56v0s0,.06,0,.09a.16.16,0,0,0-.18.06.13.13,0,0,0,0,.12l0,.13a12.73,12.73,0,0,0,2.83,4.74,8.25,8.25,0,0,0,2.1,1.62,5.16,5.16,0,0,0,2.37.62,4.92,4.92,0,0,0,2.81-.95,10.64,10.64,0,0,0,2.06-2.33,15.33,15.33,0,0,1,1.33-1.68,4.79,4.79,0,0,1,1.69-1.2,5.62,5.62,0,0,1,2.06-.39,7.2,7.2,0,0,1,2.56.5,10.39,10.39,0,0,1,2.34,1.27l.13.09a30.12,30.12,0,0,1,4.54,4.49h0c.53.6,1.08,1.23,1.63,1.82a86.21,86.21,0,0,0,14,12.11l1.12.72h0a18.26,18.26,0,0,1,4.2,3.22,5.36,5.36,0,0,1,.7,1,3.54,3.54,0,0,1,.4,1.1,3.46,3.46,0,0,1,0,1.2,4.39,4.39,0,0,1-.46,1.3,3.6,3.6,0,0,1-1.9,1.44,11.64,11.64,0,0,1-2.33.49c-1.12.16-2.1.29-2.4.92-.62,0-1.26,0-1.9,0a56.53,56.53,0,0,1-12.36-1.49c-1.88-.41-3.87-.92-6.08-1.55s-4.36-1.3-6-1.82l-1.07-.34c-1.7-.6-3.47-1.11-5.17-1.61-1.41-.41-2.87-.83-4.28-1.3a39.24,39.24,0,0,1-4.18-1.62C75.86,459.13,74.65,456.26,74.12,452.38Zm53.7,18v.07c-.51,2.82-4.3,3.5-6.8,4l-.58.11-.15,0c-1.33.23-2.69.4-4.06.51s-2.7.16-4.07.16-2.88-.06-4.35-.17-2.88-.28-4.34-.5a75.38,75.38,0,0,1-8.56-1.85,122.62,122.62,0,0,1-12-3.82,15.94,15.94,0,0,1-5.14-2.54,6.68,6.68,0,0,1-1-1,6,6,0,0,1-.75-1.19,5.44,5.44,0,0,1-.42-1.41,6.09,6.09,0,0,1-.05-1.65,7.57,7.57,0,0,0,3.46,2.4A40.57,40.57,0,0,0,83.76,465c1.14.31,2.23.6,3.07.92l1.51.5.06,0c4.58,1.5,9.32,3.05,14.06,4.22,2.55.63,4.89,1.1,7.15,1.43,1.23.18,2.45.32,3.62.41s2.46.16,3.65.18h.39l.8,0h.86a6,6,0,0,0,1.57-.16,2.61,2.61,0,0,0,1.29-.73,9.89,9.89,0,0,0,1.85-.49,7.91,7.91,0,0,0,1.7-.9,6.12,6.12,0,0,0,1.37-1.27,4.91,4.91,0,0,0,.86-1.65.41.41,0,0,0,.18.05A13,13,0,0,1,127.82,470.37Z"/></g></g></g></g><g id="Grupo_109" data-name="Grupo 109"><g id="Grupo_104" data-name="Grupo 104"><g id="Grupo_103" data-name="Grupo 103"><path id="Trazado_2103" data-name="Trazado 2103" d="M119.24,224.41l-87.86,4.15a1.19,1.19,0,0,0-1,1.13l-.05.53a1.24,1.24,0,0,0-1-1.43.75.75,0,0,0-.21,0c-1.95,60.09-7.22,98.1-12,122.27a528.74,528.74,0,0,0-10.45,91c-.11,3.92-.16,7.15-.18,9.29l22.39-.8,10.35-.24c2.32-11.25,5.72-28.93,9-51.08.66-4.56,1.63-11.2,2.61-19.3,0,0,10.26-84.89,15.72-88.62,1.35-.92,1.87-.54,1.87-.54a1.41,1.41,0,0,1,.33.9c.13,5.14.32,7.71.24,8.09-.27,1.26-.22,18.58-.12,53.2.05,19.13,1.52,18,2.75,45.39.89,19.88.84,36.16.66,46.93q10.92.07,22.5-.31,7-.25,13.79-.67,1.15-44.2,3.1-88.37Q114.56,290.13,119.24,224.41Z"/></g></g><g id="Grupo_108" data-name="Grupo 108"><g id="Grupo_105" data-name="Grupo 105"><path id="Trazado_2104" data-name="Trazado 2104" class="cls-1" d="M74.52,444.3H73.28q.33-18.85-.29-37.71-.31-9.68-.9-19.35-.3-4.85-.73-9.67c-.28-3.22-.62-6.43-.86-9.62C70,361.57,70,355.16,70,348.71l0-19.34V310l0-4.83c0-1.6,0-3.23.1-4.77,0-.23,0-.27,0-.44l0-.2v-.13c0-.07,0-.14,0-.2v-.33l0-1.24L70,295.49,70,293.08l0-1.2,0-.35a3,3,0,0,0-.08-.52,2.45,2.45,0,0,0-.54-1l-.07-.07,0,0a1.07,1.07,0,0,0-.22-.15l-.09,0-.14-.06-.25-.07a2.71,2.71,0,0,0-.41,0,2.8,2.8,0,0,0-.64.08,4.48,4.48,0,0,0-.94.37l-.39.23-.18.12,0,0-.07,0-.12.1-.24.22c-.06.07-.12.13-.17.2l-.29.4a15.55,15.55,0,0,0-1.29,2.89c-.65,1.89-1.14,3.77-1.61,5.66-.91,3.77-1.68,7.56-2.4,11.35C58.25,318.8,57,326.41,55.85,334s-2.23,15.24-3.27,22.87l-1.51,11.45-.73,5.72L50,376.93l-.18,1.43-.09.72,0,.36,0,.18a1.57,1.57,0,0,0,0,.32v-.14l-2.38,17.65c-.82,5.88-1.74,11.74-2.69,17.61q-2.81,17.13-6.26,34.14l-7.28.18H30.6a3.72,3.72,0,0,1,.49,1.4c1.57,0,3,.75,5.22.26a10.1,10.1,0,0,0,2-.67,4.39,4.39,0,0,0,2-3.36c2.4-9.95,4.61-20.49,6.52-31.59q1.56-9,2.72-17.65l2.4-17.7v-.14l1.44-11.3L55,357.21q1.56-11.43,3.28-22.83c1.16-7.6,2.37-15.19,3.79-22.73.71-3.76,1.46-7.52,2.35-11.23.46-1.84.94-3.69,1.54-5.44a14,14,0,0,1,1-2.38l.14-.18s0-.08.06-.08l0,0v0h0l0,0,.12-.07.22-.13,0,1.08.08,2.42.1,2.42,0,1.18v.4a.43.43,0,0,1,0-.05c0,.23-.07.59-.07.76-.08,1.68-.09,3.27-.11,4.9l0,4.84,0,19.35.06,19.34c0,6.43,0,12.94.58,19.41.26,3.23.61,6.44.89,9.64s.55,6.4.76,9.61c.33,5.12.53,9.05.94,19.28C72.3,443,72.08,444.53,71.93,445c-.05.15-.36,1,0,1.35s1.13.06,1.34,0a4.29,4.29,0,0,1,.8,0A3.8,3.8,0,0,1,74.52,444.3Z"/></g><g id="Grupo_106" data-name="Grupo 106"><path id="Trazado_2105" data-name="Trazado 2105" class="cls-1" d="M117.19,251.86q-1,13.72-1.86,27.46-1.77,27.46-3.23,55t-2.56,55q-1.12,27.08-1.88,54.17l-4.61.21a3.55,3.55,0,0,1,.57,1.63l2.6-.27a3.65,3.65,0,0,0,2-.68c1.42-1.12,1.36-3.36,1.34-4-.28-17,3.57-34.11,1.48-51-.2-1.64.61-19.42,2.17-55q1.2-27.49,2.72-55,.75-13.74,1.58-27.48c.55-9.15,1.11-18.33,1.7-27.47C118.53,233.57,117.85,242.69,117.19,251.86Z"/></g><g id="Grupo_107" data-name="Grupo 107"><path id="Trazado_2106" data-name="Trazado 2106" class="cls-1" d="M74.3,226.29l-22.55.94-11.3.48L34.8,228l-2.82.12h-.53a1.5,1.5,0,0,0-1.09.49l-.12.17a1.46,1.46,0,0,0-.42-.32,1.4,1.4,0,0,0-.78-.14l-.42,0v.43c-.38,9.32-.78,18.64-1.36,27.95s-1.2,18.62-2,27.92c-1.63,18.58-3.82,37.11-7,55.48-.8,4.59-1.66,9.16-2.59,13.74s-1.78,9.18-2.58,13.78C11.21,378.33,10.8,383,9,395.38a366,366,0,0,0-3,53.66,3.49,3.49,0,0,0,.67,2c.92,1.21,2.67,1.6,4.69,1.56a2.32,2.32,0,0,1,.21-.38,3.2,3.2,0,0,1,1.07-1.87c0-.08.12-.15.18-.23a3.36,3.36,0,0,1,.32-.51c-.54,0-1.11,0-1.76.08-.94.07-2.25.18-3.83.39A539.4,539.4,0,0,1,11,395.61q1.58-13.87,3.9-27.67,1.16-6.88,2.5-13.75c.9-4.58,1.75-9.19,2.53-13.8,3.1-18.44,5.16-37,6.66-55.66,1.5-18.42,2.38-36.88,2.92-55.34a.47.47,0,0,1,.1.1,1,1,0,0,1,.19.68l.93.09,0-.35v-.18s0-.08,0-.12a.84.84,0,0,1,.2-.4.66.66,0,0,1,.34-.2H32l2.8-.15,5.6-.29L51.66,228l22.46-1.18,45.12-2.37Z"/></g></g></g><g id="_Skin-4" data-name=" Skin-4"><g id="Grupo_110" data-name="Grupo 110"><path id="Trazado_2107" data-name="Trazado 2107" class="cls-1" d="M170.26,110.85l-7.56,1.35c-12.08,1.87-24.09,4.83-36.06,7a.74.74,0,0,0-1-.2.84.84,0,0,0-.21.21c-1.21,0-2.61-.92-3.64.19h-.11a85.39,85.39,0,0,1-5.35-12.25,14.53,14.53,0,0,0-4.45-6.66C108.16,98,99.75,93.28,95.63,93.8a3.34,3.34,0,0,0-1.11-2.08c1.11-2.39-4-3.53-4.32-3.24-.25-7.69-4-14.11-11.48-15.11-6.71-1-16.13-.58-19.23,7.12-.39,0-4.39.25-4.77.32-.65-.78-6.78,7.48-3.9,10-2.3,1.54-5.92,3.92-10.47,6.68-16.25,9.88-17.89,8.63-21.88,13-5.94,6.6-7.2,15.36-9.67,26.07-.72,3.12-.58,6.45-1.35,9.5-2.87,8.81-5.07,18.12-5.18,27.49-1.63.58-1.62,3.74.32,4.06a4.25,4.25,0,0,1,1.94.73c0,7.66,2.84,25,3.92,24.85,2.67,7.39,12.61,8.81,19.4,5.66-1.05,2.52.24,4,.32,5.26,25.07-.78,52.37-3.33,77.45-3.72,3.2-.28,6.61.37,9.74-.37,1.89-.63,1.69-3.9-.28-4.16l8.4-2.6a35.09,35.09,0,0,0,5.83-8.16c2.27-5.73.08-12.31.89-18.43,9.17-1.48,18.52-2.5,27.54-4.84,1.49,3.92,6.58-1.26,8.17-3.31h0a2.25,2.25,0,0,0,1.39-2.18,2.9,2.9,0,0,0,0-3c1.57-16.07,4.46-32.56,4.88-48.69a3.28,3.28,0,0,0,1.32-.81l0,0a1.88,1.88,0,0,0-.23-2.67,1,1,0,0,0-.27-.19A3.57,3.57,0,0,0,170.26,110.85Z"/></g></g><g id="_Top-2" data-name=" Top-2"><g id="Grupo_111" data-name="Grupo 111"><path id="Trazado_2108" data-name="Trazado 2108" d="M100.87,223.71c-16.7.1-23,.15-31.74.66-4.1.24-7.46.51-9.68.7l-5.18.77-6.33.46-6.7.48a41.42,41.42,0,0,0-12.51,3.31l-1.11-20.47,21.46-13.46,19.14-13.49,9.29-5.47,2,1.2,16.32,4.4,9.84.64,7.91-1.91.91,14.74,4.66,27.33ZM33,178.2l-4.13.3L4.49,174l-2.21-.61a67.4,67.4,0,0,1,.47-7c.25-2.22.63-4.54,1.1-6.89a115.47,115.47,0,0,1,3.6-13.42,33.5,33.5,0,0,0,.71-4.89,35.72,35.72,0,0,1,.63-4.61,72.53,72.53,0,0,1,4-16.28c.42-1.06.87-2.1,1.35-3.06s1-1.87,1.49-2.74A31.37,31.37,0,0,1,19,109.89,35.2,35.2,0,0,1,27.56,103a34.08,34.08,0,0,1,8.75-3.47h0a61.7,61.7,0,0,0,14.5-8.7,2.32,2.32,0,0,1-.75-1.57,5.65,5.65,0,0,1,.27-2.08,15.28,15.28,0,0,1,2.17-4.28,11.91,11.91,0,0,1,1.22-1.5,1.92,1.92,0,0,1,.85-.61.15.15,0,0,1,.14,0h.12l.1,0,1.42-.11c1.29-.09,2.9-.19,3.14-.18a11,11,0,0,1,.59-1.25l1.54,1.08-2.86,5.9L75.22,98.71l.67,10.87,5.26,4.69L83.66,109l3.63-6,2.25-9.45-1.34-6,1.93-.34c0,.42.06.84.07,1.26a.29.29,0,0,1,.16,0,5.91,5.91,0,0,1,2,.44,6.07,6.07,0,0,1,1.2.59,2.66,2.66,0,0,1,.87.83,1.42,1.42,0,0,1,.07,1.42,3.29,3.29,0,0,1,1.11,2.08l.26,0a10.92,10.92,0,0,1,3.76.59,33.83,33.83,0,0,1,4.44,1.75c1.37.65,2.83,1.4,4.33,2.25s2.7,1.6,3.43,2.07a10.8,10.8,0,0,1,2.66,3,22,22,0,0,1,1.78,3.69l.23.63.24.65.25.64a73.58,73.58,0,0,0,4.64,10.33h.1a1.62,1.62,0,0,1,1.14-.55,4.53,4.53,0,0,1,1.37.18,7.19,7.19,0,0,0,1.13.18.94.94,0,0,1,.63-.35.66.66,0,0,1,.6.3l0,0-14.79,4.26-7.58,38.08-9.07-6.91-4.57,1.07-11.91,5.62-13.94,5Z"/></g></g><g id="Grupo_113" data-name="Grupo 113"><g id="Grupo_112" data-name="Grupo 112"><path id="Trazado_2109" data-name="Trazado 2109" class="cls-1" d="M28.42,230.11a1.67,1.67,0,0,0,.31.47c.17.18.29.31.42.29s.27-.25.36-.64A4.05,4.05,0,0,1,28.42,230.11Z"/></g></g><g id="Grupo_116" data-name="Grupo 116"><g id="Grupo_114" data-name="Grupo 114"><path id="Trazado_2110" data-name="Trazado 2110" class="cls-1" d="M91.77,89.76l.54.39.41.28a4.74,4.74,0,0,1,1.53,1.39,4.28,4.28,0,0,1,.29,2.32c0,.13,0,.26,0,.38v.24c0,.17,0,.35,0,.52h0c0,.62-.07,1.25,0,1.87a.57.57,0,0,0-.34.25,13.4,13.4,0,0,0-.75,1.46,11.49,11.49,0,0,1-1,1.79c-.2.28-.42.55-.63.81a9.83,9.83,0,0,0-1.3,1.92,7.28,7.28,0,0,0-.64,2.33,12.43,12.43,0,0,0,0,2.44l-.87-.62,0,0-.3-.23a3,3,0,0,0-1.73-.82.86.86,0,0,0-.23.05c-.54.17-.93.88-1.25,1.44h0q-.09.18-.18.33l-.1.17a17,17,0,0,0-1.27,2.78.11.11,0,0,0,0,.12.08.08,0,0,0,.09,0,.1.1,0,0,0,.09-.06,16.34,16.34,0,0,1,1.36-1.93l0-.05.11-.14h0c.32-.41.93-1.19,1.25-1.21h0a2.66,2.66,0,0,1,.64.52c.07.07.12.13.16.16l.26.22.55.44.64.5,1.29,1A.93.93,0,0,0,91,111a.89.89,0,0,0,.65-.34.83.83,0,0,0,.15-.63c0-.12,0-.25,0-.38a18.88,18.88,0,0,1-.24-3.19,5.67,5.67,0,0,1,.88-3c.26-.39.56-.79.84-1.17a10.18,10.18,0,0,0,2-3.63,1,1,0,0,0,.3,0,.77.77,0,0,0,.48-.2.83.83,0,0,0,.27-.55,20.88,20.88,0,0,0,.11-3h0c0-.26,0-.54,0-.8v-.1A6.31,6.31,0,0,0,95.84,91a4.43,4.43,0,0,0-2.08-1.74l-.1,0L93.2,89A9.31,9.31,0,0,0,90.45,88h0a.26.26,0,0,0-.22.18.2.2,0,0,0,0,.21Z"/></g><g id="Grupo_115" data-name="Grupo 115"><path id="Trazado_2111" data-name="Trazado 2111" class="cls-2" d="M83.91,111.6a.31.31,0,0,1-.26-.14.34.34,0,0,1,0-.31,18.18,18.18,0,0,1,1.29-2.8l.1-.17c.06-.1.12-.2.18-.32.33-.6.75-1.35,1.36-1.54a1.4,1.4,0,0,1,.28-.06,3.07,3.07,0,0,1,1.87.86l.3.23,0,0,.53.38a12.89,12.89,0,0,1,0-2.06,7.33,7.33,0,0,1,.65-2.38,11,11,0,0,1,1.33-2c.22-.27.43-.53.62-.8a9.88,9.88,0,0,0,1-1.75,13,13,0,0,1,.77-1.48.7.7,0,0,1,.31-.28c0-.59,0-1.18.05-1.75,0-.18,0-.35,0-.53v-.23c0-.13,0-.25,0-.39a4.28,4.28,0,0,0-.26-2.21,4.65,4.65,0,0,0-1.47-1.32l-.42-.29-.56-.4L90.07,88.5a.42.42,0,0,1-.08-.44.47.47,0,0,1,.39-.3h.09a9.49,9.49,0,0,1,2.82,1.09l.09,0,.36.18.11.06A4.57,4.57,0,0,1,96,91a6.57,6.57,0,0,1,.57,3.15V95a21.49,21.49,0,0,1-.1,3,1.18,1.18,0,0,1-.33.68,1,1,0,0,1-.62.25h-.16a10.7,10.7,0,0,1-2,3.53c-.3.4-.59.78-.84,1.17a5.34,5.34,0,0,0-.84,2.88,19.68,19.68,0,0,0,.23,3.16l0,.38a1,1,0,0,1-.18.77,1.12,1.12,0,0,1-.81.42,1.14,1.14,0,0,1-.78-.23l-1.29-1-.64-.5-.55-.44-.27-.23a1.11,1.11,0,0,1-.17-.16,4.13,4.13,0,0,0-.55-.47c-.13,0-.5.4-1.08,1.14l-.15.19a15,15,0,0,0-1.35,1.91.31.31,0,0,1-.24.16Zm.09-.3Zm-.17-.06Zm2.94-3.44h0c.16,0,.35.18.76.58l.15.14.27.22.54.44.64.5,1.29,1a.75.75,0,0,0,.51.15.68.68,0,0,0,.51-.27.6.6,0,0,0,.11-.47l0-.38a19.43,19.43,0,0,1-.24-3.23,5.86,5.86,0,0,1,.91-3.09c.26-.39.55-.78.83-1.16a9.84,9.84,0,0,0,2-3.58l0-.2.2,0a.58.58,0,0,0,.23,0,.56.56,0,0,0,.37-.15.72.72,0,0,0,.2-.42,20.64,20.64,0,0,0,.1-2.94c0-.27,0-.55,0-.82v-.1a6.15,6.15,0,0,0-.51-3,4.28,4.28,0,0,0-2-1.65l-.11-.06-.37-.18-.08,0a9.08,9.08,0,0,0-2.7-1,.06.06,0,0,0-.06,0l1.54,1.39.53.38.41.29a4.7,4.7,0,0,1,1.59,1.45,4.51,4.51,0,0,1,.32,2.43c0,.13,0,.25,0,.38v.24l0,.52c0,.62-.06,1.25-.05,1.87v.17l-.16,0a.33.33,0,0,0-.21.15,13,13,0,0,0-.74,1.44,10.7,10.7,0,0,1-1,1.82c-.2.28-.41.55-.62.81a9.61,9.61,0,0,0-1.3,1.91,7.06,7.06,0,0,0-.62,2.24,12.13,12.13,0,0,0,0,2.41l0,.45-.36-.27-.87-.62,0,0-.31-.23a2.76,2.76,0,0,0-1.59-.78l-.19,0c-.46.15-.83.81-1.13,1.35l-.19.33-.1.18a16.11,16.11,0,0,0-.94,1.91,13.4,13.4,0,0,1,.9-1.2l.14-.18c.63-.8,1-1.27,1.4-1.3Z"/></g></g><g id="Grupo_119" data-name="Grupo 119"><g id="Grupo_117" data-name="Grupo 117"><path id="Trazado_2112" data-name="Trazado 2112" class="cls-1" d="M81.9,113.41a.5.5,0,0,0,.23-.09,2.75,2.75,0,0,0,.85-1.67l.08-.34a11.07,11.07,0,0,1,.91-2.57,12.62,12.62,0,0,1,2-2.62,16.88,16.88,0,0,0,1.56-1.93,20.61,20.61,0,0,0,2.16-4.87l.11-.35a34.25,34.25,0,0,0,1-3.6.89.89,0,0,0,.51-.42A2.07,2.07,0,0,0,91.19,93l0-.1,0-.13h0a1.49,1.49,0,0,1,0-.21.12.12,0,0,0,0-.1.09.09,0,0,0-.08,0,.13.13,0,0,0-.09.07h0l0-.1a2.2,2.2,0,0,0-.09-.21c-.42-1.09-.8-2.17-1.11-3.19-.15-.51-.3-1-.44-1.54h0c-.15-.5-.3-1-.45-1.53s-.3-1-.44-1.52a9.1,9.1,0,0,0-.46-1.33l0,0a.27.27,0,0,0,0-.35.23.23,0,0,0-.19-.09.21.21,0,0,0-.1,0L87.24,85v.31a22.53,22.53,0,0,0,.41,3.66,30.13,30.13,0,0,0,1,3.73l0,.07c0,.11.07.23.11.35a4.23,4.23,0,0,0,1,2c-.27.64-.54,1.3-.79,1.93h0l-.65,1.58a18,18,0,0,1-3,5.34l-.62.66A14,14,0,0,0,82,108.35a11.09,11.09,0,0,0-.88,2.5,2.56,2.56,0,0,0,.46,2.44A.46.46,0,0,0,81.9,113.41Z"/></g><g id="Grupo_118" data-name="Grupo 118"><path id="Trazado_2113" data-name="Trazado 2113" class="cls-2" d="M81.86,113.61a.63.63,0,0,1-.45-.18,2.77,2.77,0,0,1-.52-2.62,11.62,11.62,0,0,1,.9-2.56,14.28,14.28,0,0,1,2.81-3.75l.62-.66a17.71,17.71,0,0,0,3-5.28l.61-1.5,0-.08c.24-.61.49-1.22.74-1.82a4.93,4.93,0,0,1-1-2c0-.13-.08-.24-.11-.36l0-.06a30.59,30.59,0,0,1-1-3.76,21.71,21.71,0,0,1-.41-3.68v-.36l.43-2.38.08,0a.32.32,0,0,1,.19-.07.39.39,0,0,1,.35.16.45.45,0,0,1,.07.54,8.74,8.74,0,0,1,.42,1.25c.13.48.28,1,.44,1.51s.29,1,.43,1.47v.06L89.91,89c.31,1,.68,2.09,1.11,3.18l0,.1a.26.26,0,0,1,.23.1.32.32,0,0,1,.08.25c0,.06,0,.12,0,.18v0l0,.1,0,0a2.23,2.23,0,0,1,.07,2.1,1.08,1.08,0,0,1-.51.46,35.3,35.3,0,0,1-1,3.52l-.11.34a20.45,20.45,0,0,1-2.18,4.92,17.37,17.37,0,0,1-1.58,2,13,13,0,0,0-1.92,2.57,10.31,10.31,0,0,0-.9,2.53l-.08.34a2.89,2.89,0,0,1-.92,1.78.62.62,0,0,1-.34.13ZM87.44,85v.29a21.93,21.93,0,0,0,.41,3.62,27.6,27.6,0,0,0,1,3.7l0,.07c0,.12.08.24.11.36a4.38,4.38,0,0,0,1,1.93L90,95l-.06.14c-.27.64-.53,1.3-.79,1.93l0,.09c-.2.5-.41,1-.62,1.51a17.84,17.84,0,0,1-3,5.4l-.6.64a13.82,13.82,0,0,0-2.76,3.68,11.28,11.28,0,0,0-.88,2.46,2.4,2.4,0,0,0,.41,2.25.26.26,0,0,0,.19.07h0a.21.21,0,0,0,.12,0,2.62,2.62,0,0,0,.78-1.55l.08-.34a11,11,0,0,1,.92-2.62,13.35,13.35,0,0,1,2-2.67,15.59,15.59,0,0,0,1.54-1.9,20.27,20.27,0,0,0,2.14-4.83l.11-.34a36.48,36.48,0,0,0,1-3.58l0-.12.12,0a.62.62,0,0,0,.39-.32A1.82,1.82,0,0,0,91,93.11L91,93v0l-.21-.44-.09-.22c-.43-1.1-.8-2.18-1.11-3.21-.16-.51-.3-1-.45-1.53l0-.07c-.14-.48-.28-1-.43-1.47s-.31-1-.44-1.52a9.35,9.35,0,0,0-.43-1.26ZM91,92.58Z"/></g></g><g id="Grupo_121" data-name="Grupo 121"><g id="Grupo_120" data-name="Grupo 120"><path id="Trazado_2114" data-name="Trazado 2114" d="M100.19,166.71A9.12,9.12,0,0,1,99,165.66a8.53,8.53,0,0,0-1-.92,3.43,3.43,0,0,0-2.45-.7,4.42,4.42,0,0,0-.73.1l-7,2.06-1.8.62a.07.07,0,0,0,0,.08A.06.06,0,0,0,86,167h0c1.67-.28,3.31-.58,4.86-.89.53-.1,1.06-.24,1.57-.36h0a21.09,21.09,0,0,1,2.74-.55l.14,0a2.72,2.72,0,0,1,1.58.34,5.78,5.78,0,0,1,1.26,1l.58.57a3.15,3.15,0,0,0,2.37,1.15,2.14,2.14,0,0,0,.65-.16.41.41,0,0,0,.26-.49.43.43,0,0,0-.43-.38A2.47,2.47,0,0,1,100.19,166.71Z"/></g></g><g id="Grupo_124" data-name="Grupo 124"><g id="Grupo_122" data-name="Grupo 122"><path id="Trazado_2115" data-name="Trazado 2115" class="cls-1" d="M76.68,184.07l-.06,0-1.34,1.8-.24.41c-.34.6-.72,1.26-1.17,2.09-.84,1.54-1.68,3.1-2.49,4.62l-.24.44a111.9,111.9,0,0,0-5,10.33.78.78,0,0,0,.08.74.73.73,0,0,0,.62.36h0a.58.58,0,0,0,.44-.28,61.58,61.58,0,0,0,5.67-10c.77-1.68,1.55-3.46,2.3-5.28.41-1,.74-1.89,1-2.71l0-.08.12-.32a4.75,4.75,0,0,0,.43-2A.14.14,0,0,0,76.68,184.07Z"/></g><g id="Grupo_123" data-name="Grupo 123"><path id="Trazado_2116" data-name="Trazado 2116" class="cls-2" d="M66.81,205.09a.94.94,0,0,1-.8-.45,1,1,0,0,1-.09-.92,110,110,0,0,1,5-10.36l.3-.56c.79-1.47,1.61-3,2.43-4.5.46-.84.83-1.5,1.17-2.1l.25-.41,1.4-1.87a.28.28,0,0,1,.16,0h0a.32.32,0,0,1,.34.31,4.77,4.77,0,0,1-.43,2.1l-.14.4c-.29.81-.63,1.7-1,2.71-.75,1.83-1.52,3.61-2.3,5.3a62,62,0,0,1-5.68,10,.78.78,0,0,1-.59.35Zm9.82-20.66L75.45,186l-.23.4c-.34.58-.72,1.25-1.17,2.08-.82,1.5-1.64,3-2.43,4.5l-.3.56a109.15,109.15,0,0,0-5,10.32.57.57,0,0,0,.06.55.53.53,0,0,0,.44.27h0a.42.42,0,0,0,.27-.18,61.39,61.39,0,0,0,5.65-10c.78-1.68,1.55-3.46,2.3-5.28.41-1,.75-1.88,1-2.7l.14-.4A5.24,5.24,0,0,0,76.63,184.43Zm0-.21Z"/></g></g><g id="Grupo_127" data-name="Grupo 127"><g id="Grupo_125" data-name="Grupo 125"><path id="Trazado_2117" data-name="Trazado 2117" class="cls-1" d="M78.7,115a3.48,3.48,0,0,0-1.69-.57,6.88,6.88,0,0,1-1.09-.25A3.67,3.67,0,0,1,74.37,113a11.24,11.24,0,0,1-1.08-1.66,13.51,13.51,0,0,0-.92-1.44.17.17,0,0,0-.17-.08.16.16,0,0,0-.13.06.17.17,0,0,0,0,.14l2.14,4.39a4,4,0,0,0,2,1.08l.55.1a3,3,0,0,1,1.2.35,1.93,1.93,0,0,1,.54.63c.08.12.17.25.26.36a.31.31,0,0,0,.28.12.48.48,0,0,0,.38-.26,1.17,1.17,0,0,0,0-1A2.1,2.1,0,0,0,78.7,115Z"/></g><g id="Grupo_126" data-name="Grupo 126"><path id="Trazado_2118" data-name="Trazado 2118" class="cls-2" d="M78.94,117.28a.53.53,0,0,1-.4-.19,3.39,3.39,0,0,1-.27-.39,1.7,1.7,0,0,0-.5-.57,2.85,2.85,0,0,0-1.1-.32,3.57,3.57,0,0,1-.57-.1A4.27,4.27,0,0,1,74,114.58l0,0-2.15-4.45a.36.36,0,0,1,.3-.43h0a.38.38,0,0,1,.34.15,14,14,0,0,1,.93,1.47,11.67,11.67,0,0,0,1.06,1.63A3.5,3.5,0,0,0,76,114a5.31,5.31,0,0,0,1.05.23,3.79,3.79,0,0,1,1.78.61,2.33,2.33,0,0,1,.74.88,1.39,1.39,0,0,1,0,1.21.7.7,0,0,1-.54.37Zm-4.6-3a4,4,0,0,0,1.85,1,5.07,5.07,0,0,0,.54.09,2.9,2.9,0,0,1,1.28.39,2.13,2.13,0,0,1,.61.69,2.62,2.62,0,0,0,.24.34.1.1,0,0,0,.1,0,.31.31,0,0,0,.23-.15,1,1,0,0,0,0-.85,1.86,1.86,0,0,0-.61-.72h0a3.51,3.51,0,0,0-1.59-.54,5.54,5.54,0,0,1-1.14-.26,3.83,3.83,0,0,1-1.64-1.2,10.79,10.79,0,0,1-1.1-1.68q-.34-.61-.75-1.2Z"/></g></g><g id="Grupo_130" data-name="Grupo 130"><g id="Grupo_128" data-name="Grupo 128"><path id="Trazado_2119" data-name="Trazado 2119" class="cls-1" d="M46.15,135.62a.72.72,0,0,0,.6.25h0a.61.61,0,0,0,.56-.57,29.62,29.62,0,0,0,0-9.35,33.79,33.79,0,0,0-1-4.56A35,35,0,0,0,44.66,117a.21.21,0,0,0-.22-.14.18.18,0,0,0-.16.1.21.21,0,0,0,0,.19L46,135A.76.76,0,0,0,46.15,135.62Z"/></g><g id="Grupo_129" data-name="Grupo 129"><path id="Trazado_2120" data-name="Trazado 2120" class="cls-2" d="M46.7,136.08a1,1,0,0,1-.7-.32h0a1,1,0,0,1-.23-.76l-1.7-17.77a.4.4,0,0,1,.25-.51l.11,0a.43.43,0,0,1,.42.26,35.85,35.85,0,0,1,1.63,4.37,34.6,34.6,0,0,1,1,4.59,30,30,0,0,1,0,9.41.81.81,0,0,1-.75.75Zm-.4-.59a.55.55,0,0,0,.43.18.41.41,0,0,0,.38-.39,29.24,29.24,0,0,0,0-9.29,33.17,33.17,0,0,0-1-4.54,34.58,34.58,0,0,0-1.61-4.33v0l0,0L46.17,135v0a.6.6,0,0,0,.13.46Z"/></g></g><g id="Grupo_133" data-name="Grupo 133"><g id="Grupo_131" data-name="Grupo 131"><path id="Trazado_2121" data-name="Trazado 2121" class="cls-1" d="M39.31,143a.5.5,0,0,0,.56.42.65.65,0,0,0,.48-.25.6.6,0,0,0,.13-.43c-.17-2.46-.45-4.95-.83-7.38s-.88-4.84-1.47-7.27c-.68-2.75-1.31-5-2-7.08-.08-.24-.16-.48-.23-.71a28,28,0,0,0-2.42-6,.14.14,0,0,0-.12-.06.12.12,0,0,0-.1,0,.19.19,0,0,0,0,.1l1.43,7c.13.56.26,1.13.38,1.68h0c.42,1.81.84,3.69,1.23,5.54.54,2.6,1.09,5.24,1.61,7.8h0C38.4,138.52,38.86,140.75,39.31,143Z"/></g><g id="Grupo_132" data-name="Grupo 132"><path id="Trazado_2122" data-name="Trazado 2122" class="cls-2" d="M39.79,143.59a.7.7,0,0,1-.67-.59c-.37-1.77-.74-3.56-1.1-5.31l-.26-1.3c-.53-2.56-1.07-5.21-1.61-7.81-.39-1.84-.82-3.7-1.23-5.51l-.39-1.7-1.43-7a.39.39,0,0,1,.07-.26.34.34,0,0,1,.25-.13.32.32,0,0,1,.3.16,28.14,28.14,0,0,1,2.44,6l.23.71c.67,2.08,1.3,4.34,2,7.1.6,2.43,1.1,4.88,1.48,7.28s.66,4.93.83,7.4a.82.82,0,0,1-.18.58.92.92,0,0,1-.62.32Zm-6.21-28.85,1.35,6.55.38,1.68c.42,1.82.84,3.69,1.23,5.53.54,2.6,1.09,5.25,1.61,7.8l.27,1.3c.36,1.76.72,3.55,1.09,5.31h0a.32.32,0,0,0,.33.27.52.52,0,0,0,.35-.18.4.4,0,0,0,.09-.29c-.17-2.46-.45-4.94-.83-7.37s-.87-4.83-1.47-7.25c-.68-2.75-1.3-5-2-7.06l-.23-.72A29.34,29.34,0,0,0,33.58,114.74Zm-.21-.35Z"/></g></g><g id="Grupo_135" data-name="Grupo 135"><g id="Grupo_134" data-name="Grupo 134"><path id="Trazado_2123" data-name="Trazado 2123" d="M102.27,163.3a.31.31,0,0,0,.25-.19.33.33,0,0,0,0-.29,11.24,11.24,0,0,0-3.86-3.08l-.3-.16a4.91,4.91,0,0,0-1.62-.58,6.92,6.92,0,0,0-1.64-.07,14.82,14.82,0,0,0-1.47.2l-.19,0-5.08,1.23-.11,0a19.84,19.84,0,0,0-5,2,.17.17,0,0,0-.08.22.2.2,0,0,0,.2.16h0a26.65,26.65,0,0,0,3-.76c.53-.16,1.07-.31,1.61-.45,1.55-.4,3.23-.75,5-1.05l.11,0c.61-.1,1.19-.2,1.76-.24a4.86,4.86,0,0,1,3,.64c.4.24.78.51,1.16.77s1,.67,1.5,1a5.53,5.53,0,0,0,1.66.61Z"/></g></g><g id="Grupo_140" data-name="Grupo 140"><g id="_Skin-2-4" data-name=" Skin-2-4"><g id="Grupo_136" data-name="Grupo 136"><path id="Trazado_2124" data-name="Trazado 2124" class="cls-1" d="M65.81,6.28c9.54-.68,22.24,4.88,23.7,11.41,1.72,7.7,10.19,37.09,9.28,46.77S90.26,81.62,77.36,82.55s-23-6-25.37-8.41-7-11.45-7-11.45-7-.49-7.37-6.56a9.18,9.18,0,0,1,4-8.6s-3.1-23.83.58-30.36S56.27,7,65.81,6.28Z"/></g></g><g id="_Ink-3-5" data-name=" Ink-3-5"><g id="Grupo_137" data-name="Grupo 137"><path id="Trazado_2125" data-name="Trazado 2125" d="M78.44,83.72c-.64,0-1.28.07-1.9.07a26.75,26.75,0,0,1-3.9-.31l-.15,0A6.71,6.71,0,0,1,70.68,83a3.08,3.08,0,0,1-1.41-1.26,1,1,0,0,1-.09-.67.62.62,0,0,1,.29-.4,3.29,3.29,0,0,1,1.46-.49h.43a9.89,9.89,0,0,1,1.33.18l.8.13a23.06,23.06,0,0,0,4.07.15l.6,0a22.88,22.88,0,0,0,7.23-1.68,25.56,25.56,0,0,0,3.18-1.6,23.28,23.28,0,0,0,3-2.09,18.25,18.25,0,0,0,4.69-5.65A12.27,12.27,0,0,0,97,67.73a13.25,13.25,0,0,0,.47-1.88A17.81,17.81,0,0,0,97.74,62a48.65,48.65,0,0,0-1.23-7.78h0L96.26,53l0-.17C94.87,46.31,93.78,41,92.8,36.19l-.48-2.38c-.25-1.27-.5-2.45-.74-3.61h0a121.74,121.74,0,0,1-2.26-13.56.09.09,0,0,1,0-.08.1.1,0,0,1,.15,0h0l0,0c1.26,3.61,2.29,6.79,3.23,10,.9,3.08,1.76,6.32,2.7,10.2L96,39l.23.93c1.32,5.42,2.68,11,3.88,16.57l.08.35a39.33,39.33,0,0,1,.73,4.58,21.17,21.17,0,0,1,0,4.64,14.83,14.83,0,0,1-1.16,4.19A17,17,0,0,1,97.52,74a24.14,24.14,0,0,1-6,5.4A27.16,27.16,0,0,1,88,81.26a30.45,30.45,0,0,1-3.7,1.38A27.25,27.25,0,0,1,78.44,83.72ZM56.06,77.29a2.6,2.6,0,0,1-1-.18,5.17,5.17,0,0,1-1-.52l0,0A21.75,21.75,0,0,1,49.84,73a21.44,21.44,0,0,1-3.1-4.5,23.59,23.59,0,0,1-1.91-5.21,1.93,1.93,0,0,1-.71,1,2.39,2.39,0,0,1-1.22.4,3.68,3.68,0,0,1-.74,0A4.25,4.25,0,0,1,40.31,64a5.45,5.45,0,0,1-1.48-1.39,9.81,9.81,0,0,1-1.5-4A18,18,0,0,1,37,54.22a9.87,9.87,0,0,1,.63-3,6,6,0,0,1,1.67-2.41,16.11,16.11,0,0,1-1.39-4.26A30,30,0,0,1,37.43,40a88.73,88.73,0,0,1,.32-8.93l.15-2.33.66-10.57,0-.43c.07-1.12.17-2.43.34-3.73a23.65,23.65,0,0,1,.76-3.65A15.32,15.32,0,0,1,41.11,7a10.06,10.06,0,0,1,2.29-2.7A9.61,9.61,0,0,1,45,3.25a11.43,11.43,0,0,1,1.78-.72C48,2.17,49.29,2,50.54,1.6l.2,0,.32,0c2.22.16,10.51-.23,17.17-.55L76.51.62,77.83.56l3.59-.2,3.5-.2H85a2.22,2.22,0,0,1,.85.07h0A8.6,8.6,0,0,1,87.69,0h.14a2.34,2.34,0,0,1,1.78.52,1.25,1.25,0,0,1,.41,1v.05l1.33,0a1.16,1.16,0,0,1,1,.55,1.43,1.43,0,0,1,.12,1.21l0,0a29.17,29.17,0,0,0-.77,5.18c-.08.9-.16,1.67-.24,2.18a24.07,24.07,0,0,0-.25,2.53c0,.1,0,.2,0,.3a3.68,3.68,0,0,1-.29,1.64,1.68,1.68,0,0,1-.62.7,1.76,1.76,0,0,1-.83.29,1.28,1.28,0,0,1-.92-.28,1.4,1.4,0,0,1-.48-1,.43.43,0,0,1,0-.16c-2.27.05-4.91.19-7.63.38-3.55.26-7,.6-9.77,1a91.14,91.14,0,0,0-14.22,3.13c-1.19.36-2.37.75-3.52,1.15l-.74.24a7.09,7.09,0,0,0-2.24,1,1.91,1.91,0,0,0-.75,1.32,5.35,5.35,0,0,0,.08,1.6c.1.63.19.73.31.86a1.77,1.77,0,0,1,.36.71l0,.07a21.21,21.21,0,0,0,1.28,3.26c.06.13.13.25.2.37a2.3,2.3,0,0,1,.43,1.5,2.53,2.53,0,0,1-.58,1.14,3.67,3.67,0,0,1-1.88,1,5.18,5.18,0,0,0-1.21.45,2,2,0,0,0-.87,1,9.1,9.1,0,0,0-.57,2.87c-.07,1,0,2.07,0,3,0,.15,0,.29,0,.44v.11a40.55,40.55,0,0,0,.3,4.12c0,.31.09.63.14.93a13.07,13.07,0,0,1,.19,1.38,4.58,4.58,0,0,1-.12,1.38,1.1,1.1,0,0,1-.33.57.94.94,0,0,1-.51.22,1.05,1.05,0,0,1-.87-.42,2.49,2.49,0,0,1-.17-.24l-.05-.08h0c0,.07.1.15.14.23a.09.09,0,0,1,0,.1.08.08,0,0,1-.07,0l-.06,0a2.55,2.55,0,0,0-1-.65,2.38,2.38,0,0,0-1-.15,3.11,3.11,0,0,0-1.12.3,4.17,4.17,0,0,0-1,.66,4.38,4.38,0,0,0-1.32,2.08,7.73,7.73,0,0,0-.33,2.53,17.44,17.44,0,0,0,.27,2.88A10.52,10.52,0,0,0,40.64,60a4.2,4.2,0,0,0,.62.95,2.13,2.13,0,0,0,.91.6,2.62,2.62,0,0,0,.74.07h.23a2,2,0,0,1,.48.06,2.69,2.69,0,0,0,.57.06h.11a.66.66,0,0,1,.56.28.82.82,0,0,1,.17.63v0a.25.25,0,0,1,0,.07.1.1,0,0,1,0,.06,28.25,28.25,0,0,0,2.48,3.84A42.1,42.1,0,0,0,50.48,70a28.85,28.85,0,0,0,3.37,3,14.11,14.11,0,0,0,1.84,1.24,2.48,2.48,0,0,0,.64.24.8.8,0,0,0,.15,0l.19,0,.11,0h0a.73.73,0,0,1,.42.16.9.9,0,0,1,.29.4,1.54,1.54,0,0,1-.85,2l-.08,0a2.31,2.31,0,0,1-.52.12Zm-10.48-19a1.27,1.27,0,0,1-.74-.18,1.32,1.32,0,0,1-.51-.72l0-.06a3.92,3.92,0,0,0-1.25-1.89,3.54,3.54,0,0,0-2-.86.16.16,0,0,1-.14-.13.1.1,0,0,1,.06-.13,3.79,3.79,0,0,1,4-.06A5.17,5.17,0,0,1,46.74,56a1.59,1.59,0,0,1,.25.74,1.18,1.18,0,0,1-.12.64,1.5,1.5,0,0,1-.54.63A1.66,1.66,0,0,1,45.58,58.28Z"/></g></g><g id="_Ink-4-2" data-name=" Ink-4-2"><g id="Grupo_138" data-name="Grupo 138"><path id="Trazado_2126" data-name="Trazado 2126" d="M78.18,69.6a4.78,4.78,0,0,1-1.55-.14A5,5,0,0,1,75,68.65a5.18,5.18,0,0,1-1.28-1.36,4.58,4.58,0,0,1-.66-1.54,4,4,0,0,1,0-1.73.14.14,0,0,1,.1-.11,3.43,3.43,0,0,1,.64.73h0a6.3,6.3,0,0,0,1,1.17,4.16,4.16,0,0,0,2.11,1,3.07,3.07,0,0,0,2.1-.51,5.63,5.63,0,0,0,1-.91l0,0a3.55,3.55,0,0,1,1.07-.9,1,1,0,0,1,.34-.09,1.17,1.17,0,0,1,.76.24,1.64,1.64,0,0,1,.44.47,1.4,1.4,0,0,1,.19.63,2.82,2.82,0,0,1-.6,1.78,5.66,5.66,0,0,1-2,1.56A5.44,5.44,0,0,1,78.18,69.6Zm.23-10h0a5.65,5.65,0,0,1-2.12-.3,10.49,10.49,0,0,1-2.55-1.33,1,1,0,0,1-.38-.57,1.23,1.23,0,0,1,0-.66,1.43,1.43,0,0,1,.37-.67.92.92,0,0,1,.63-.32.83.83,0,0,1,.51.13l.17.12c.9.66,2.26,1.64,3.5,1.55A2,2,0,0,0,80,56.69a2.55,2.55,0,0,0,.3-2A5.16,5.16,0,0,0,77.87,52a.45.45,0,0,1-.14-.51.63.63,0,0,1,.58-.51h.14a4.25,4.25,0,0,1,1.64.51,3.78,3.78,0,0,1,1.15,1,4.47,4.47,0,0,1,.86,2.8,4.74,4.74,0,0,1-1,2.86,3.75,3.75,0,0,1-2.72,1.44Z"/></g></g><g id="_Ink-5-2" data-name=" Ink-5-2"><g id="Grupo_139" data-name="Grupo 139"><path id="Trazado_2127" data-name="Trazado 2127" d="M65.24,57.71h0a8.6,8.6,0,0,1-3.15-.33,8,8,0,0,1-2.84-1.55A9.41,9.41,0,0,1,57,52.94a14.49,14.49,0,0,1-1.36-4.35,2,2,0,0,0-1.81-2.12h-.13L53,46.29l-.23,0c-.26,0-.52-.08-.78-.14a1.83,1.83,0,0,1-.6.19.57.57,0,0,1-.26,0h0a1.11,1.11,0,0,0-.44,0A15.69,15.69,0,0,0,47,47.37c-2.47,1-6.17,2.63-11,4.92,0,.58-.22,1-.61,1a.7.7,0,0,1-.43-.12,2.85,2.85,0,0,1-.43-3,8,8,0,0,1,2.51-3,25.12,25.12,0,0,1,4.18-2.63,34,34,0,0,1,4.48-1.9,15.34,15.34,0,0,1,3.43-.83h.16a4.65,4.65,0,0,1,1.3-.35,2,2,0,0,1,.72.08,10.53,10.53,0,0,1,4.14-2A31.79,31.79,0,0,1,62,38.41a28.13,28.13,0,0,1,3.31,0,20.56,20.56,0,0,1,3.14.38,9,9,0,0,1,4.82,2.34,6.07,6.07,0,0,0,2.12.2A13,13,0,0,0,81,39a23.75,23.75,0,0,1,3.27-1.73,36.74,36.74,0,0,1,6.34-1,16.32,16.32,0,0,1,4.73.21c1.48.35,2.3,1,2.44,2a4.23,4.23,0,0,1,.21,1.41,3.82,3.82,0,0,1-.23,1.61.46.46,0,0,1-.34.28.6.6,0,0,1-.39-.16c-1.53,1.42-1.85,3.4-2.18,5.49a12.39,12.39,0,0,1-1.35,4.57,5.3,5.3,0,0,1-1.89,1.93,6,6,0,0,1-2.68.84,7,7,0,0,1-5.41-2.13,10.87,10.87,0,0,1-2.23-3.26,18.74,18.74,0,0,1-1.45-5,3.69,3.69,0,0,0-1.58-.2,9.67,9.67,0,0,0-1.67.33,10.17,10.17,0,0,1-1.43.32A11.43,11.43,0,0,1,75,49.2a10.93,10.93,0,0,1-3.37,5.69,11.14,11.14,0,0,1-2,1.43A10.49,10.49,0,0,1,65.24,57.71Zm.3-15.53c-2.71.19-6.33,1.08-8.12,4.22a3.8,3.8,0,0,0-.18,3.08c1.16,3.39,3.45,7.37,7.78,7.06A8.5,8.5,0,0,0,67.4,56a9.67,9.67,0,0,0,6.13-8.89,5.92,5.92,0,0,0-1.77-4.37,20,20,0,0,0-6.22-.56Zm23.32-3.34a6,6,0,0,0-1.58.34,8.12,8.12,0,0,0-5.2,6.94,6.2,6.2,0,0,0,.25,2.3,4.52,4.52,0,0,0,.86,1.81,8.43,8.43,0,0,0,6.08,2.65,4,4,0,0,0,1.81-.56c2.64-1.77,3-6.1,3.16-9a3.87,3.87,0,0,0-1-2.88A5.4,5.4,0,0,0,88.86,38.84Z"/></g></g></g><g id="Grupo_142" data-name="Grupo 142"><g id="Grupo_141" data-name="Grupo 141"><path id="Trazado_2128" data-name="Trazado 2128" class="cls-1" d="M174.34,110a.75.75,0,0,0-.64-.26h0c-4,.41-8.08.9-12.08,1.46s-8,1.2-12,1.91-8,1.5-12,2.35-8,1.79-11.88,2.79l-2,.53h0l-.14,0a10.13,10.13,0,0,0-.8-1.53c-.2-.33-.39-.64-.54-.95-.48-1-.89-2-1.27-2.92l-.27-.66c-.18-.45-.37-.92-.54-1.37h0a43.17,43.17,0,0,0-2.7-6,18.56,18.56,0,0,0-2.32-3.17,17,17,0,0,0-2.9-2.53,25.51,25.51,0,0,0-6.27-2.9l-.54-.19-2.49-.81h0a53.51,53.51,0,0,1-5.72-2.07.1.1,0,0,0-.07,0,.2.2,0,0,0-.17.15.15.15,0,0,0,.06.16,25.73,25.73,0,0,0,3.34,2.11c1.15.62,2.35,1.18,3.52,1.73a40.94,40.94,0,0,1,6,3.25,16.68,16.68,0,0,1,5,5.27A49.2,49.2,0,0,1,118,112.9l.38.92c.43,1,1,2.34,1.62,3.65l0,.1c.07.14.14.3.21.46a13.12,13.12,0,0,0,.75,1.5l-.5.14-.72.2-1.37.36h0a40.56,40.56,0,0,0-4.07,1.22,6.8,6.8,0,0,0-2.1,1.22,5.83,5.83,0,0,0-1.48,2,22.28,22.28,0,0,0-1.25,4.3h0c-.09.42-.18.84-.28,1.25l-.19.8c-.94,4-1.82,8.11-2.62,12.13s-1.54,8.17-2.2,12.22c-.74,4.6-1.41,9.4-2,14.28,0,.49-.11,1-.16,1.45a2.1,2.1,0,0,1-.5.09,4.1,4.1,0,0,1-1.26-.14L99.9,171a2.78,2.78,0,0,0-.81-.07,1.54,1.54,0,0,0-1.09.53,6.18,6.18,0,0,0-1.21-1.24,7.45,7.45,0,0,0-1.4-.87,15.85,15.85,0,0,0-4.07-1.25l-.72-.14a12.93,12.93,0,0,0-3.1-.29,5.39,5.39,0,0,0-1.12.21.46.46,0,0,0-.31.46.57.57,0,0,0,.37.53,7.3,7.3,0,0,0,1.8.19l.85,0a22.64,22.64,0,0,1,2.32.3c.61.12,1.32.26,2,.46a9,9,0,0,1,1.93.8A5.74,5.74,0,0,1,97,172a3.26,3.26,0,0,1,.55,1,1.93,1.93,0,0,1,0,1.09,1.1,1.1,0,0,1-1.09.84,6.24,6.24,0,0,1-2.61-.68l-.55-.24-.5-.23a25.35,25.35,0,0,0-2.53-1,6.93,6.93,0,0,0-2.6-.38,4.25,4.25,0,0,0-2,.64,17.08,17.08,0,0,0-1.48,1A12.18,12.18,0,0,1,82,175.48a16.25,16.25,0,0,1-2.67.93.77.77,0,0,0-.76-.57.7.7,0,0,0-.33.12l-7.67,5a2.18,2.18,0,0,1-1.2-.4,5.61,5.61,0,0,1-1.7-2.07,18.06,18.06,0,0,1-1-2.58l-.1-.31a31.84,31.84,0,0,1-.92-3.31,12.21,12.21,0,0,1-.3-3.41,4.22,4.22,0,0,1,.42-1.59l4.42-1.58,1.94-.67h0a35.87,35.87,0,0,0,5.1-2,.68.68,0,0,0,.33-.9.83.83,0,0,0-.13-.18c1.82-.69,3.64-1.46,5.41-2.21l3.11-1.3c1.11-.46,2.24-.91,3.1-1.25l2.07-.82.7-.3c.39-.18.83-.37,1.27-.53a5,5,0,0,1,1.33-.31,2,2,0,0,1,1,.16,1.71,1.71,0,0,1,.8.75.56.56,0,0,0,.55.31.71.71,0,0,0,.35-.13c.52.6,1.07,1.15,1.74,1.79l.48.5c.68.71,1.44,1.51,2.29,1.55h.05a.41.41,0,0,0,.29-.19.68.68,0,0,0,.09-.52,1.74,1.74,0,0,0-.78-1.06h0l-.09-.07-.09-.08-.45-.38h0c-.35-.3-.71-.61-1.08-.9a25.65,25.65,0,0,0-2.25-1.62,2.48,2.48,0,0,0-1.24-1.29,3.42,3.42,0,0,0-1.73-.28,4.11,4.11,0,0,0-.93.16,34.92,34.92,0,0,0-5.11,2l-.74.34-.44.2-.22.1a85.68,85.68,0,0,0-10.8,5.4,41.15,41.15,0,0,0-4,1.42h0c-.55.22-1.11.44-1.67.64l-2.52.94c.22-.17.47-.34.78-.55a.21.21,0,0,0,.08-.17.23.23,0,0,0-.1-.17,2.67,2.67,0,0,0-1.53-.36,3,3,0,0,0-1.34.44,4.79,4.79,0,0,0-1.17,1,5.16,5.16,0,0,0-.78,1.27l-3.65,1.32L51.21,171c-6,2.2-11.84,4.37-17.36,6.47a8.7,8.7,0,0,0,.22-1.52c0-.22,0-.43.06-.61l0-.33c.1-.87.17-1.77.23-2.64l.06-1,0-.47c.2-2.78.28-5.26.26-7.58,0-.53,0-1.07,0-1.55,0-2,0-4.14-.13-6.21,0-1-.14-2.48-.34-4l0-.21a15.72,15.72,0,0,0-.28-1.67,5.16,5.16,0,0,0-.61-1.54.13.13,0,0,0-.12-.07.2.2,0,0,0-.13.08,7.8,7.8,0,0,0-.84,3l-.05.43a.43.43,0,0,1,0,.11.28.28,0,0,1,0,.09,15.74,15.74,0,0,0-1.3-1.95,11.29,11.29,0,0,0-1.58-1.66.16.16,0,0,0-.13,0,.18.18,0,0,0-.16.1.14.14,0,0,0,0,.15c.22.49.46,1,.69,1.45.53,1.11,1.08,2.26,1.52,3.44.28.76.49,1.35.66,1.92l0,.3c-.1,1.49-.17,3-.23,4.49-.05,1.09-.1,2.22-.16,3.33l0,.6c-.12,2.28-.18,4.63-.19,7.17,0,.43,0,.87,0,1.29h0c0,.81,0,1.65,0,2.48v.64a5,5,0,0,0,.41,2.7l-.81.31h0l-.55.22a1.87,1.87,0,0,0-.13-1.1,1.45,1.45,0,0,0-.86-.77c-1.65-.54-3.36-1-5.1-1.47s-3.4-.78-5.18-1.09a99.7,99.7,0,0,0-10.49-1.24c-.54,0-1.15-.14-1.8-.24a14.26,14.26,0,0,0-3.39-.29l-.23,0c.44-2.25.78-4.55,1.11-6.78h0c.17-1.16.35-2.35.54-3.53.62-3.83,1.31-7.76,2.05-11.67.83-4.38,1.56-8,2.3-11.36.89-4.1,1.79-7.77,2.73-11.25.47-1.75,1-3.32,1.47-4.79a47.18,47.18,0,0,1,1.88-4.6,34.41,34.41,0,0,1,2.41-4.27,27.52,27.52,0,0,1,3.07-3.81,35.49,35.49,0,0,1,6.5-5.15c2.2-1.39,4.47-2.59,7.2-4l.83-.42c.62-.32,1.26-.63,1.88-.93h0c2.16-1.07,4.39-2.17,6.51-3.4,1.11-.65,2.5-1.45,3.77-2.34a19,19,0,0,0,3.4-2.92c.62.89,1.33,1.75,2,2.57.42.5.85,1,1.25,1.55a60.17,60.17,0,0,1,4.84,7.32c.7,1.23,1.33,2.54,1.95,3.8s1.23,2.53,1.92,3.76v0l0,.06a21.3,21.3,0,0,0,1.6,2.51c.85,1.11,1.6,1.66,2.2,1.61a1.25,1.25,0,0,0,.94-.71.84.84,0,0,0,0-.71c.13-.22.28-.44.42-.64h0c.17-.25.34-.51.48-.76l1-1.84c.7-1.25,1.5-2.56,2.43-4l.47-.73.08-.13c.63-1,1.27-2,1.9-3l.33-.52a15.62,15.62,0,0,0,1-1.61,6.58,6.58,0,0,1,.14,3.55c-.07.36-.15.73-.23,1.08h0a10.82,10.82,0,0,0-.32,4.42,4.83,4.83,0,0,0,1.05,2.17A11,11,0,0,0,78,112.84l.48.37a16.16,16.16,0,0,1,4.1,4.58,12.35,12.35,0,0,1,1.3,3,14.49,14.49,0,0,1,.29,1.43,10.84,10.84,0,0,0,.37,1.69.57.57,0,0,0,.58.38.46.46,0,0,0,.42-.31,5.38,5.38,0,0,0,.2-2.67,11.29,11.29,0,0,0-.74-2.63l-.06-.17a15.91,15.91,0,0,0-3.13-4.84,17.11,17.11,0,0,0-1.93-1.78l-.64-.48A8.59,8.59,0,0,1,77.61,110c-1.09-1.36-.68-3.18-.32-4.79,0-.22.1-.43.14-.63l0-.2a13.4,13.4,0,0,0,.3-2.67,6.47,6.47,0,0,0-.52-2.61A7.33,7.33,0,0,0,75.86,97,11.58,11.58,0,0,0,74,95.37a30.56,30.56,0,0,0-3.12-1.86l-1.41-.79a52.26,52.26,0,0,1-5-3.31c-1.46-1.1-2.91-2.29-4.31-3.51a9.44,9.44,0,0,0,1.61-2.62,12.58,12.58,0,0,0,1.18-3.87,2.21,2.21,0,0,0-.1-.85,1.55,1.55,0,0,0-1.57-1.12,1.4,1.4,0,0,0-.83.34,2,2,0,0,0-.58,1l-.26,1.17a23.05,23.05,0,0,0-2.34,0,7.64,7.64,0,0,0-2.86.68.1.1,0,0,0-.09,0,.5.5,0,0,0-.34.2,0,0,0,0,0,0,0A5.23,5.23,0,0,0,52.59,82a18.43,18.43,0,0,0-2.2,3.57l-.24.47-.27.53c-.28.56-.57,1.15-.89,1.7l0,.08a2,2,0,0,0-.3.93,1.09,1.09,0,0,0,.4.87.71.71,0,0,0,.5.17.56.56,0,0,0,.3-.12l0,0,0,0,.25.44a21.76,21.76,0,0,1-3.11,2.88,30.82,30.82,0,0,1-6,3.36c-1.56.74-3.61,1.67-6,2.69-4.08,2-7.62,3.8-10.75,5.38a19.86,19.86,0,0,0-4.07,2.58,24.59,24.59,0,0,0-3.28,3.41,32.21,32.21,0,0,0-2.75,3.9,35.11,35.11,0,0,0-2.32,4.68c-.6,1.45-1.17,3.06-1.76,5-1,3-1.87,6.4-2.76,10.22C6.44,138.11,5.7,141.68,5,145l-.4,2c-1,4.82-1.76,9.17-2.42,13.3-.07.46-.15.93-.22,1.39v0A102.78,102.78,0,0,0,.52,174,2.62,2.62,0,0,0,0,175.4a2.5,2.5,0,0,0,.42,1.5,3.51,3.51,0,0,0,3.27,1.28H3.9a.24.24,0,0,0,.23-.23.31.31,0,0,0-.2-.33,8.26,8.26,0,0,1-1.44-.6,2.26,2.26,0,0,1-1.15-1.11.81.81,0,0,1,.15-.75h.16a1.31,1.31,0,0,0,.58-.18,1.13,1.13,0,0,0,.42-.47l.21,0a5.8,5.8,0,0,1,1.38.11c-.1,1.94-.13,4-.1,6.17,0,1.87.1,3.88.23,6.16.1,1.86.24,3.84.48,5.77A35.11,35.11,0,0,0,6,198.34a23.81,23.81,0,0,0,4.71,8.73,19.51,19.51,0,0,0,1.61,1.67,13.32,13.32,0,0,0,1.79,1.38,9.87,9.87,0,0,0,2,1,8.56,8.56,0,0,0,2.18.52,16.34,16.34,0,0,0,2.71,0,19.32,19.32,0,0,0,3.29-.55,25.66,25.66,0,0,0,3.21-1.06,9.82,9.82,0,0,0-.12,1.09c0,.19,0,.4-.07.62a14.13,14.13,0,0,0-.1,1.45,2.8,2.8,0,0,0,.2,1.11l.86,13.78a3.83,3.83,0,0,0,.09,1.78,1.07,1.07,0,0,0,.1.22,4,4,0,0,0,1.09.12c4.31.09,19.73-1.46,44.31-2.57,25.4-1.15,45.31-1.14,45.41-3.26,0-.35-.5-.66-.93-.87-2.93-.08-7.3-.18-12.6-.17-9,0-13.55.28-37.3,1.46-13.68.69-17.07.84-23.08,1.66a146.47,146.47,0,0,0-15.68,2.87,103.22,103.22,0,0,0-.17-11.4c-.12-2.23-.24-4.09-.34-5.4l-.1,0a3.85,3.85,0,0,0-.07-.49h0l0-.21,0-.17a16.17,16.17,0,0,1-.18-2.19,62.28,62.28,0,0,0,7.41-4.13l.5-.32c4.76-3,9.56-6.2,14.2-9.26,1.87-1.24,3.81-2.52,5.74-3.78l3.34-2.19c2.9-1.9,6-3.93,10-6.58h.38a3.28,3.28,0,0,0,1.34-.38,4.65,4.65,0,0,0,.83-.56,2,2,0,0,0,.67-1.18l4.39-2.9a31.29,31.29,0,0,0,3.25,1.14c.76.23,1.54.47,2.3.75,1,.38,2,.79,3,1.18h0c.91.36,1.84.73,2.77,1.08,3.71,1.39,7.73,2.64,12,2.35h0a1.09,1.09,0,0,0,.94-.63.94.94,0,0,0,.81.36h0a87.16,87.16,0,0,0,8.81-1.36l1.91-.37c0,.21,0,.41,0,.6,0,.52-.08,1-.11,1.65-.08,1.34-.07,2.65-.06,3.87,0,2.51.16,5,.39,7.53.19,2.17.52,4.47,1,7.27.25,1.33.49,2.54.75,3.71l.06.25,2.26,14.49c2.5,4.25,2.6-.19,2.6-.19l-2.4-13.15a5.12,5.12,0,0,0-.1-.54v0c-.08-.32-.16-.63-.25-.95l-.19-.68a5.21,5.21,0,0,0,.79,0,9.35,9.35,0,0,0,2.38-.55,19,19,0,0,0,2-.85l.17-.09a17.27,17.27,0,0,0,3.66-2.82,25.06,25.06,0,0,0,3.1-3.33,9.57,9.57,0,0,0,1.18-2.12,8.29,8.29,0,0,0,.55-2.4c.1-1.4.09-2.79.07-4.1l0-1.7c0-1.64-.09-3.15-.21-4.6s-.31-3.08-.55-4.55l21.22-4.16c1.23-.24,2.48-.47,3.69-.68,2.74-.5,5.57-1,8.3-1.72a9.48,9.48,0,0,0,2.25-.88,6.39,6.39,0,0,0,1.87-1.6,10.45,10.45,0,0,0,1.81-4.38,34.54,34.54,0,0,0,.5-4.18v0c0-.37.07-.76.1-1.14.11-1.27.25-2.56.38-3.8.1-.93.2-1.88.3-2.83.41-4.23.82-8.64,1.22-13.1s.77-8.82,1.13-13.12h0c.47-5.55.95-11.27,1.48-16.91A1.18,1.18,0,0,0,174.34,110ZM58.49,80.62l1-.15-.25,1.87-.09.52c-.11.64-.19,1.28-.25,1.93-.49-.45-1-.93-1.46-1.39-.7-.68-1.43-1.38-2.17-2A11.19,11.19,0,0,1,58.49,80.62ZM50.34,89.4c.07-.1.13-.21.19-.31l.39-.87.46-1.09h0c.12-.3.25-.6.38-.9l0-.07a16.55,16.55,0,0,1,1.86-3.5,3.77,3.77,0,0,1,.86-.83l2.28,3,.44.53a37,37,0,0,0,4.2,4.11,39.83,39.83,0,0,0,4.39,3.25c.86.56,2.17,1.38,4.65,2.77l.83.47a12.21,12.21,0,0,1,3.56,2.73,5.58,5.58,0,0,1,.39.56,8.31,8.31,0,0,0-1.92,2.13l-.34.46-.33.43c-.87,1.18-1.72,2.37-2.51,3.53-1,1.5-1.84,2.78-2.57,4l0,0c-.07.11-.15.25-.24.38a8.25,8.25,0,0,0-1.12,2.19l0-.05h0l-.07-.06a19.94,19.94,0,0,1-2.27-3.4c-.53-1-1-2-1.53-3-.71-1.42-1.45-2.9-2.28-4.28-.7-1.17-1.47-2.34-2.29-3.47S56.06,96,55.14,95s-3.2-3.43-4.17-4.44h0c-.24-.24-.38-.4-.39-.41l-.38-.47.14-.25ZM40,200.83l-2.29,1.52h0c-5,3.31-10.1,6.74-15.95,7.6-.44.07-.85.11-1.25.14a10.5,10.5,0,0,1-3-.17,7.47,7.47,0,0,1-2.09-.8,11,11,0,0,1-1.85-1.34,19.18,19.18,0,0,1-3.14-3.53,22.85,22.85,0,0,1-2.31-4.2,42,42,0,0,1-2.53-11.59l-.07-.66c-.39-3.6-.62-7.23-.82-10.64l-.15-2.51.75.15c.34.06.69.14,1,.22.6.13,1.22.27,1.84.37s1.4.2,2.08.28,1.38.17,2.06.28a114.08,114.08,0,0,1,15.8,3.74l-.9.35h0l-1.11.43a40.15,40.15,0,0,0-5.43,2.46,15,15,0,0,0-4.57,3.9.11.11,0,0,0,0,.12.1.1,0,0,0,.13.05l0,0c2.38-2.8,5.71-4.12,8.91-5.24l.66-.23c1.75-.61,3.53-1.2,5.26-1.79,2.34-.79,4.76-1.61,7.13-2.44,6-2.1,12-4.31,17.83-6.45l7.07-2.59.23-.09-.07,2.47a30.22,30.22,0,0,0,1.19,6.26A11.65,11.65,0,0,0,67.18,182a4.59,4.59,0,0,0,.77.61C58.4,188.83,48.91,195,40,200.83Zm61.38-18.54a1.13,1.13,0,0,0-.69-.17h-.06a19.81,19.81,0,0,1-5.69-.47,49.2,49.2,0,0,1-5.54-1.59l-1.48-.49c-1.36-.46-3-1-4.55-1.38a18.42,18.42,0,0,0-4.67-.73l.34-.22.13-.11c.24,0,.46,0,.68,0a6.43,6.43,0,0,0,1.3-.22,12,12,0,0,0,3.62-1.67l.15-.1a6.21,6.21,0,0,1,3.08-1.4,3.88,3.88,0,0,1,.9,0,11.58,11.58,0,0,1,3.27,1.2c.3.14.61.29.92.42a13.21,13.21,0,0,0,1.72.65,5.79,5.79,0,0,0,1.94.26,2.06,2.06,0,0,0,2-1.82,3.74,3.74,0,0,0-.58-2.78h.09a4.76,4.76,0,0,1,1.7.41,6.37,6.37,0,0,0,1.92.48ZM128.13,187c-.16,1.82-.28,3.3-.36,4.66,0,.23,0,.46,0,.68a10.56,10.56,0,0,1-.47,3.2,8.58,8.58,0,0,1-1.51,2.35l-.59.72a19.32,19.32,0,0,1-2.33,2.45,13.38,13.38,0,0,1-2.85,2,6.67,6.67,0,0,1-2,.62.88.88,0,0,1-.74-.2,1,1,0,0,0-.73-.37l-.06-.26-.09-.49c-.41-2.17-.77-4.52-1.12-7.39-.32-2.54-.53-5.13-.64-7.69,0-1.17-.1-2.52-.15-3.86v-.9l5.31-1c2.17-.41,4.74-.9,7.35-1.42l2.22-.43ZM170.2,136.3c-.35,3.45-.66,7-1,10.37h0c-.45,5.06-.92,10.3-1.5,15.43v.09a18.84,18.84,0,0,1-.86,4.4,4.85,4.85,0,0,1-2.79,3.09,20,20,0,0,1-3.82.87c-.5.09-1,.17-1.51.27L129,176.59c-4.62.9-9.2,1.82-13.45,2.67l-.43.08-2.25.44a102.2,102.2,0,0,0-10.69,2.46.94.94,0,0,0-.39.22c.75-4.18,1.32-7.62,1.8-10.82.17-1.2.35-2.43.52-3.62h0c.4-2.82.82-5.75,1.29-8.61,1.3-8,2.85-16.27,4.62-24.48.43-2,.89-4.1,1.36-6.12l.15-.65a15,15,0,0,1,.65-2.36,4.21,4.21,0,0,1,1.35-1.9,6.5,6.5,0,0,1,1.82-.92c.66-.23,1.35-.39,2-.56l1.12-.28,1-.27c1.59-.44,3.21-.87,4.8-1.29,7.65-2,15.45-3.72,23.21-5.14,4.14-.76,8.38-1.45,12.6-2.06s8.43-1.12,12.65-1.57Z"/></g></g><g id="Grupo_144" data-name="Grupo 144"><g id="Grupo_143" data-name="Grupo 143"><path id="Trazado_2129" data-name="Trazado 2129" class="cls-1" d="M28.42,230.11c-.09,0-.14-.07-.14-.12a.16.16,0,0,1,0-.1A1.45,1.45,0,0,0,28.42,230.11Z"/></g></g><g id="Grupo_167" data-name="Grupo 167"><g id="Grupo_146" data-name="Grupo 146"><g id="Grupo_145" data-name="Grupo 145"><path id="Trazado_2130" data-name="Trazado 2130" class="cls-3" d="M4,175l.31.06v0Z"/></g></g><g id="Grupo_148" data-name="Grupo 148"><g id="Grupo_147" data-name="Grupo 147"><path id="Trazado_2131" data-name="Trazado 2131" class="cls-3" d="M31.63,178.61l-.21,0h-.18l-.19.09-.29.1a2,2,0,0,1-.45.36.13.13,0,0,1,0,.06l.56-.21h0l.8-.31Z"/></g></g><g id="Grupo_150" data-name="Grupo 150"><g id="Grupo_149" data-name="Grupo 149"><path id="Trazado_2132" data-name="Trazado 2132" class="cls-3" d="M26,179.48a109,109,0,0,0-13.72-3.13c-.68-.11-1.38-.2-2.05-.28h0c-.69-.09-1.4-.17-2.09-.28s-1.24-.24-1.84-.37l-1-.23-.75-.14v0l21.6,4.56Z"/></g></g><g id="Grupo_152" data-name="Grupo 152"><g id="Grupo_151" data-name="Grupo 151"><path id="Trazado_2133" data-name="Trazado 2133" class="cls-3" d="M67.2,182.42a11.69,11.69,0,0,1-2.76-5.15A30.24,30.24,0,0,1,63.26,171l.06-2.38-7.44,4.86L53.59,175h0c-5,3.32-10.1,6.74-16,7.6-.44.07-.84.11-1.24.14a10.57,10.57,0,0,1-3-.17,7.65,7.65,0,0,1-2.1-.8,11.91,11.91,0,0,1-1.66-1.18l-3.82,1.3-.66.23c-3.2,1.12-6.52,2.45-8.92,5.24a.07.07,0,0,1-.06,0,.11.11,0,0,1-.1-.06.11.11,0,0,1,0-.12,15.2,15.2,0,0,1,4.58-3.9,40,40,0,0,1,5.42-2.46l1.12-.43h0l.9-.35L28,180a2.14,2.14,0,0,1-.44.08,1.63,1.63,0,0,1-1.35-.5l-21.6-4.55.14,2.48c.2,3.41.43,7,.82,10.64l.08.66a41.5,41.5,0,0,0,2.52,11.59,23.32,23.32,0,0,0,2.32,4.21,19.77,19.77,0,0,0,3.13,3.52,11,11,0,0,0,1.85,1.34,7.53,7.53,0,0,0,2.1.8,10.87,10.87,0,0,0,3,.18c.4,0,.8-.08,1.24-.14,5.86-.87,11-4.29,16-7.6h0L40,201.23c8.9-5.81,18.4-12,27.94-18.2A5,5,0,0,1,67.2,182.42Z"/></g></g><g id="Grupo_154" data-name="Grupo 154"><g id="Grupo_153" data-name="Grupo 153"><path id="Trazado_2134" data-name="Trazado 2134" class="cls-3" d="M100,172.49a4.71,4.71,0,0,0-1.7-.41h-.09a3.74,3.74,0,0,1,.58,2.78,2.06,2.06,0,0,1-2,1.82,5.85,5.85,0,0,1-2-.26,13.21,13.21,0,0,1-1.72-.65l-.91-.42a12.08,12.08,0,0,0-3.28-1.2,4.52,4.52,0,0,0-.9,0,6.3,6.3,0,0,0-3.08,1.4l-.15.1a11.83,11.83,0,0,1-3.62,1.68,7.06,7.06,0,0,1-1.3.22l-.68,0-.13.1-.33.22a18,18,0,0,1,4.66.74c1.6.4,3.19.91,4.55,1.37l1.48.49A49.2,49.2,0,0,0,95,182.05a20.25,20.25,0,0,0,5.7.48h0a1.07,1.07,0,0,1,.7.16l.53-9.72A6.37,6.37,0,0,1,100,172.49Z"/></g></g><g id="Grupo_156" data-name="Grupo 156"><g id="Grupo_155" data-name="Grupo 155"><path id="Trazado_2135" data-name="Trazado 2135" class="cls-3" d="M127.14,180.5c-2.6.51-5.17,1-7.34,1.41l-5.32,1v.48h0v.43c0,1.33.1,2.68.16,3.85.1,2.56.32,5.15.63,7.7.36,2.87.72,5.22,1.13,7.39l.09.49.05.26a1,1,0,0,1,.74.37.87.87,0,0,0,.74.2,6.28,6.28,0,0,0,2-.63,13.34,13.34,0,0,0,2.85-2,20.06,20.06,0,0,0,2.34-2.45l.59-.72a8.84,8.84,0,0,0,1.5-2.36,10.16,10.16,0,0,0,.48-3.19l0-.68c.08-1.36.2-2.84.37-4.66l1.21-7.36h0Z"/></g></g><g id="Grupo_158" data-name="Grupo 158"><g id="Grupo_157" data-name="Grupo 157"><path id="Trazado_2136" data-name="Trazado 2136" class="cls-3" d="M147.5,115.84c-7.75,1.43-15.56,3.16-23.21,5.15-1.6.41-3.21.85-4.8,1.29l-1,.26-1.11.29a20.9,20.9,0,0,0-2,.56,6.9,6.9,0,0,0-1.82.91,4.27,4.27,0,0,0-1.35,1.9,16.18,16.18,0,0,0-.65,2.36c0,.22-.09.44-.14.65-.47,2-.93,4.08-1.37,6.12-1.77,8.22-3.32,16.45-4.62,24.48-.46,2.87-.88,5.79-1.29,8.62h0c-.17,1.19-.34,2.41-.52,3.62-.47,3.2-1,6.64-1.79,10.82a1,1,0,0,1,.38-.22,103.38,103.38,0,0,1,10.69-2.46l2.26-.44.42-.08c4.26-.86,8.84-1.77,13.46-2.67l29.72-5.78c.5-.1,1-.18,1.51-.26a20,20,0,0,0,3.82-.88,4.79,4.79,0,0,0,2.78-3.08,18.43,18.43,0,0,0,.87-4.41v-.08c.57-5.14,1-10.37,1.49-15.44h0c.3-3.4.62-6.91,1-10.37l2.53-24.48c-4.23.44-8.49,1-12.66,1.57S151.64,115.08,147.5,115.84Z"/></g></g><g id="Grupo_160" data-name="Grupo 160"><g id="Grupo_159" data-name="Grupo 159"><path id="Trazado_2137" data-name="Trazado 2137" d="M174.37,110.43a.76.76,0,0,0-.65-.26h0c-4,.41-8.08.9-12.08,1.46s-8.05,1.2-12,1.91-8,1.5-12,2.35-7.95,1.79-11.88,2.79l-2,.53h0l-.15,0a1.3,1.3,0,0,0-.08-.17,1.68,1.68,0,0,1-1.1.48,1.91,1.91,0,0,1-.82-.13,1.79,1.79,0,0,1-.62.34l.08.15-.5.14-.72.19-1.37.37h0a38.11,38.11,0,0,0-4.07,1.22,6.8,6.8,0,0,0-2.1,1.22,5.86,5.86,0,0,0-1.48,2,22.28,22.28,0,0,0-1.25,4.3h0c-.09.41-.18.84-.28,1.25l-.19.8c-.94,4-1.82,8.11-2.62,12.13s-1.54,8.17-2.19,12.22c-.74,4.59-1.42,9.4-2,14.28-.06.49-.11,1-.16,1.45a2.19,2.19,0,0,1-.5.09,4.44,4.44,0,0,1-1.26-.15l-.39-.08a2.47,2.47,0,0,0-.81-.07,1.5,1.5,0,0,0-1.09.53,6.18,6.18,0,0,0-1.21-1.24,8.45,8.45,0,0,0-1.4-.88,16.23,16.23,0,0,0-4.07-1.24l-.72-.14a12.93,12.93,0,0,0-3.1-.29,5.27,5.27,0,0,0-1.12.21.44.44,0,0,0-.31.45.58.58,0,0,0,.37.54,7.3,7.3,0,0,0,1.8.19c.28,0,.57,0,.85,0a22.64,22.64,0,0,1,2.32.3,20.56,20.56,0,0,1,2,.47,9,9,0,0,1,1.93.78,6,6,0,0,1,1.66,1.4,3.44,3.44,0,0,1,.55,1,1.93,1.93,0,0,1,0,1.09,1.1,1.1,0,0,1-1.09.84,6.4,6.4,0,0,1-2.61-.68l-.55-.24-.5-.23a26.37,26.37,0,0,0-2.53-1,7,7,0,0,0-2.6-.38,4.29,4.29,0,0,0-2,.64c-.51.32-1,.67-1.48,1A11.56,11.56,0,0,1,82,175.87a15.63,15.63,0,0,1-2.67.93.77.77,0,0,0-.75-.57.66.66,0,0,0-.33.12l-7.67,5a2.32,2.32,0,0,1-1.2-.4,5.51,5.51,0,0,1-1.7-2.07,17.33,17.33,0,0,1-1-2.57l-.1-.31a31.12,31.12,0,0,1-.91-3.31,12.21,12.21,0,0,1-.3-3.41,4.11,4.11,0,0,1,.41-1.58l4.42-1.59c.64-.23,1.3-.45,1.94-.66h0a38.43,38.43,0,0,0,5.1-2,.68.68,0,0,0,.21-1.09c1.81-.69,3.64-1.46,5.41-2.2,1-.43,2.06-.88,3.1-1.3L89,157.6l2.07-.83.7-.3h0a8.61,8.61,0,0,1,2.6-.84,2.15,2.15,0,0,1,1,.16,1.78,1.78,0,0,1,.8.76.56.56,0,0,0,.55.3.79.79,0,0,0,.35-.13c.51.6,1.06,1.15,1.73,1.8a5.6,5.6,0,0,1,.48.49c.68.71,1.44,1.51,2.29,1.55h0a.38.38,0,0,0,.29-.18.71.71,0,0,0,.09-.53,1.74,1.74,0,0,0-.78-1.06h0l-.09-.07-.09-.08-.44-.37h0c-.36-.3-.72-.61-1.09-.9a22.47,22.47,0,0,0-2.24-1.63,2.5,2.5,0,0,0-1.25-1.29,3.42,3.42,0,0,0-1.73-.28,5,5,0,0,0-.93.16,34.37,34.37,0,0,0-5.1,2l-.75.34-.44.2-.22.1a85.68,85.68,0,0,0-10.8,5.4,41.15,41.15,0,0,0-4,1.42h0c-.55.22-1.12.44-1.67.64l-1.36.5-5.7,3.72L63.26,171a30.35,30.35,0,0,0,1.19,6.26,11.63,11.63,0,0,0,2.75,5.15A5.57,5.57,0,0,0,68,183c-9.54,6.2-19,12.39-27.94,18.2l-2.29,1.51h0c-5,3.32-10.1,6.74-16,7.6-.43.07-.84.11-1.24.14a10.5,10.5,0,0,1-3-.17,7.53,7.53,0,0,1-2.1-.8,11,11,0,0,1-1.85-1.34,19.49,19.49,0,0,1-3.13-3.53,23.57,23.57,0,0,1-2.32-4.2,41.58,41.58,0,0,1-2.52-11.59l-.08-.66c-.39-3.6-.62-7.23-.82-10.64l-.14-2.49L4.28,175c-.1,1.94-.13,4-.1,6.15,0,1.87.1,3.88.23,6.16.11,1.86.24,3.84.48,5.77A35.11,35.11,0,0,0,6,198.74a24.75,24.75,0,0,0,1.91,4.64,23.87,23.87,0,0,0,2.8,4.09,19.51,19.51,0,0,0,1.61,1.67,13.32,13.32,0,0,0,1.79,1.38,10.42,10.42,0,0,0,2,1,8.54,8.54,0,0,0,2.18.51,14.44,14.44,0,0,0,2.71,0,18.36,18.36,0,0,0,3.29-.54,26.36,26.36,0,0,0,3.22-1.06h0c.34-.15.69-.29,1-.42l.23-.13h0a60.58,60.58,0,0,0,7.39-4.12l.5-.32c4.76-3,9.55-6.2,14.2-9.26,1.87-1.24,3.81-2.52,5.74-3.78l3.34-2.19c2.9-1.9,6-3.93,10-6.58a3.31,3.31,0,0,0,1.72-.4,3.86,3.86,0,0,0,.83-.55,2,2,0,0,0,.67-1.18l4.39-2.9a31.29,31.29,0,0,0,3.25,1.14c.76.23,1.54.47,2.3.75,1,.38,2,.79,3,1.18h0c.91.36,1.84.73,2.77,1.08,3.72,1.39,7.73,2.63,12,2.35h0a1.12,1.12,0,0,0,.95-.64.9.9,0,0,0,.8.36h0a87.13,87.13,0,0,0,8.81-1.35l1.9-.38q0,.31-.06.6c0,.52-.07,1-.1,1.65-.08,1.34-.07,2.65-.06,3.88,0,2.5.16,5,.38,7.53.2,2.16.53,4.46,1,7.26.07.35.13.69.2,1a1.93,1.93,0,0,1,.42.72,1.33,1.33,0,0,0,.63.82c.22.12.44.24.67.34h.08a1.8,1.8,0,0,1,.76.1l0-.09a5.21,5.21,0,0,0,.79,0,9.35,9.35,0,0,0,2.38-.55,18,18,0,0,0,2-.85l.18-.09a17,17,0,0,0,3.66-2.82,24.46,24.46,0,0,0,3.1-3.33,9.35,9.35,0,0,0,1.18-2.12,8.29,8.29,0,0,0,.55-2.4c.1-1.4.09-2.79.07-4.09l0-1.7c0-1.65-.09-3.16-.21-4.61s-.3-3.08-.55-4.55l21.22-4.16c1.23-.24,2.48-.47,3.69-.68,2.74-.5,5.58-1,8.31-1.72a9.43,9.43,0,0,0,2.24-.89,6.13,6.13,0,0,0,1.87-1.6,10.41,10.41,0,0,0,1.81-4.37,34.54,34.54,0,0,0,.5-4.18v0c0-.37.06-.76.1-1.14.11-1.27.25-2.56.38-3.8.1-.93.2-1.89.3-2.84.41-4.23.82-8.63,1.22-13.1s.77-8.81,1.13-13.11h0c.47-5.54.95-11.27,1.48-16.91A1.24,1.24,0,0,0,174.37,110.43Zm-73,72.26a1,1,0,0,0-.69-.16h0a20.18,20.18,0,0,1-5.69-.48,51.34,51.34,0,0,1-5.54-1.58L88,180c-1.37-.45-3-1-4.55-1.37a18.06,18.06,0,0,0-4.67-.74l.34-.22.13-.1c.23,0,.45,0,.67,0a7.17,7.17,0,0,0,1.31-.22,11.83,11.83,0,0,0,3.62-1.68l.15-.1a6.3,6.3,0,0,1,3.08-1.4,4.52,4.52,0,0,1,.9,0,12.08,12.08,0,0,1,3.28,1.2l.91.43a13.16,13.16,0,0,0,1.72.64,5.83,5.83,0,0,0,1.94.26,2.06,2.06,0,0,0,2-1.82,3.74,3.74,0,0,0-.58-2.78h.09a4.76,4.76,0,0,1,1.7.41,6.39,6.39,0,0,0,1.92.49Zm26.76,4.73c-.17,1.82-.29,3.3-.37,4.66,0,.22,0,.45,0,.68a10.45,10.45,0,0,1-.47,3.19,8.63,8.63,0,0,1-1.51,2.36l-.59.72a19.25,19.25,0,0,1-2.33,2.45,13.34,13.34,0,0,1-2.85,2,6.36,6.36,0,0,1-2,.63.86.86,0,0,1-.74-.2,1,1,0,0,0-.74-.37l-.05-.26-.1-.49c-.41-2.17-.77-4.52-1.12-7.39-.32-2.55-.53-5.14-.64-7.7,0-1.17-.1-2.52-.15-3.86v-.42h0v-.48l5.32-1,7.34-1.41,2.22-.44h0Zm42.06-50.72c-.34,3.46-.66,7-1,10.37h0c-.46,5.07-.93,10.3-1.5,15.44v.08a18.43,18.43,0,0,1-.87,4.41,4.77,4.77,0,0,1-2.78,3.08,20,20,0,0,1-3.82.88l-1.51.26L129.05,177c-4.62.9-9.2,1.81-13.46,2.67l-.42.08-2.26.44a103.38,103.38,0,0,0-10.69,2.46,1,1,0,0,0-.38.22c.75-4.18,1.32-7.62,1.79-10.82.18-1.2.35-2.43.52-3.62h0c.4-2.83.83-5.75,1.29-8.62,1.3-8,2.85-16.26,4.62-24.48.44-2,.9-4.09,1.37-6.12l.15-.65a15.68,15.68,0,0,1,.64-2.35,4.24,4.24,0,0,1,1.35-1.9,6.55,6.55,0,0,1,1.83-.92,20,20,0,0,1,2-.56l1.12-.29,1-.26c1.59-.44,3.2-.88,4.8-1.29,7.64-2,15.45-3.72,23.2-5.15,4.15-.76,8.39-1.45,12.6-2s8.43-1.13,12.66-1.57Z"/></g></g><g id="Grupo_162" data-name="Grupo 162"><g id="Grupo_161" data-name="Grupo 161"><path id="Trazado_2138" data-name="Trazado 2138" d="M29.44,180.44l-.16-.15L28,180,28,180l.16.05-.9.34h0l-1.11.43a38.31,38.31,0,0,0-5.42,2.46,14.83,14.83,0,0,0-4.58,3.9.09.09,0,0,0,0,.11.12.12,0,0,0,.1.07l.07,0c2.39-2.79,5.71-4.11,8.91-5.23l.67-.24,3.82-1.3Z"/></g></g><g id="Grupo_164" data-name="Grupo 164"><g id="Grupo_163" data-name="Grupo 163"><path id="Trazado_2139" data-name="Trazado 2139" d="M29.63,180.6l.43-.15-.78-.16.16.15Z"/></g></g><g id="Grupo_166" data-name="Grupo 166"><g id="Grupo_165" data-name="Grupo 165"><path id="Trazado_2140" data-name="Trazado 2140" d="M69,164.93l-1.16.43.78-.55a.18.18,0,0,0,.07-.17.19.19,0,0,0-.1-.17,2.62,2.62,0,0,0-1.52-.36,3,3,0,0,0-1.34.44,4.79,4.79,0,0,0-1.17,1,5.16,5.16,0,0,0-.78,1.27l-3.65,1.32-8.93,3.25c-6,2.2-11.84,4.37-17.36,6.47v0a10.36,10.36,0,0,1-1.16.46,1.58,1.58,0,0,1-.52.12h-.07a1.68,1.68,0,0,1-.49.17l.06.1-.81.31h0l-.55.21s0,0,0-.06a2,2,0,0,1-.75.21h0a1.68,1.68,0,0,1-.81.34c.19.19.38.38.57.55l.79.17,1-.34c2.34-.79,4.76-1.61,7.13-2.44,6-2.09,12-4.3,17.83-6.45l7.07-2.59.23-.09v.1Z"/></g></g></g><g id="Grupo_169" data-name="Grupo 169"><g id="Grupo_168" data-name="Grupo 168"><path id="Trazado_2141" data-name="Trazado 2141" class="cls-1" d="M19.9,335.49c.51,4.1,1.11,8.14,1.91,12.12a112.69,112.69,0,0,0,7.24,23.08c1.61,3.69,3.43,7.28,5.34,10.86a58,58,0,0,1-6.63-10.14,61.54,61.54,0,0,1-2.6-5.58c-.8-1.9-1.47-3.85-2.11-5.81a73,73,0,0,1-2.67-12.13A64.27,64.27,0,0,1,19.9,335.49Z"/></g></g><g id="Grupo_171" data-name="Grupo 171"><g id="Grupo_170" data-name="Grupo 170"><path id="Trazado_2142" data-name="Trazado 2142" class="cls-1" d="M27.36,263.9c.51,4.1,1.11,8.14,1.91,12.12a112.69,112.69,0,0,0,7.24,23.08c1.61,3.69,3.43,7.28,5.35,10.87a57.93,57.93,0,0,1-6.64-10.15,61.54,61.54,0,0,1-2.6-5.58c-.8-1.9-1.47-3.85-2.11-5.81a73,73,0,0,1-2.67-12.13A64.27,64.27,0,0,1,27.36,263.9Z"/></g></g><g id="Grupo_173" data-name="Grupo 173"><g id="Grupo_172" data-name="Grupo 172"><path id="Trazado_2143" data-name="Trazado 2143" class="cls-1" d="M114.6,286.82a64.27,64.27,0,0,1-.48,12.4,72,72,0,0,1-2.67,12.13c-.64,2-1.31,3.92-2.11,5.82s-1.64,3.77-2.59,5.57a58.32,58.32,0,0,1-6.64,10.15c1.91-3.58,3.73-7.18,5.34-10.87a119.07,119.07,0,0,0,4.23-11.31,119.21,119.21,0,0,0,3-11.76C113.49,295,114.09,290.92,114.6,286.82Z"/></g></g><g id="Grupo_175" data-name="Grupo 175"><g id="Grupo_174" data-name="Grupo 174"><path id="Trazado_2144" data-name="Trazado 2144" class="cls-1" d="M111.25,339.51a63.48,63.48,0,0,1-.49,12.4A72,72,0,0,1,108.09,364c-.64,2-1.31,3.92-2.11,5.81a58.87,58.87,0,0,1-2.59,5.58,58,58,0,0,1-6.64,10.14c1.92-3.58,3.73-7.17,5.35-10.86a120.09,120.09,0,0,0,4.23-11.31q1.8-5.81,3-11.77C110.13,347.65,110.74,343.61,111.25,339.51Z"/></g></g></g></svg>