<svg id="Capa_1" data-name="Capa 1" xmlns="http://www.w3.org/2000/svg" viewBox="0 0 158.82 475.23"><defs><style>.cls-1{fill:#fff;}</style></defs><title>David</title><g id="David"><g id="Grupo_83" data-name="Grupo 83"><g id="Grupo_5" data-name="Grupo 5"><g id="Grupo_4" data-name="Grupo 4"><g id="pose_standing_shirt-4" data-name="pose standing shirt-4"><g id="_Skin-3-2" data-name=" Skin-3-2"><path id="Trazado_2084" data-name="Trazado 2084" class="cls-1" d="M130,473.58q-2.73-.24-5.42-.73a29.93,29.93,0,0,1-4.92-1.29,9.1,9.1,0,0,1-3.32-1.9,2.39,2.39,0,0,1-.45-.64,2.25,2.25,0,0,1-.2-.67,6.14,6.14,0,0,1,0-1.42,6.89,6.89,0,0,0,.06-1.36c0-2.43.08-4.73,2-5.95l1.3,1a73.57,73.57,0,0,1,4-11,109.61,109.61,0,0,1,6.24-11.66,1.45,1.45,0,0,1-.36-1,3.66,3.66,0,0,1,.76-1.33,8.62,8.62,0,0,0,1.12-2.47,10.28,10.28,0,0,0,.33-2.59,29.48,29.48,0,0,0-.63-5.38h0c-.2-1.11-.41-2.26-.53-3.38a14.39,14.39,0,0,1,0-3.28c-2.81-.29-5.37-.64-7.82-1.07-.15,0-.15,0-.16-.22v.32c0-.28.34-.46.63-.62a2,2,0,0,0,.28-.16c-1.34-5.53-2.77-11.16-4.25-16.72s-3.06-11.22-4.68-16.8c-3.25-11.17-6.82-22.55-10.63-33.8s-7.94-22.68-12.29-34-9-22.76-13.92-34.06l-2.36.46c.18,2.83.3,5.67.41,8.42v.25s.37,6.63.62,10c.2,3,.6,6.07.8,9h0a72.91,72.91,0,0,1,1.24,10.31c.67,3.34,1.39,6.73,2.08,10h0c1.77,8.38,3.6,17,4.87,25.63.68,4.63,1.15,8.86,1.44,12.94.15,2.21.25,4.4.3,6.51s0,4.42-.06,6.54c-.15,8.6-.79,17.58-1.4,26.26-.07,1.08-.14,2.05-.21,3v0a.86.86,0,0,1-.92.77,1.23,1.23,0,0,1-.42-.07A39.2,39.2,0,0,1,78,413a49.68,49.68,0,0,1-5.8.83,32,32,0,0,1,0,4.38c0,.57-.06,1.16-.08,1.75-.16,1.77.91,2.83,1.95,3.85l.48.48a13.46,13.46,0,0,1,1.66,4.93,24.53,24.53,0,0,1,.3,3c0,1,0,2,0,3.09a35.39,35.39,0,0,1-.74,5.9,18.26,18.26,0,0,1-1.48,4.46,4.53,4.53,0,0,0-.14,2.55,5.34,5.34,0,0,1,0,1.87,6.92,6.92,0,0,1-.48,1.65,7.68,7.68,0,0,1-.92,1.63,4.91,4.91,0,0,1-1.28,1.25A2.81,2.81,0,0,1,70,455h-.26c-4.36,1.42-8.11,2.58-11.49,3.53-3.84,1.09-7.3,2-10.58,2.66s-6.67,1.27-10.07,1.66c-1.66.19-3.34.34-5,.43s-3.35.15-5,.15c-2.58,0-5.22-.12-7.84-.36a42.09,42.09,0,0,1-6.6-1.1,7.88,7.88,0,0,1-4.4-2.51,3.77,3.77,0,0,1-.71-1.87,5.86,5.86,0,0,1,.35-2.46l1,.13.48.06a5.83,5.83,0,0,1,1.79-5.17,13.72,13.72,0,0,1,2.46-2,31.5,31.5,0,0,1,3.05-1.73A106.85,106.85,0,0,0,31.34,437a53.9,53.9,0,0,0,5.29-4.61h0A45.64,45.64,0,0,1,43.07,427a16.17,16.17,0,0,1,3.66-1.8,13.89,13.89,0,0,1,2-.51,14.06,14.06,0,0,1,2.15-.17h.59a3.27,3.27,0,0,0,0-.44h0c0-.46-.08-1,.37-1.23a65.56,65.56,0,0,1,1.93-9.8l-1.4-.29h.17a18.66,18.66,0,0,1-2.11-.39l-.41.17-.15,0a.3.3,0,0,1-.24-.11.42.42,0,0,1-.06-.4c.36-2.12.66-4.3.9-6.46s.43-4.28.56-6.44c.26-4.16.31-8.48.17-12.85-.14-4.13-.45-8.43-.94-12.8-.46-4.08-1.09-8.38-1.87-12.76-.73-4.09-1.58-8.25-2.61-12.73-.91-4-1.94-8.14-3.15-12.69-2.25-8.45-4.78-17-7.22-25.28h0c-2.15-7.28-4.38-14.8-6.39-22.19-1.08-4-2-7.59-2.87-11.07-.94-3.89-1.75-7.51-2.47-11.05a12.24,12.24,0,0,1-2.19.73,8.48,8.48,0,0,1-2,.24,7.42,7.42,0,0,1-2.2-.33,7.35,7.35,0,0,1-1.94-.92,10.09,10.09,0,0,1-1.7-1.42,13.63,13.63,0,0,1-1.47-1.84,23.45,23.45,0,0,1-2.33-4.54,45.92,45.92,0,0,1-1.65-5.1c-.14-.6-.29-1.22-.46-1.88h0a30.67,30.67,0,0,1-1-5.37,9.54,9.54,0,0,1,.13-2.56,6,6,0,0,1,.36-1.18,5.5,5.5,0,0,1,.6-1.09l-1.69-1.51-.15,0a.69.69,0,0,1-.45-.2,6.14,6.14,0,0,1-1-3.15A48.35,48.35,0,0,1,4,230.23c-.12-3.9,0-7.86.1-9.07a39.42,39.42,0,0,1,.32-4.73c.2-1.57.49-3.25.86-5a97.11,97.11,0,0,1,3-10.54c2.45-7.2,5.6-14.57,8.67-21.71,1.28-3,2.49-5.81,3.63-8.58.8-2.52,1.52-5.1,2.17-7.9.59-2.48,1.11-5.08,1.61-7.94.93-5.3,1.62-10.71,2.29-16,.6-4.68,1.22-9.52,2-14.27.43-2.56.86-4.88,1.34-7.11.53-2.5,1.1-4.81,1.73-7.08a13.25,13.25,0,0,1,1.41-3,12.64,12.64,0,0,1,2.05-2.44,15.75,15.75,0,0,1,2.58-2,22.16,22.16,0,0,1,3-1.51,39.94,39.94,0,0,1,6.86-2.09c2.4-.54,4.88-1,7.28-1.37,1.82-.31,3.54-.6,5.2-.93a6.59,6.59,0,0,0,0-1.09c-.07-.89-.15-1.89.34-2.09a17.92,17.92,0,0,1,3.23-1.93,21.23,21.23,0,0,1,2.15-.9,6.43,6.43,0,0,1,1.84-.39h.45l1.28,1.55c1.39-2.46,1.62-5.3,1.84-8,.08-1.07.17-2.16.33-3.2a14.06,14.06,0,0,1,.74-3,8.1,8.1,0,0,1,2.8-3.73,10.72,10.72,0,0,1,1.59-1,20.14,20.14,0,0,1,7.48-1.36,20.59,20.59,0,0,1,4.63.5A14.56,14.56,0,0,1,92.92,74,9.53,9.53,0,0,1,96,76.7a8.28,8.28,0,0,1,1.5,4l.33-.1A37.06,37.06,0,0,0,99.47,85c.55,1.24,1.18,2.52,2,4,.27-.12.57-.28.89-.44a7.16,7.16,0,0,1,2.52-1,2.9,2.9,0,0,1,1,1.15,4.87,4.87,0,0,1-.4,4.69l-1,1.22c.38.11.76.23,1.14.33h0A25,25,0,0,1,110,96.57l3.56.71h0c3.94.78,7.65,1.52,11.41,2.38,2,.46,3.86.92,5.63,1.39,2,.52,3.8,1.06,5.6,1.63a11.36,11.36,0,0,1,2.65,1.85,13,13,0,0,1,2,2.46,17.93,17.93,0,0,1,1.53,3,26.3,26.3,0,0,1,1.1,3.39,50.58,50.58,0,0,1,1.24,7.55c.26,2.61.4,5.27.54,7.85h0a90.61,90.61,0,0,0,.84,9.72c.14,1.57.3,3.18.44,4.74.69,7.37,1.47,15.73,2,24.26.66,9.79,1,18.32.91,26.07,0,4.53-.19,8.87-.46,12.9-.29,4.37-.73,8.54-1.32,12.38a103.39,103.39,0,0,1-2.37,11.53c-.5,1.85-1.06,3.65-1.65,5.34s-1.27,3.43-2,5l-.29-.13a9.74,9.74,0,0,1-2.54,1c0,.37.05.79.08,1.2h0c.16,2.06.37,4.87.42,8,0,1.73,0,3.38-.07,4.91-.09,1.79-.24,3.48-.47,5a32.23,32.23,0,0,1-1.05,4.75,18.55,18.55,0,0,1-1.79,4.11,12,12,0,0,1-1.22,1.7,10.27,10.27,0,0,1-1.47,1.4,8.86,8.86,0,0,1-3.76,1.72,13.3,13.3,0,0,0-1.55-.09,19.33,19.33,0,0,0-3.72.39,39.77,39.77,0,0,0,.53,6.26,55.75,55.75,0,0,0,1.37,6.12c.51,1.82,1.14,3.79,1.92,6,.69,1.95,1.43,3.89,2.19,5.88a395.84,395.84,0,0,1,15.06,50.61c1,4.33,1.93,8.8,2.82,13.29s1.71,9.05,2.49,13.7,1.51,9.37,2.2,14.21,1.33,9.73,1.94,14.78c.47,4.18.91,8.27,1.22,12.4-.07.38-.59.46-.78.46a.55.55,0,0,1-.59-.35l-.33-1.07a55.34,55.34,0,0,1-6.11,1.31c.38.82.71,1.66,1,2.47a29.45,29.45,0,0,0,2,4.27c.19.3.39.61.61.93.82,1.25,1.68,2.54,1.58,3.82A16.2,16.2,0,0,0,153,437a28.57,28.57,0,0,0,.75,3.42c.32,1.16.7,2.34,1.1,3.59v0l.16.49a54,54,0,0,1,1.72,11.08h0c.1,1.23.2,2.5.35,3.84h0a32.4,32.4,0,0,1,.2,8.85c-.3,1.07-2.38,1.73-4.06,2.26a51.62,51.62,0,0,1-18.33,3.24h0C133.34,473.82,131.66,473.74,130,473.58Zm-9.2-319.8a2.94,2.94,0,0,0-2.61,1.21,6.2,6.2,0,0,0-.8,2.54c-.5,2-.93,4.14-1.28,6.27s-.6,4.16-.8,6.32a117.18,117.18,0,0,0-.43,12.71c.06,3.82.28,8,.66,12.7.34,4.1.75,8.12,1.21,12.56.48,5,.86,9.78,1.11,14.3.06.7-1.07,1.36-2.16,2a7.73,7.73,0,0,0-1.76,1.23c.54,1.52,1.16,3,1.77,4.54a60.42,60.42,0,0,1,2.77,7.78,22,22,0,0,1,.66,4,16.24,16.24,0,0,1-.21,4.06l.44-.36.13-.11h0c1.2-1,2.7-2.22,3.8-3.17a17,17,0,0,1-.66-2.21l-.38-.18.23-.18c0-4.06.08-8.5.33-13.58.22-4.52.53-9.12.83-13.57.32-4.83.65-9.82.88-14.73.24-5.51.32-10.32.24-14.72a136.11,136.11,0,0,0-1-14.7c-.32-2.5-.72-5-1.19-7.34s-1.08-5-1.75-7.34Z"/></g><g id="_Shoes-3" data-name=" Shoes-3"><path id="Trazado_2085" data-name="Trazado 2085" class="cls-1" d="M129.11,474.3a40.12,40.12,0,0,1-4.63-.71,30.57,30.57,0,0,1-4.41-1.3,25.24,25.24,0,0,1-4.08-2,2,2,0,0,1-.58-1.23,12.2,12.2,0,0,1-.2-2c0-1.35,0-2.61,0-2.66a3.82,3.82,0,0,1,.59-1.63,11.65,11.65,0,0,1,1.19-1.6,23,23,0,0,1,1.71-1.71l.18-.7a76.58,76.58,0,0,1,4.5-12.2l.65-1.47a13.21,13.21,0,0,1,2.7-3.64,20.58,20.58,0,0,0,1.64-1.86,8,8,0,0,0,1.21-2.26,7,7,0,0,0,0-1.29,7.39,7.39,0,0,1,0-1.33s1.83-.9,4-1.77c1.1-.46,2.23-.86,3.38-1.22a11.09,11.09,0,0,1,2.91-.55h.34a9.1,9.1,0,0,1,3.25,1c1.38.64,2.74,1.34,4.06,2.12,2.64,1.52,4.91,3.06,4.93,3.08l1.53,2.19c.34,1.33.73,2.7,1.1,4,.58,2.1,1.2,4.26,1.66,6.41a37.1,37.1,0,0,1,.92,6.46,27.82,27.82,0,0,0,.2,4.38l.08.81a23.14,23.14,0,0,1,.12,5.26,4,4,0,0,1-.09,1.39,2.66,2.66,0,0,1-.53,1,3.91,3.91,0,0,1-1.16.85,10.93,10.93,0,0,1-1.68.63,50,50,0,0,1-10.66,3c-1.72.24-3.4.42-5,.55-1.78.14-3.5.21-5.13.21S130.69,474.44,129.11,474.3ZM27.46,463.85c-2.54,0-5.1-.12-7.63-.21h0c-.8-.27-7.89-1.31-9.87-2.49a5.58,5.58,0,0,1-1.73-2.52,11.89,11.89,0,0,1-.63-2v-.2a1.11,1.11,0,0,1,.27-.58,6.19,6.19,0,0,1,.58-.67c.4-.41.8-.76.68-.8h0l.71-.55a2,2,0,0,1-.09-2.22A7.36,7.36,0,0,1,11,449.73a14.44,14.44,0,0,1,2.57-2.11c1-.65,2-1.23,2.93-1.7l.39-.21c2.54-1.43,5-2.93,7.27-4.45s4.69-3.27,6.82-5a48.16,48.16,0,0,0,4.79-4.12l1.52-1.44a46.5,46.5,0,0,1,4.39-3.78,17.36,17.36,0,0,1,5-2.64c3.55.25,6.93.4,7,.4,1.95,0,3.14,1.38,4.4,2.85a13.24,13.24,0,0,0,2.35,2.32,5.83,5.83,0,0,0,1.5.79,5.48,5.48,0,0,0,1.88.3,6,6,0,0,0,2.48-.5A6.91,6.91,0,0,0,68.4,429a11.32,11.32,0,0,0,1.82-2.52,20.58,20.58,0,0,0,1.5-3.52h2.77l.3.31a7.57,7.57,0,0,1,1.69,2.69,16.61,16.61,0,0,1,.74,5.86,36.11,36.11,0,0,1-.14,7.05,24,24,0,0,1-.7,3.47,20.19,20.19,0,0,1-1.29,3.37,10.63,10.63,0,0,0,0,2.52,9.33,9.33,0,0,1,0,1.67,7.5,7.5,0,0,1-.69,2.18A7.86,7.86,0,0,1,73,454.11a4.91,4.91,0,0,1-1.27.95,3.23,3.23,0,0,1-1.52.38l-.38,0-.13,0-.6.21c-3.46,1.23-6.84,2.32-10,3.25-3.54,1-7,1.91-10.34,2.62q-5.22,1.11-10.54,1.74a92.51,92.51,0,0,1-10.65.63Z"/></g><g id="_Pants" data-name=" Pants"><path id="Trazado_2086" data-name="Trazado 2086" d="M113.39,226.81l-1.18.75-3.45,2.21-1.29.83-7.15,4.62c-11,7.1-16.91,10.74-23.87,14.47l-.58.31H75.8c-1.21.06-2.27-.4-4-1.54l-.17-.12-.67-.46-.16-.1-.61-.4-5.18-3.44c-2.76-1.83-4.66-3.1-6.42-4.3l-1-.7L56.29,238l-.27.09a1.32,1.32,0,0,1-1-.06l0,0-.36-.22-.47.45-.3.28c-.65.61-1.29,1.21-2.16,2l-.21.19L48.93,243l-.75.68c-1,.88-1.69,1.55-2.39,2.22l-.19.19-.38.37-.08.06-.09.08a13.11,13.11,0,0,0-1,1l-.12.13-.41.43-.21.22a6.64,6.64,0,0,1-3.18,2.24l-.06,0-.1,0h0a2.2,2.2,0,0,1-2-.74l0,0,0,0-.45-.43c-1.79-1.69-3.46-3.18-6.21-5.57l-.94-.82-3.82-3.3-.78-.67-.79-.69-.36-.32-1.06-.93-.37.4a.9.9,0,0,1-1,.18l0,0-.81-.47v.88c0,.42,0,.85,0,1.29l0,.47c.1,1.79.27,3.42.63,6.15l0,.29.46,3.44.09.67a249.12,249.12,0,0,0,5.72,29.51l.17.64c1.77,7,3.42,13,6.55,23.66l.73,2.5L38.1,315c2.78,9.45,4.43,15.28,6.07,21.51l.1.38.21.81.21.82c2,7.75,3.57,14.79,4.78,21.55l.06.36.13.7c3.06,17.59,3.62,33.4,1.3,48.76l-.07.47-.07.45.5.07a138.14,138.14,0,0,0,28.44,1.6l.4,0,.36-.1c.61-.16,1.2-.34,1.78-.53l.28-.09.37-.12,0-.52,0-.34c-.33-5.28-.23-9.85.28-19.13l0-.9.24-4.16c.11-2.05.19-3.51.25-4.93l0-1,0-1.07,0-.52a104.06,104.06,0,0,0-.85-19.8l-.06-.39-.06-.37-.08-.74c-.67-5.69-1.52-10.57-3.37-19.79l-.31-1.54-.8-4c-2.08-10.37-3-15.77-3.68-21.93l0-.4-.07-.63-.25-3.05c-.41-5.15-.58-8.38-.55-11.74v-.54A50,50,0,0,1,75,282.69l.07-.26v.13l.11-.41h0l.18-.39-.27-.22a37.82,37.82,0,0,1-4.53-4.42c-.75-.89,1-2.21,1.87-1.47l0,0,1.74,1.59-.88-2.08c-.48-1.15-1-2.31-1.45-3.47l-.28-.7-.1-.24.33.65A507.31,507.31,0,0,1,99.3,335.85l.26.73.3.84c8,22.82,15.18,46.79,23.47,77.5l.33,1.21.31.07.45.09c7.3,1.44,14.7,1.82,25.55,1.62h.39l.35-.07,1.42-.32.34-.08.74-.19-.07-1.05c-2.51-35.7-10.16-72.57-22.68-112.62l-.38-1.22-.22-.71-1.24-4-.24-.78a80.24,80.24,0,0,1-3.25-13.22l0-.12v0a42.39,42.39,0,0,1-1-7.36v-.24l0-.48-.53,0c-2.87.15-6.37-1.29-7.8-3.26l0-.06-.3-.43L115,272c-1,.7-2.49,0-3.36-1.28l0,0,0-.08a8.22,8.22,0,0,1-.88-4.62v-.24a22.93,22.93,0,0,1,1.15-5l.27-.84-.81.11a6.4,6.4,0,0,1-4.87-1.41,2.67,2.67,0,0,1-.67-3.73l0-.07,0-.05,0-.06.27-.21.27-.21c1-.75,2-1.48,3.52-2.55l.44-.3,1.86-1.29c2.66-1.85,4.18-3,5.72-4.26l.07-.06.36-.3v-.19a24.58,24.58,0,0,0-1.1-8.3l-.07-.25-.1-.33a67.92,67.92,0,0,0-2.45-6.51Z"/></g><g id="_Ink-3-3" data-name=" Ink-3-3"><path id="Trazado_2087" data-name="Trazado 2087" d="M124.32,474.17a31.69,31.69,0,0,1-4.51-1.36,28.67,28.67,0,0,1-4.22-2,2.81,2.81,0,0,1-1.09-2.12,12.64,12.64,0,0,1,.09-2.75h0a13.31,13.31,0,0,0,.11-2.09,6.89,6.89,0,0,1,.42-2.3,7.26,7.26,0,0,1,.55-1.28,4.37,4.37,0,0,1,.78-1,1.82,1.82,0,0,1,1.28-.58,1.9,1.9,0,0,1,.62.12c.5-1.77,1.1-3.58,1.78-5.4s1.39-3.49,2.2-5.26A114.14,114.14,0,0,1,127.68,438a1.6,1.6,0,0,1-.13-1.47,5.83,5.83,0,0,1,.79-1.34,6.22,6.22,0,0,0,1-2.17,10.07,10.07,0,0,0,.29-2.45,32.85,32.85,0,0,0-.61-5.31h0c-.17-1-.34-2-.45-3a14.79,14.79,0,0,1-.1-2.82c-2.19-.25-4.44-.57-6.67-1a1.44,1.44,0,0,1-.76-.35,1.14,1.14,0,0,1-.35-.61,1.57,1.57,0,0,1,.73-1.63c-1.37-5.68-2.83-11.45-4.34-17.15s-3.09-11.39-4.73-17.06-3.35-11.33-5.11-17-3.6-11.27-5.49-16.88c-3.73-11.07-7.78-22.32-12-33.45-4.19-10.93-8.7-22-13.39-33,.26,4.7.48,9.5.65,14.29.13,4.21.67,8.46,1.18,12.57.46,3.61.93,7.35,1.12,11,.63,3.13,1.3,6.32,2,9.4h0c.9,4.27,1.82,8.69,2.67,13,.94,4.89,1.68,9.17,2.26,13.1.69,4.72,1.17,9,1.46,13.17.15,2.25.25,4.48.3,6.62s0,4.49-.06,6.65c-.16,8.79-.78,17.71-1.39,26.34h0v.11c-.07,1-.14,2-.21,3a1.94,1.94,0,0,1-.63,1.31,2,2,0,0,1-1.82.52,43.79,43.79,0,0,1-10,2.17,16.25,16.25,0,0,1-.06,3,9.46,9.46,0,0,0,0,3.05,5.17,5.17,0,0,0,2,2.84,11,11,0,0,1,1.62,3.93,24.41,24.41,0,0,1,.57,4.82,45.58,45.58,0,0,1-.15,5c-.12,1.43-.3,2.88-.53,4.31A26.18,26.18,0,0,1,75.76,446l0,.07a4.47,4.47,0,0,0,0,2.15,4.67,4.67,0,0,1,0,2,7.73,7.73,0,0,1-.56,2,8.73,8.73,0,0,1-1.14,2,6.21,6.21,0,0,1-1.64,1.51,4,4,0,0,1-2,.6,3.4,3.4,0,0,1-.45,0c-3.65,1.25-6.9,2.3-9.92,3.21-3.67,1.1-7,2-10.31,2.74-1.78.4-3.55.77-5.24,1.08s-3.57.6-5.29.82-3.57.41-5.3.53-3.57.19-5.29.19a66,66,0,0,1-8.77-.58c-1.47-.2-2.92-.45-4.33-.76s-2.89-.68-4.28-1.1a10.19,10.19,0,0,1-1.93-1.09,3.68,3.68,0,0,1-1.29-1.65,9.68,9.68,0,0,1-.36-2.45,4.31,4.31,0,0,1,.55-2.58,1.13,1.13,0,0,1,.92-.43l.24,0a7,7,0,0,1,.25-1.58,6.36,6.36,0,0,1,.58-1.4,8.61,8.61,0,0,1,1.94-2.35,29.93,29.93,0,0,1,5.64-3.59h-.75a38.67,38.67,0,0,0,4.34-2.57,86.67,86.67,0,0,0,9-6.44c2.56-2.06,5.26-4.43,8.25-7.24a25.81,25.81,0,0,1,5.18-3.81,15.65,15.65,0,0,1,3-1.23,12.72,12.72,0,0,1,3.31-.47,1.46,1.46,0,0,1,.44-1.12h0A72.69,72.69,0,0,1,52,414.4l-.5-.62a11.42,11.42,0,0,1-1.28-.22,1.85,1.85,0,0,1-.66.13,1.61,1.61,0,0,1-1.19-.53,1.38,1.38,0,0,1-.31-1.25c.51-2.93.91-6,1.2-9s.44-6,.5-9.07,0-6-.13-9.08-.36-6-.68-9.05c-.27-2.72-.62-5.52-1-8.33s-.85-5.46-1.37-8.27c-1-5.17-2.12-10.54-3.56-16.39-1.2-4.88-2.6-10.2-4.31-16.26-1.53-5.41-3.14-10.89-4.7-16.2-2.07-7-4.22-14.32-6.18-21.5-1.05-3.87-2-7.4-2.8-10.8-.94-3.82-1.75-7.37-2.48-10.86a11.31,11.31,0,0,1-3.46.58,8.29,8.29,0,0,1-4.85-1.52,10.73,10.73,0,0,1-1.89-1.68,15.58,15.58,0,0,1-1.58-2.1,26.46,26.46,0,0,1-2.36-4.88c-.68-1.78-1.19-3.51-1.55-4.82-.15-.65-.31-1.31-.49-2h0a29.68,29.68,0,0,1-1-5.61,10.15,10.15,0,0,1,.2-2.75,7.58,7.58,0,0,1,.42-1.3,7.05,7.05,0,0,1,.67-1.24,2.63,2.63,0,0,1-.79.15h0a1.77,1.77,0,0,1-.9-.25,2.5,2.5,0,0,1-.74-.71c-.9-1.26-1.43-3.75-1.59-7.39-.07-1.6-.06-3.41,0-5.39.07-1.82.2-3.77.39-5.82.34-3.64.85-7.47,1.44-10.78a30.13,30.13,0,0,1,1.52-6.14c.65-2.28,1.39-4.59,2.28-7.05.79-2.19,1.68-4.45,2.72-6.92,1.92-4.57,4.06-9.16,6.13-13.6h0l.12-.23,1.05-2.52c.85-2.37,1.62-4.83,2.32-7.47s1.4-5.69,2-8.91c1.13-6,1.92-12.12,2.67-18v0c.15-1.13.3-2.29.44-3.42A172.9,172.9,0,0,1,29.5,113.1a15.85,15.85,0,0,1,1.09-4.24,13.62,13.62,0,0,1,2-3.4,15.74,15.74,0,0,1,2.81-2.66,22.19,22.19,0,0,1,3.45-2,32.71,32.71,0,0,1,3.91-1.54c1.29-.42,2.67-.8,4.23-1.17,2.88-.67,5.86-1.17,8.75-1.65H56l2.77-.47c0-.21,0-.43,0-.65h0a4.83,4.83,0,0,1,0-1.42,1.83,1.83,0,0,1,.28-.62,2,2,0,0,1,.6-.52,8.54,8.54,0,0,1,1.32-.9c.63-.38,1.36-.77,2.09-1.12a12.69,12.69,0,0,1,4.33-1.34,1.34,1.34,0,0,1,1,.34,15.74,15.74,0,0,0,1-3.38v0a5.05,5.05,0,0,0,.12-.56h0a5.21,5.21,0,0,1,.21-.95c.11-.33.25-.48.43-.48h0c0,.67.12,1.41.21,2.19.34,2.74.72,5.85-1.55,7.64.51.7,1,1.46,1.49,2.2a21.78,21.78,0,0,0,4,5h0l.35.18h.16a.34.34,0,0,0,.12.06h.19c.33,0,1-.7,1-.7h0s14.34-7.08,23.3-12.26a7,7,0,0,1-.84-2,23.3,23.3,0,0,1-.66-3,14.84,14.84,0,0,1-.2-2.9c0-.9.23-1.48.55-1.7.45,1.34.94,2.77,1.5,4.19a34.86,34.86,0,0,0,1.87,4.07l.17-.08h0a11.74,11.74,0,0,1,1.3-.59,4.12,4.12,0,0,1,1.39-.3,1.88,1.88,0,0,1,.78.16,1.67,1.67,0,0,1,.66.55A7,7,0,0,1,107,90.48a5,5,0,0,1-1,3.43,63.15,63.15,0,0,0,6.31,1.83c2.14.52,4.33,1,6.46,1.3h0c2.8.69,5.7,1.28,8.51,2,.68.16,1.38.31,2.05.45a39.91,39.91,0,0,1,7.18,2,14.08,14.08,0,0,1,2.54,1.63,13.17,13.17,0,0,1,2,2,15.19,15.19,0,0,1,1.53,2.34,20.18,20.18,0,0,1,1.12,2.57,31.44,31.44,0,0,1,1.36,5.57c.31,1.9,1,5.65,1,5.65v.11c.1,1,.2,1.91.31,2.82.5,7.9,1.25,16,2,23.8.69,7.45,1.4,15.16,1.91,22.75.27,4.08.47,7.81.6,11.38.14,4,.2,7.72.16,11.35,0,3.9-.17,7.71-.41,11.31-.26,3.86-.64,7.65-1.14,11.26-.52,3.82-1.2,7.58-2,11.17-.84,3.78-1.85,7.5-3,11.08a19.7,19.7,0,0,1-1,2c-.23.44-.47.9-.69,1.35a.61.61,0,0,1-.58.35,1,1,0,0,1-.54-.17,6.91,6.91,0,0,1-1.32.54c.21,2.58.41,5.39.46,8.42,0,1.67,0,3.27-.08,4.75-.08,1.7-.24,3.32-.46,4.8a34.64,34.64,0,0,1-1,4.63,23.3,23.3,0,0,1-1.64,4.2,16.45,16.45,0,0,1-2.45,3.56,13.07,13.07,0,0,1-3.38,2.67,2.87,2.87,0,0,1-1.19.23,5.82,5.82,0,0,1-.93-.07l-.17,0a14.48,14.48,0,0,0-1.47-.08,15.32,15.32,0,0,0-2.43.2,64.41,64.41,0,0,0,1.15,7.7c.5,2.4,1.15,4.87,2,7.56,1.52,5,3.43,10,5.27,14.87,1.34,3.52,2.72,7.15,3.94,10.76.66,1.94,1.23,3.72,1.72,5.43.56,1.93,1,3.72,1.41,5.5,2.07,7.34,4,14.86,5.7,22.36s3.26,15,4.63,22.57,2.55,15.12,3.57,22.72,1.86,15.2,2.54,22.83a1.45,1.45,0,0,1-.47,1.14,2.27,2.27,0,0,1-1.55.57,2.08,2.08,0,0,1-1.07-.27,1.55,1.55,0,0,1-.69-.88c-1.17.3-2.39.57-3.62.78.21.5.42,1,.62,1.51.39,1,.79,2,1.28,2.95a16.72,16.72,0,0,0,1.15,1.89,10.48,10.48,0,0,1,1.58,3,8.89,8.89,0,0,1-.31,3.73,14.43,14.43,0,0,0-.39,2.26,5.16,5.16,0,0,0,.34,2.3,22.14,22.14,0,0,0,1.26,5.27,28.15,28.15,0,0,1,1.11,4,57.67,57.67,0,0,1,1.06,5.9,33,33,0,0,1,.24,6,18.43,18.43,0,0,1,.75,4.41,43.75,43.75,0,0,1,0,4.44c0,.13,0,.26,0,.39a3.46,3.46,0,0,1-.8,2.53,16.93,16.93,0,0,1-4.51,2H153c-.6.2-1.21.41-1.79.64a67.94,67.94,0,0,1-8.45,1.92,57.39,57.39,0,0,1-8.88.72h0A42.62,42.62,0,0,1,124.32,474.17Zm31.47-10.11a7.59,7.59,0,0,1-2,1.57,23.26,23.26,0,0,1-6.05,2.22,57.94,57.94,0,0,1-6.89,1.16c-1.8.21-3.61.33-5.42.36h-.13q-5.35-.06-10.66-.62a37.44,37.44,0,0,1-5.75-1,6.92,6.92,0,0,1-1.83-.75c-.45-.29-.68-.6-.68-.93a1.27,1.27,0,0,1,.18-.6A1.48,1.48,0,0,1,117,465a13.43,13.43,0,0,1,.53-4.63c-1.27,1.24-1.26,3-1.25,4.69h0a15.31,15.31,0,0,1-.08,2,4.58,4.58,0,0,1,0,.64c-.07.71-.14,1.45.72,1.79a21.35,21.35,0,0,0,2.77,1.43,26.33,26.33,0,0,0,3,1.05c1,.29,2,.53,3.1.72s2.06.33,3.16.45a52.92,52.92,0,0,0,16.46-.91,49.65,49.65,0,0,0,10.48-3.5c.83-1,.83-3.21.83-5h0c0-.6,0-1.17,0-1.62h0a3.7,3.7,0,0,1-.92,1.93ZM139,432.45a10.06,10.06,0,0,0-3.4.56,7.47,7.47,0,0,0-1.56.75,8.17,8.17,0,0,0-1.43,1.13c-.13.26-.25.55-.38.84a9.38,9.38,0,0,1-.95,1.8,3,3,0,0,1-1.62,1.2c-.29.5-.6,1-1,1.7-.28.49-.53,1-.8,1.56h0a21.31,21.31,0,0,1-1.36,2.48,6.15,6.15,0,0,1-2,1.94c-.4,1.34-.83,2.69-1.24,4h0c-.84,2.69-1.71,5.47-2.43,8.23-.07.34-.15.68-.23,1v0a13.1,13.1,0,0,0-.51,5,1.87,1.87,0,0,1,1.13.55c2.35.44,4.65.8,6.85,1a64.64,64.64,0,0,0,7,.38c1.63,0,3.23-.07,4.77-.21a43.55,43.55,0,0,0,4.7-.66,39.75,39.75,0,0,0,4.57-1.17,34.52,34.52,0,0,0,4.38-1.76,14.82,14.82,0,0,0,.84-2.06,15.94,15.94,0,0,0,.51-2.12,20.66,20.66,0,0,0,.25-4.37,56.47,56.47,0,0,0-1.28-8.86h0c-.27-1.35-.52-2.63-.73-3.9a3.94,3.94,0,0,0-.33-1.51,8.41,8.41,0,0,0-.65-1.22,5.63,5.63,0,0,1-1-2.47,49.55,49.55,0,0,0-5.77-2.58,24.28,24.28,0,0,0-4.18-1.1,13.14,13.14,0,0,0-2.17-.17ZM73.18,448.69a9.24,9.24,0,0,1-4.2,2.43,57.05,57.05,0,0,1-5.74,1.52c-1.39.31-2.7.61-3.73.93l-1.74.48-.17,0h-.21c-5.6,1.53-11.39,3.12-17.17,4.3-3.12.64-6,1.12-8.75,1.46-1.5.18-3,.32-4.42.42s-3,.17-4.46.18h-.48l-1,0h-.52l-1,0a8.35,8.35,0,0,1-1.87-.17,3.23,3.23,0,0,1-1.55-.73,12.83,12.83,0,0,1-2.21-.49,10.26,10.26,0,0,1-2-.89,7.16,7.16,0,0,1-1.63-1.27,4.67,4.67,0,0,1-1-1.64.59.59,0,0,1-.23,0,5.48,5.48,0,0,0-.13,1.51c0,.65.05,1.25.06,1.4.62,2.81,5.14,3.5,8.13,3.95l.87.14c1.58.22,3.21.39,4.85.5s3.22.16,4.85.16h1.07c1.73,0,3.5-.06,5.29-.18s3.49-.29,5.26-.51a104.36,104.36,0,0,0,10.4-1.87c5.36-1.19,10.11-2.46,14.54-3.87A21.37,21.37,0,0,0,70.5,454a8.91,8.91,0,0,0,1.2-1,6,6,0,0,0,.9-1.21,4.75,4.75,0,0,0,.52-1.42,5.56,5.56,0,0,0,.06-1.68Zm-.49-25.17a1.16,1.16,0,0,0-.37.07,3.2,3.2,0,0,1-.12.87.84.84,0,0,1-.62.59s0,0,0,0,0,.06,0,.09h.06a.2.2,0,0,1,.16.07.1.1,0,0,1,0,.12,12.8,12.8,0,0,1-3.47,5,10.08,10.08,0,0,1-2.62,1.7,7.32,7.32,0,0,1-2.95.65,6.85,6.85,0,0,1-3.47-1,11.76,11.76,0,0,1-2.53-2.4,16.67,16.67,0,0,0-1.64-1.72A5.89,5.89,0,0,0,53,426.35a7.8,7.8,0,0,0-2.54-.4,10.53,10.53,0,0,0-3.24.54,14.11,14.11,0,0,0-2.95,1.37,34.92,34.92,0,0,0-5.6,4.62h0c-.65.62-1.33,1.27-2,1.87A103.91,103.91,0,0,1,19.38,446.8c-.41.23-.88.47-1.38.74h0a22.66,22.66,0,0,0-5.18,3.3,6.16,6.16,0,0,0-.87,1,3.86,3.86,0,0,0-.49,1.14,2.83,2.83,0,0,0,0,1.23,3.81,3.81,0,0,0,.56,1.33,4.3,4.3,0,0,0,2.34,1.48,15.54,15.54,0,0,0,2.87.5c1.39.16,2.59.3,3,.95.77,0,1.56,0,2.34,0h0a73.82,73.82,0,0,0,8-.45c2.51-.28,5.1-.67,7.91-1.21,2.39-.46,4.95-1,7.82-1.71,2.61-.63,5.25-1.32,7.72-2,2.1-.61,4.27-1.14,6.38-1.65h0c1.73-.42,3.52-.86,5.26-1.34s3.46-1,5.14-1.67c2.3-1.81,3.8-4.75,4.45-8.74a36.4,36.4,0,0,0,0-10c0-.21-.09-.53-.14-.89-.29-1.88-.82-5.39-2.4-5.39Zm76.46-4.2c-1.7.26-3.47.46-5.27.59s-3.49.18-5.3.18q-4.5,0-9-.44c.44,1,.83,2.12,1.2,3.17h0l.2.55.3.83a24.92,24.92,0,0,1,1.89,7.93,10.46,10.46,0,0,1,2.65-1,12.34,12.34,0,0,1,2.78-.31,18,18,0,0,1,6.67,1.41,28.3,28.3,0,0,1,5.87,3.2,7.5,7.5,0,0,1,.38-3.08c.14-.51.26-1,.35-1.56a4.6,4.6,0,0,0,0-1.57c-.21-.45-.43-.91-.65-1.35v0a29.62,29.62,0,0,1-1.77-4.14,10.73,10.73,0,0,1-.43-2.16,8,8,0,0,1,.11-2.24ZM71.21,415c-1.22.06-2.49.09-3.77.08-2.15,0-4.34-.08-6.7-.25-2.1-.15-4.29-.37-6.67-.66a37.46,37.46,0,0,1,.33,4.24c0,.61,0,1.22.06,1.82a7.64,7.64,0,0,1-.37,3.85,5.64,5.64,0,0,1,1.3.53,7.18,7.18,0,0,1,1.1.8,16.76,16.76,0,0,1,1.85,2,13.84,13.84,0,0,0,2.19,2.27,5.09,5.09,0,0,0,1.33.74,5,5,0,0,0,1.63.28l.68,0a8.71,8.71,0,0,0,2.33-.81,9.08,9.08,0,0,0,2-1.38,9.36,9.36,0,0,0,1.52-1.8,8.26,8.26,0,0,0,.95-2.07.79.79,0,0,1-.4-.76c.12-1.55.23-3.12.34-4.64s.21-2.81.31-4.21Zm1.57,7.18c0,.22,0,.47,0,.7a1.06,1.06,0,0,1,.43-.12,4.45,4.45,0,0,1-.38-.58Zm51.93-146.47a10,10,0,0,1-1.09.07,11.46,11.46,0,0,1-4.5-1,10.07,10.07,0,0,1-2-1.13,6.24,6.24,0,0,1-1.45-1.45,2,2,0,0,1-1.23.39,3.9,3.9,0,0,1-3-1.86,7.48,7.48,0,0,1-.89-2.54,10.47,10.47,0,0,1-.09-2.68,24.53,24.53,0,0,1,1.22-5.28,8.11,8.11,0,0,1-.86.05,7.26,7.26,0,0,1-3.14-.72,6.3,6.3,0,0,1-1.29-.83,4.31,4.31,0,0,1-.92-1.07,2.9,2.9,0,0,1-.44-1.68,3.48,3.48,0,0,1,.74-1.87c1.76-1.39,3.67-2.71,5.52-4h0c2.33-1.62,4.75-3.29,6.93-5.14a21.5,21.5,0,0,0-.21-4.24,30.63,30.63,0,0,0-.94-4.14,81.11,81.11,0,0,0-3.08-8.12l0-.06c-.18-.41-.36-.84-.53-1.26-3.28,2.08-6.59,4.23-9.79,6.3-4.43,2.87-9,5.84-13.56,8.66-2.45,1.52-4.71,2.87-6.89,4.14-2.45,1.42-4.75,2.71-7,3.92a.42.42,0,0,0-.4.26h0a15,15,0,0,1-2.43-.87,17.8,17.8,0,0,1-2.15-1.33h0l-.69-.47c-1.23-.82-2.49-1.65-3.7-2.42h0c-3.47-2.33-7.06-4.71-10.54-7.12a1.93,1.93,0,0,1-.63.1,1.82,1.82,0,0,1-.91-.24c-1.41,1.36-2.89,2.69-4.32,4-1.59,1.44-3.23,2.92-4.8,4.45A18.77,18.77,0,0,0,44.13,248a16.8,16.8,0,0,1-1.77,1.71,6.27,6.27,0,0,1-1,.67,4.9,4.9,0,0,1-1.18.43,3.17,3.17,0,0,1-.53,0,2.54,2.54,0,0,1-1.15-.28,4,4,0,0,1-1-.73c-3-2.82-6.14-5.56-9.2-8.2h0c-1.6-1.37-3.25-2.8-4.85-4.21a1.5,1.5,0,0,1-1.06.44,1.38,1.38,0,0,1-.66-.17,83.93,83.93,0,0,0,.93,9.76v0c.09.61.17,1.24.25,1.85.31,2.5.68,5.1,1.1,7.71s.87,5.07,1.38,7.68c.95,4.82,2.08,9.82,3.46,15.3,2.55,10.17,5.59,20.47,8.67,30.43h0c2.25,8.12,4.73,16.51,6.93,24.79,1.18,4.45,2.19,8.52,3.09,12.43,1,4.39,1.84,8.47,2.56,12.47.77,4.3,1.4,8.52,1.86,12.54.49,4.3.82,8.54,1,12.61.17,4.31.14,8.58-.08,12.71a125.21,125.21,0,0,1-1.32,12.81c3.73.57,7.42,1,11,1.3,3.76.31,7.47.47,11,.47,3.1,0,6.18-.12,9.16-.35-.13-1.77-.21-3.6-.24-5.58,0-1.76,0-3.61,0-5.66.1-3.8.33-7.73.55-11.53.29-5.06.6-10.29.61-15.43,0-2.77-.06-5.28-.22-7.68-.18-2.7-.46-5.18-.86-7.6-.4-3.6-1-7.51-1.79-12-.72-4-1.53-8-2.14-11.9h0c-1-4.14-1.89-8.42-2.64-12.65-.84-4.74-1.43-8.9-1.82-12.73,0-.4-.06-.8-.1-1.19-.72-8.8-1.46-17.9.85-26.5l.06-.13h0a38.42,38.42,0,0,1-4.61-4.5,1.16,1.16,0,0,1-.13-1.39,2.16,2.16,0,0,1,1.81-1.05,1.47,1.47,0,0,1,1,.38c-1.74-4.13-3.45-8.34-5.22-12.88,3.17,5.74,6.31,11.79,9.32,18,2.89,5.94,5.76,12.2,8.53,18.6,2.63,6.1,5.26,12.52,7.8,19.08,2.41,6.21,4.82,12.74,7.17,19.43,2.2,6.27,4.42,12.88,6.6,19.66,2,6.27,4.08,12.93,6.12,19.77,3.51,11.76,7,24.27,11.11,39.38a82.76,82.76,0,0,0,10.4,1.41c3.14.24,6.58.35,10.52.35,2.81,0,5.53-.06,7.82-.11-.33-4.82-.75-9.75-1.27-14.66s-1.11-9.71-1.8-14.6-1.46-9.66-2.31-14.53-1.77-9.62-2.78-14.47-2.06-9.58-3.21-14.4-2.32-9.52-3.6-14.33-2.57-9.47-4-14.26c-1.35-4.64-2.8-9.41-4.3-14.17-.33-1.1-.68-2.23-1-3.32h0c-1.18-3.77-2.4-7.68-3.25-11.57a53.29,53.29,0,0,1-.94-5.88,37.06,37.06,0,0,1-.12-6Zm2.86-3.27a18.38,18.38,0,0,1,2.46.17,8.77,8.77,0,0,0,2.1-1.84,14.17,14.17,0,0,0,1.73-2.6,23.77,23.77,0,0,0,1.4-3.18c.4-1.08.78-2.28,1.12-3.58A73.43,73.43,0,0,0,138,253.7c.4-2.55.71-5,1-7.16h0c.18-1.46.34-2.72.5-3.79a29.08,29.08,0,0,1-6.38.71,31.14,31.14,0,0,1-9.14-1.4,1,1,0,0,1-.38.68,1.14,1.14,0,0,1-.73.26,1,1,0,0,1-.67-.25,36.31,36.31,0,0,1-2.81,3.84,47.14,47.14,0,0,1-3.29,3.49,77.62,77.62,0,0,1-7.47,6.19l0,0,0,.06h0l0,0,0,0a.08.08,0,0,1,0,0,.06.06,0,0,1,0,.06h0s0,0,0,0a1.18,1.18,0,0,0,.37.46,2.07,2.07,0,0,0,.53.28,6.64,6.64,0,0,0,1.33.25,4,4,0,0,1,2,.61,1.55,1.55,0,0,1,.66.94,1.17,1.17,0,0,1-.24,1,6.42,6.42,0,0,1,.43,2.2,19.81,19.81,0,0,1-.07,2.31,17.78,17.78,0,0,0,0,2.73,6.32,6.32,0,0,0,.25,1.31,4.63,4.63,0,0,0,.56,1.24,4.37,4.37,0,0,0,.56.49,4.49,4.49,0,0,1,.76.75,2.6,2.6,0,0,1,1.4-.41,3.78,3.78,0,0,1,1.48.35,12.75,12.75,0,0,1,1.47.76,7.13,7.13,0,0,0,2.91,1.14h-.05a2.9,2.9,0,0,0,.51,0,5.91,5.91,0,0,0,.84,0h0l.18,0h0c.63-.09,1.28-.18,1.93-.24.38,0,.78-.05,1.19-.05h0ZM8,239.19a3.14,3.14,0,0,0-.45,1.18,5.92,5.92,0,0,0,0,1.33,13.87,13.87,0,0,0,.55,2.54c.36,1.08.71,2.25,1.08,3.48h0a74.58,74.58,0,0,0,2.91,8.45,19.35,19.35,0,0,0,4.72,7,3.56,3.56,0,0,0,1.2.56,5,5,0,0,0,1.28.16,13.73,13.73,0,0,0,2.31-.26h0l.59-.1c-.6-3.23-1.14-6.61-1.67-10.31-.44-3.11-.87-6.5-1.32-10.36A43,43,0,0,1,8,239.18H8ZM119.19,156a7.42,7.42,0,0,0-.36,1.46c0,.1,0,.2,0,.27-.5,2-.93,4.15-1.28,6.29s-.6,4.16-.79,6.31a117.15,117.15,0,0,0-.42,12.7c.15,8.54,1,17.12,1.92,25.42h0c.42,4.51.78,9.08,1.05,13.58.26,1.52-1.09,2.3-2.4,3.06a11.81,11.81,0,0,0-1.34.87c.54,1.55,1.2,3.12,1.83,4.64a58,58,0,0,1,2.34,6.25,21.6,21.6,0,0,1,.7,3.19,15.64,15.64,0,0,1,.13,3.28c.5-.41,1-.85,1.58-1.33-.13-.37-.24-.76-.34-1.15a1,1,0,0,1-.61-.81.82.82,0,0,1,.31-.78c0-4,.07-8.43.32-13.48.23-4.5.55-9.07.85-13.5h0c.55-7.9,1.12-16.06,1.18-24.08,0-4.31-.08-8.24-.34-12-.14-2-.33-4.06-.57-6s-.54-4-.89-6c-.6-3.52-1.22-6.43-1.94-9.17C119.71,155.1,119.41,155.43,119.19,156ZM7.72,238.94l-.07.13.11-.09,0,0H7.72Zm44-10.8a1.92,1.92,0,0,0-1.26.51,1.44,1.44,0,0,0-.42,1.74,2.06,2.06,0,0,0,1.83,1.15,1.8,1.8,0,0,0,1.26-.51,1.42,1.42,0,0,0,.43-1.73,2.07,2.07,0,0,0-.73-.82,2,2,0,0,0-1.1-.34ZM53,211a1.32,1.32,0,0,0-.62.15v0h0a1,1,0,0,0-.59.62,1.52,1.52,0,0,0,0,.87,1.92,1.92,0,0,0,.44.82,1.08,1.08,0,0,0,.77.36,1.1,1.1,0,0,0,.63-.23,1.23,1.23,0,0,0,.6-.72,1.5,1.5,0,0,0-.44-1.56A1.13,1.13,0,0,0,53,211Zm2.2-22.42a1.84,1.84,0,0,0-1.29.54,1.64,1.64,0,0,0-.47,1.38,1.07,1.07,0,0,0,.07.66,2.52,2.52,0,0,0,.44.7,1.86,1.86,0,0,0,1.23.73c.33,0,.57-.22.68-.65a2.94,2.94,0,0,0,.66-1.1,2.42,2.42,0,0,0,.06-1.25,1.42,1.42,0,0,0-1.38-1ZM59.29,170a1.74,1.74,0,0,0-1.17.42,1.23,1.23,0,0,0-.41,1,1.28,1.28,0,0,0,.44,1,1.52,1.52,0,0,0,.94.31,1.83,1.83,0,0,0,1.34-.57,1.22,1.22,0,0,0,.26-1.16,1.34,1.34,0,0,0-.56-.7,1.48,1.48,0,0,0-.84-.23Zm3.13-18.21a1.39,1.39,0,0,0-1.05.41,1.35,1.35,0,0,0-.33.92,1.62,1.62,0,0,0,.55,1.22.9.9,0,0,0,.39.22,1.67,1.67,0,0,0,.8,0,1.4,1.4,0,0,0-.33-2.78ZM64.8,135a1.6,1.6,0,0,0-1.31.72,1.11,1.11,0,0,0-.16.59,1.1,1.1,0,0,0,.23.63,1.64,1.64,0,0,0,.55.65,1,1,0,0,0,.61.2,1.34,1.34,0,0,0,1.09-.66,1.6,1.6,0,0,0,.25-.79,1.52,1.52,0,0,0-.25-.86,1.28,1.28,0,0,0-1-.47Zm4.85-18.46a1.6,1.6,0,0,0-1.43,1,.91.91,0,0,0,0,.63,1.19,1.19,0,0,0,.48.6,1.3,1.3,0,0,0,.77.26,1.36,1.36,0,0,0,.71-.2,1.53,1.53,0,0,0,.52-.49,1.06,1.06,0,0,0,0-1.19,1.14,1.14,0,0,0-1-.58Z"/></g></g><g id="Grupo_3-2" data-name="Grupo 3-2"><g id="Grupo_2-2" data-name="Grupo 2-2"><g id="_Skin-2-3" data-name=" Skin-2-3"><path id="Trazado_2088" data-name="Trazado 2088" class="cls-1" d="M53.89,44c.44-3.47-.13-10.73-.17-11.17-.24-2.78,1.21-13.79,4-12.77,4.62-3.28,10.76-4,16.5-4.35,11.94-.72,24.63.93,33.85,8.14,4.56,3.74,9,9.19,8.64,14.85,4.14,5.38,10,12.74,4.81,19-1.75,2-4.54,2.75-6.74,4.27-4.43,3.21-7.21,7.81-11.68,11-11.86,9.56-32,11.55-43.62.69-9-7.88-7.55-19.65-6-29.69C54.54,37.25,53,50.77,53.89,44Z"/></g><g id="_Ink-2-4" data-name=" Ink-2-4"><path id="Trazado_2089" data-name="Trazado 2089" d="M70.55,80.27a25,25,0,0,1-11.11-5.39A23.09,23.09,0,0,1,56.6,72a19,19,0,0,1-2.37-3.52,21.18,21.18,0,0,1-1.56-3.78,27,27,0,0,1-.85-4,35.17,35.17,0,0,1-.3-4.1c0-2.76,0-5.66.14-8.87.11-2.63.28-5.44.54-8.87l.09-1.22c.19-2.47.4-5.09.72-7.66h-.19a2,2,0,0,1-1.35-.52,4.57,4.57,0,0,1-1.2-3.12l0-.3a8.25,8.25,0,0,1,2.56-6.45,7.86,7.86,0,0,1-2.25-4.92,6.16,6.16,0,0,1,0-2,2,2,0,0,1,1.29-1.5,2.41,2.41,0,0,1,.88-.16h0a12.5,12.5,0,0,1-.17-1.37,1.37,1.37,0,0,1,.46-1,1.63,1.63,0,0,1,1.07-.46h.11l.53,0h0l.24,0-.46-.65a1.06,1.06,0,0,1-.17-1A1.5,1.5,0,0,1,55,5.91a1.83,1.83,0,0,1,.71-.25,51.87,51.87,0,0,0,7.84-1.38L64.57,4A66.41,66.41,0,0,0,72,1.5a.33.33,0,0,1,.17,0,.51.51,0,0,1,.33.13A10.4,10.4,0,0,1,76.2.36a32.7,32.7,0,0,1,4-.33h.25l1.17,0a48.1,48.1,0,0,1,8.54.85A83.25,83.25,0,0,1,99.6,3.12a66.6,66.6,0,0,1,9,3.42,32.58,32.58,0,0,1,6.62,4.12,6.66,6.66,0,0,1,2.53-.52,3.93,3.93,0,0,1,1.69.34,1.82,1.82,0,0,1,1,1.12,1.58,1.58,0,0,1-.15,1.37l.21.11a5.8,5.8,0,0,1,1,.73l.22.2a1.67,1.67,0,0,1,.55,1.3,1.49,1.49,0,0,1-.55,1.14l-.11.08-.06,0a2.26,2.26,0,0,1-.42.26,30.49,30.49,0,0,1,3.38,5.93,28.68,28.68,0,0,1,1.93,6.47,26.35,26.35,0,0,1,.24,7.83,15.43,15.43,0,0,1-.91,3.85,11.57,11.57,0,0,1-.69,1.36c-.07.13-.14.25-.2.38a5.59,5.59,0,0,1-.86,1.08c-.16.18-.32.35-.48.54a.25.25,0,0,1-.2.09c.13.23.25.48.38.76a20.75,20.75,0,0,1,1.48,4.6,13.21,13.21,0,0,1,.23,2.25,9.94,9.94,0,0,1-.23,2.25,7.19,7.19,0,0,1-2.28,4,7.85,7.85,0,0,1-4,1.76,5.53,5.53,0,0,1,1.18,1.59,1.55,1.55,0,0,1,.17.87,1.62,1.62,0,0,1-1.75,1.46l-.1,0-.25-.05a6.38,6.38,0,0,1-.87-.3,2.42,2.42,0,0,1-.87.87,2.33,2.33,0,0,1-1.23.34,2.48,2.48,0,0,1-1.64-.6,14,14,0,0,1-3,4c-.65.61-1.34,1.2-2,1.77h0c-.69.59-1.4,1.2-2.06,1.83a14.69,14.69,0,0,0-1.36,1.58,9.4,9.4,0,0,1-2.16,2.2.67.67,0,0,1-.41.13,1,1,0,0,1-.89-.6,3,3,0,0,1,.4-2.46,9.4,9.4,0,0,1,1.75-2l.16-.16c.89-.8,1.83-1.56,2.8-2.28.56-.42,1.13-.86,1.68-1.3a21.08,21.08,0,0,0,3.89-4.17l.29-.41.43-.64c0-.11.05-.19.08-.28a1.72,1.72,0,0,1,.42-1,2.46,2.46,0,0,1,1.22-.83c.16-.15.33-.3.5-.43a3.51,3.51,0,0,1-.57-.76,1,1,0,0,1,.06-1,.84.84,0,0,1,.7-.36h1.21l.39,0,.18,0h.07a6.38,6.38,0,0,0,.87.07l.44,0A3.87,3.87,0,0,0,121,55.78a5.23,5.23,0,0,0,1.33-2.7,8.83,8.83,0,0,0,0-3,20,20,0,0,0-.62-2.54l-.38-1.29a5.68,5.68,0,0,0-1-2,2.55,2.55,0,0,0-2-.87,7.75,7.75,0,0,0-4,1.58l-.15.1,0,0a3.58,3.58,0,0,1-.28.37,13.34,13.34,0,0,1-1.88,1.8l-.13.11-.28.22a1.25,1.25,0,0,1-.8.29,1.22,1.22,0,0,1-.78-.28,1.13,1.13,0,0,1-.39-.74c-.11-1-.14-2-.17-3,0-.69,0-1.4-.09-2.1a43.41,43.41,0,0,0-.66-5.07,50,50,0,0,0-1.25-5c-.25-.78-.52-1.58-.84-2.44,0-.14-.1-.3-.15-.46a3,3,0,0,0-.85-1.6,4.21,4.21,0,0,0-1.74-.5l-.48-.08-1.41-.26h-.19l-1.37-.26c-2-.38-3.66-.74-5.16-1.12a48.3,48.3,0,0,1-5-1.53q.7,1.05,1.38,2.1a1.19,1.19,0,0,1,.22.66,1.16,1.16,0,0,1-.16.61,1.72,1.72,0,0,1-1.38.8c-.3,0-.62,0-.92,0a12.23,12.23,0,0,1-2.56-.27,5.12,5.12,0,0,1-.67-.19,24.38,24.38,0,0,1-3.7-.6l-.54-.12a47.13,47.13,0,0,1-6.48-2l-.71-.28c-.88-.23-1.75-.51-2.59-.82a27,27,0,0,1-3.48.23A27.48,27.48,0,0,1,62.71,23a33.21,33.21,0,0,1-4.15-1.17,7.73,7.73,0,0,1-2.9,2.51c-.11.8-.19,1.67-.24,2.74-.17,3.17-.35,6.32-.5,8.7l-.06.94c-.34,5.79-.54,11.49-.59,16.93a39.5,39.5,0,0,0,.53,7.6,18,18,0,0,0,2.89,7.1,20.38,20.38,0,0,0,4.92,5,21.51,21.51,0,0,0,3.1,1.85,20.76,20.76,0,0,0,3.42,1.3,24.58,24.58,0,0,0,6.77.93c.75,0,1.51,0,2.26-.1a23.11,23.11,0,0,0,4.37-.84l.2-.06A25.8,25.8,0,0,1,87,75.6h.13a.8.8,0,0,1,.73.43,1,1,0,0,1-.13,1.15,9.15,9.15,0,0,1-1.67,1.44,8.89,8.89,0,0,1-2,1,23.21,23.21,0,0,1-4.36.94,31.18,31.18,0,0,1-3.87.26A27.13,27.13,0,0,1,70.55,80.27Zm43.66-27.18a1.56,1.56,0,0,1-.88-.28,1.18,1.18,0,0,1-.52-.7l0-.13v0a1.47,1.47,0,0,1,.45-1.51,13.48,13.48,0,0,1,3.11-1.93l.23-.1a7.11,7.11,0,0,1,2.48-.69,2.33,2.33,0,0,1,.59.08.59.59,0,0,1,.14.06.54.54,0,0,1,.26.71.43.43,0,0,1,0,.07h.26l0,.06a2.75,2.75,0,0,1-.75.65l-.14.08a1.6,1.6,0,0,1,.68,2,1.56,1.56,0,0,1-.75.79,2.64,2.64,0,0,1-.91.22h0a4.83,4.83,0,0,1-1-.48l-.09-.06a1.12,1.12,0,0,1-.34-.38l-.32.38a7,7,0,0,1-1,1.08c-.39.31-1.42.1-1.42.1h.07Z"/></g></g><g id="face_Eating_Happy" data-name="face Eating Happy"><g id="_Ink-3-4" data-name=" Ink-3-4"><path id="Trazado_2090" data-name="Trazado 2090" d="M78.88,65.49A2.89,2.89,0,0,1,78,64.16a6.39,6.39,0,0,1-.36-1.6v-.12s0-.1,0-.15v-.07a6.08,6.08,0,0,1-2.15.79,6.27,6.27,0,0,1-1.14.1,7.6,7.6,0,0,1-1.84-.23,4,4,0,0,1-1.53-.74,1.81,1.81,0,0,1-.57-.84,1.11,1.11,0,0,1,.17-.95,1.7,1.7,0,0,1,1.37-.73,1.3,1.3,0,0,1,.55.12l.8.42a5.82,5.82,0,0,0,3.18.91A5.28,5.28,0,0,0,77.6,61,7.33,7.33,0,0,1,78,59.31a9,9,0,0,1,1-1.7c.82-1.1,1.36-1.33,1.68-1.33a.68.68,0,0,1,.56.34.09.09,0,0,1,0,.12.11.11,0,0,1-.1.06.11.11,0,0,1-.09,0h0l0,0c-.29,0-.9,1.37-1,1.53l0,.11a6.14,6.14,0,0,0-.37,1.79,6.24,6.24,0,0,0,.17,1.73,3.48,3.48,0,0,0,.31.87,1.94,1.94,0,0,0,.53.64l0,0a1.22,1.22,0,0,1,.48.7,1.26,1.26,0,0,1-.07.74,1.51,1.51,0,0,1-1.36.93A1.33,1.33,0,0,1,78.88,65.49ZM70.5,54a3.76,3.76,0,0,1-1.19-2.4A3.42,3.42,0,0,1,70,49.11a3.46,3.46,0,0,1,1.12-.92,4.9,4.9,0,0,1,1.66-.54H73a.64.64,0,0,1,.42.12.67.67,0,0,1,.22.28.37.37,0,0,1-.12.45,6.51,6.51,0,0,0-1.41,1A3.11,3.11,0,0,0,71.13,51a1.94,1.94,0,0,0,.44,1.67,2.17,2.17,0,0,0,1.56.62,4.29,4.29,0,0,0,1.92-.54,16.48,16.48,0,0,0,1.6-1h0l.17-.12a1,1,0,0,1,.52-.15,1.13,1.13,0,0,1,.66.24,1.2,1.2,0,0,1,.43.56.92.92,0,0,1,.06.57.9.9,0,0,1-.36.5,11.15,11.15,0,0,1-2.55,1.3,6.72,6.72,0,0,1-2.17.4h0A4.17,4.17,0,0,1,70.5,54ZM90.31,46.6a6,6,0,0,0-1.16-1.85,3.12,3.12,0,0,0-2-1h-.22a3.14,3.14,0,0,0-1.77.58,3,3,0,0,0-.69.81,2.17,2.17,0,0,1-.86.89,1.23,1.23,0,0,1-.53.11,1.18,1.18,0,0,1-.5-.1.74.74,0,0,1-.36-.34,1.35,1.35,0,0,1-.14-.86,2.07,2.07,0,0,1,.33-.83,4.76,4.76,0,0,1,1.4-1.32l.08-.05A4.89,4.89,0,0,1,85.23,42a5,5,0,0,1,1.49-.22,4.54,4.54,0,0,1,.82.07,4.59,4.59,0,0,1,1.87.77,4.2,4.2,0,0,1,1.33,1.45,2.82,2.82,0,0,1,.36,1.27,2.38,2.38,0,0,1-.35,1.3.22.22,0,0,1-.18.1A.28.28,0,0,1,90.31,46.6Zm-26.85-.24a1.36,1.36,0,0,1-.76-.2,1,1,0,0,1-.47-.62A2.91,2.91,0,0,1,63,42.8a5.09,5.09,0,0,1,3.66-1.71h.28a4,4,0,0,1,1.73.52A4.09,4.09,0,0,1,70,42.76a3.12,3.12,0,0,1,.55,1.3,1.3,1.3,0,0,1-.37,1.27.24.24,0,0,1-.18.07.31.31,0,0,1-.18-.07,3.2,3.2,0,0,1-.6-.67,4.77,4.77,0,0,0-.51-.6,2.93,2.93,0,0,0-1.75-.76h-.12a2,2,0,0,0-.8.17,2.05,2.05,0,0,0-.65.45,2.09,2.09,0,0,0-.52,1.16c0,.15-.07.3-.12.46a1.09,1.09,0,0,1-.49.62,1.52,1.52,0,0,1-.78.21ZM93.34,42A3.27,3.27,0,0,1,92.28,41c-.08-.09-.15-.18-.23-.26a4.88,4.88,0,0,0-1.78-1.15,9.3,9.3,0,0,0-2.55-.55,9.36,9.36,0,0,1-2.47-.51,1.18,1.18,0,0,1-.8-1.22,1.65,1.65,0,0,1,.35-.9,1.69,1.69,0,0,1,.84-.57,4.43,4.43,0,0,1,1.25-.17,8,8,0,0,1,2.9.63,9.86,9.86,0,0,1,2.44,1.39,6.59,6.59,0,0,1,1.61,2,1.86,1.86,0,0,1,0,2.23.33.33,0,0,1-.25.1.65.65,0,0,1-.2,0Zm-30.23-1.6a1.41,1.41,0,0,1-.92-.34,1.2,1.2,0,0,1-.42-.84,2,2,0,0,1,.59-1.45,6.83,6.83,0,0,1,1.3-1.1l.1-.07a6.74,6.74,0,0,1,1.64-.8A8.93,8.93,0,0,1,68,35.38a6.74,6.74,0,0,1,3,.68,2.11,2.11,0,0,1,1,.87.3.3,0,0,1-.11.42h0a2.54,2.54,0,0,1-.54.09c-.07,0-.12,0-.13,0s0,0,0,0l-.69-.1a6,6,0,0,0-1-.12h0a6.61,6.61,0,0,0-2.2.38,6,6,0,0,0-1.76,1,5.54,5.54,0,0,0-.67.7,3.73,3.73,0,0,1-1,1,1.49,1.49,0,0,1-.66.16Z"/></g></g></g></g></g></g><g id="Grupo_84" data-name="Grupo 84"><path id="Trazado_2091" data-name="Trazado 2091" class="cls-1" d="M149.1,419.52l4.15-.66-.16-.05a5,5,0,0,0,1.54,1.05,2.16,2.16,0,0,0,2-.07,2.93,2.93,0,0,0,1-1.13,1.66,1.66,0,0,0,.19-.48,8,8,0,0,0,.13-1.9c0-2.41-.27-4.78-.48-7.16-.47-4.75-1.06-9.48-1.69-14.2-1.27-9.44-2.73-18.84-4.26-28.24l-1.19-7-.15-.89-.19-.91-.36-1.75-.74-3.5c-1-4.66-2.08-9.3-3.17-13.94s-2.27-9.26-3.56-13.86c-.65-2.3-1.32-4.6-2.06-6.89-.37-1.14-.79-2.28-1.23-3.42-.23-.57-.46-1.14-.74-1.71A8.32,8.32,0,0,0,137,311l.2.33-3.38-8.8q-1.68-4.41-3.28-8.84c-1.08-3-2.12-5.93-3.1-8.91-.49-1.49-1-3-1.35-4.51-.21-.76-.4-1.52-.55-2.29-.06-.38-.13-.77-.16-1.16a2.16,2.16,0,0,1,.14-1.15,2.19,2.19,0,0,0-.24,1.15,9.4,9.4,0,0,0,0,1.19c.08.79.2,1.57.34,2.35.28,1.56.64,3.1,1,4.64.75,3.07,1.63,6.1,2.52,9.13s1.87,6,2.85,9,2,6,3,9l0,.09.16.24a8.09,8.09,0,0,1,.69,1.3c.22.5.42,1.05.62,1.59.38,1.09.73,2.2,1.07,3.33.68,2.25,1.29,4.53,1.88,6.82,1.18,4.59,2.25,9.21,3.34,13.83s2.07,9.27,3.1,13.9l.76,3.48.37,1.74.18.83.15.88,1.25,7,5,28.07c.82,4.68,1.63,9.37,2.36,14,.36,2.35.73,4.7.92,7a8.26,8.26,0,0,1,0,1.65,2.31,2.31,0,0,1-.77,1.27,1.59,1.59,0,0,1-1.45.12,4.6,4.6,0,0,1-1.46-.83l-.09-.07-.08,0Z"/></g><g id="Grupo_85" data-name="Grupo 85"><path id="Trazado_2092" data-name="Trazado 2092" class="cls-1" d="M128.73,419.52,119.85,418l.15.09a1.2,1.2,0,0,1,.12-1.7,1.27,1.27,0,0,1,.29-.18,3.36,3.36,0,0,1,.75-.27l.27-.07-.07-.27c-2.47-10.17-4.94-20.35-7.57-30.49-1.31-5.06-2.63-10.13-4-15.19-.7-2.52-1.4-5.05-2.13-7.57-.36-1.26-.76-2.52-1.13-3.78s-.81-2.54-1.26-3.76L94.65,325.29,83.92,295.78l0-.06,0-.06-6.14-13-3.19-6.76.43,7.46q.54,9.41,1.23,18.8c.23,3.13.48,6.26.78,9.4q.21,2.35.51,4.71c.1.79.18,1.57.32,2.37.07.4.11.79.2,1.2l.27,1.26,0-.1q2.19,11.29,4.23,22.64c1.36,7.56,2.73,15.12,3.78,22.71.14.94.27,1.89.37,2.83l.16,1.42.1,1.38c.09,1.87.07,3.83.1,5.74,0,3.83,0,7.67,0,11.51s-.06,7.68-.2,11.51c-.07,1.92-.16,3.83-.32,5.74-.08,1-.17,1.9-.31,2.84-.07.47-.15.94-.26,1.39a5.81,5.81,0,0,1-.21.63,2,2,0,0,1-.14.25c-.06.07-.06,0,0,.06h-.16c-1.84.67-3.7,1.31-5.58,1.86-1,.27-1.9.53-2.86.73a9,9,0,0,1-2.92.21,8.8,8.8,0,0,0,2.94-.08c1-.15,2-.36,2.9-.58q2.88-.7,5.7-1.63H85.4a.59.59,0,0,0,.58-.22,1.41,1.41,0,0,0,.24-.36,6.34,6.34,0,0,0,.26-.73,14.1,14.1,0,0,0,.33-1.43c.18-1,.31-1.92.42-2.88.23-1.91.39-3.83.53-5.76.28-3.84.46-7.68.62-11.53s.23-7.69.31-11.54c0-1.93.1-3.82,0-5.8l-.06-1.48L88.55,369c-.08-1-.18-1.93-.3-2.89-.92-7.67-2.15-15.26-3.37-22.86s-2.59-15.16-4-22.73l0-.1-.21-1.05c-.07-.35-.11-.74-.17-1.12-.12-.74-.2-1.52-.28-2.29-.18-1.54-.32-3.09-.46-4.64-.28-3.11-.51-6.23-.74-9.35q-.66-9.36-1.16-18.75l-2.76.7,6.16,13,0-.12,10.89,29.45,11,29.41c.47,1.23.87,2.43,1.3,3.66s.81,2.47,1.18,3.72c.78,2.49,1.53,5,2.27,7.5q2.23,7.51,4.39,15.06c2.86,10.06,5.77,20.12,8.58,30.2l.2-.34a4.06,4.06,0,0,0-.87.35,1.84,1.84,0,0,0-.71.7,1.5,1.5,0,0,0-.15,1,2.21,2.21,0,0,0,.35.89l0,.08h.1Z"/></g><g id="Grupo_86" data-name="Grupo 86"><path id="Trazado_2093" data-name="Trazado 2093" class="cls-1" d="M52,414.11a5.37,5.37,0,0,1-1.65.05,2.44,2.44,0,0,1-1.44-.64,2.21,2.21,0,0,1-.54-1.41,3,3,0,0,1,0-.79c0-.26.06-.54.11-.82.32-2.24.48-4.48.62-6.72.27-4.48.38-9,.39-13.45a249.31,249.31,0,0,0-1.39-26.9,194.21,194.21,0,0,0-4.88-26.54c-1.09-4.36-2.3-8.69-3.58-13s-2.7-8.56-4.21-12.81l0,.08c-1-3.69-2.15-7.37-3.23-11.05s-2.19-7.37-3.3-11.05-2.24-7.34-3.37-11-2.32-7.33-3.51-11q1.26,5.64,2.59,11.24c.9,3.73,1.79,7.47,2.72,11.2s1.84,7.46,2.8,11.17,1.89,7.45,2.87,11.16v0l0,.06c1.4,4.2,2.68,8.48,3.9,12.76s2.4,8.58,3.45,12.9,2.07,8.66,2.91,13,1.54,8.73,2.13,13.14c1.1,8.82,1.82,17.71,2.22,26.63.2,4.45.33,8.91.36,13.37,0,2.23,0,4.47-.14,6.68,0,.27,0,.55-.05.85a4.32,4.32,0,0,0,0,.88,2.6,2.6,0,0,0,.79,1.59,2.76,2.76,0,0,0,1.63.57A5.27,5.27,0,0,0,52,414.11Z"/></g><g id="Grupo_87" data-name="Grupo 87"><path id="Trazado_2094" data-name="Trazado 2094" class="cls-1" d="M139.55,241.93l3.18.12h.08l0-.07a54,54,0,0,0,2.32-5.75c.69-1.95,1.3-3.93,1.88-5.91,1.13-4,2.11-8,2.88-12.07.37-2,.75-4.07,1-6.12s.59-4.1.84-6.15.4-4.12.61-6.18l.43-6.2v-.12q-.61-12.58-1.38-25.15c-.56-8.36-1.12-16.79-2-25.12s-1.36-16.74-2.7-25.11c-.34-2.09-.73-4.18-1.23-6.27-.26-1-.54-2.09-.89-3.13a16.25,16.25,0,0,0-1.37-3.11c-.16-.26-.34-.51-.52-.77a8.67,8.67,0,0,0-.65-.71c-.41-.37-.82-.75-1.26-1.1a18.82,18.82,0,0,0-2.77-1.85,21.15,21.15,0,0,0-3-1.35A16.73,16.73,0,0,0,131.8,99l.13,0-13-2.94-13-2.85.23.63a9,9,0,0,0,1.25-3,4.46,4.46,0,0,0-.44-3.24,6.55,6.55,0,0,0-.52-.66,5.46,5.46,0,0,0-.64-.53,5,5,0,0,0-1.5-.61,3.33,3.33,0,0,0-1.6,0,2.93,2.93,0,0,0-1.33.82,2.93,2.93,0,0,1,1.36-.71,3.26,3.26,0,0,1,1.52.1,5.1,5.1,0,0,1,1.36.68,5.19,5.19,0,0,1,.53.52,6.58,6.58,0,0,1,.42.61,4,4,0,0,1,.22,2.87,8.21,8.21,0,0,1-1.29,2.7l-.33.47.56.16,12.85,3.54L131.43,101h0l.1,0a15.14,15.14,0,0,1,2.8.79,17.58,17.58,0,0,1,2.66,1.28,16.4,16.4,0,0,1,2.41,1.71c.38.31.73.66,1.08,1a5.72,5.72,0,0,1,.4.46l.35.55a14.35,14.35,0,0,1,1.08,2.67c.3,1,.55,1.94.77,2.94.45,2,.8,4,1.09,6.09,1.15,8.24,1.74,16.6,2.44,25L147.7,156l.94,12.54,1.8,25.1v-.12l-.25,6.14c-.15,2-.25,4.09-.44,6.13-.35,4.08-.79,8.15-1.4,12.21s-1.32,8.1-2.25,12.09a92.84,92.84,0,0,1-3.48,11.8l.11-.07Z"/></g><g id="Grupo_88" data-name="Grupo 88"><path id="Trazado_2095" data-name="Trazado 2095" class="cls-1" d="M122.37,241.93q-.3-12.13-.1-24.27.09-6.07.44-12.12a84.38,84.38,0,0,1,1.38-12v-.12c.06-6.51,0-13-.26-19.52-.14-3.25-.33-6.51-.65-9.77-.16-1.62-.34-3.25-.61-4.89a20.14,20.14,0,0,0-1.31-4.94l-1-2.16-.7,2.28a73.75,73.75,0,0,0-2,8.43q-.8,4.23-1.26,8.51a136.87,136.87,0,0,0-.8,17.18c.07,5.74.6,11.47,1.1,17.12l.75,8.5.35,4.24.15,2.12.07,1,0,.49v.06a.3.3,0,0,1,0-.1c0,.23-.21-.38,1-.9a1.23,1.23,0,0,1,1.3.54c.18.32.07.13.12.23l0,.1s0,0,0,0l.14-2.27-2.11,1.43L75.13,250.34l1.5,0-21-12.77-.88-.54-.79.66L46.33,244l-7.62,6.39h1.82l-17.21-14-1.29-1-.8,1.44-3.17,5.74,1.63-.64L6.31,237.49l-1.47.43.1-.11.07,0a.4.4,0,0,1,.18-.07.53.53,0,0,1,.35,0s0,0,0,0a.5.5,0,0,0-.07-.08.81.81,0,0,1-.17-.24,6.44,6.44,0,0,1-.4-.73l-.34-.88a33.23,33.23,0,0,1-1-3.93c-.26-1.36-.49-2.73-.68-4.11a23.62,23.62,0,0,1-.3-4,43.1,43.1,0,0,1,1.05-8.15c.57-2.71,1.31-5.41,2.12-8.09,1.64-5.35,3.62-10.62,5.74-15.84s4.38-10.38,6.82-15.43l.06-.13,0-.12q2.68-12.41,5.09-24.86c1.58-8.3,3.11-16.62,4.26-25l.39-3.18c.09-1.05.2-2.08.34-3.12a61.23,61.23,0,0,1,1.08-6.17,33.33,33.33,0,0,1,1.89-5.91A13.77,13.77,0,0,1,33,105.08a6,6,0,0,1,2.14-1.93,53.5,53.5,0,0,1,5.91-2q3-.9,6.09-1.7,6.12-1.61,12.3-3l.19,0v-.19l0-2.55-.07.16,3.77-3.24-.09,0,3.82,0h0l0,0L69.55,86l-2.61,4.41.06,0-3.82-.06h0l0,0-3.87,3.13-.07,0v.1l0,2.55.19-.23q-6.21,1.27-12.38,2.74c-2.06.49-4.11,1-6.16,1.57a53,53,0,0,0-6.11,2,7.2,7.2,0,0,0-2.58,2.2,16,16,0,0,0-1.67,2.82,35.13,35.13,0,0,0-2.09,6.1,64,64,0,0,0-1.25,6.28c-.16,1-.29,2.12-.39,3.17l-.42,3.11c-1.25,8.32-2.89,16.61-4.59,24.87s-3.51,16.51-5.4,24.73l.09-.25c-2.55,5.1-4.89,10.26-7.1,15.5s-4.2,10.57-5.9,16c-.85,2.73-1.61,5.49-2.22,8.3A46.6,46.6,0,0,0,0,223.72a26.15,26.15,0,0,0,.32,4.42C.5,229.56.73,231,1,232.4a35.35,35.35,0,0,0,1.06,4.29l.43,1.09a6.93,6.93,0,0,0,.61,1.14,3,3,0,0,0,.46.6l.3.3c.15.11.31.21.46.3a2.17,2.17,0,0,0,1.37.22,2.34,2.34,0,0,0,.68-.26l.28-.19a2.65,2.65,0,0,0,.29-.29L5.47,240l13.36,4.49,1.07.36.56-1,3.2-5.72-2.09.4,17.16,14,.91.75.91-.76,7.65-6.35,7.63-6.38-1.67.13,21,12.68.77.46.73-.5,43.22-29.37-2-.85a1.76,1.76,0,0,0,.06.25v.05l0,.11c0,.1-.06-.06.13.26a1.22,1.22,0,0,0,1.32.55c1.19-.52,1-1.15,1-.92l0-.13,0-.12v0c0-.21,0-.28,0-.39l0-.57-.07-1.09-.16-2.14-.37-4.26-.79-8.51c-.56-5.69-1.17-11.29-1.31-16.94a132.84,132.84,0,0,1,.57-16.92c.26-2.81.64-5.61,1.12-8.38a76.62,76.62,0,0,1,1.83-8.21l-1.66.13a18.88,18.88,0,0,1,1.21,4.43c.28,1.57.48,3.17.66,4.77.35,3.21.58,6.44.77,9.67s.3,6.47.42,9.71.18,6.49.21,9.73v-.12a85.52,85.52,0,0,0-1.14,12.17q-.23,6.08-.17,12.15c0,4,.08,8.1.22,12.15S122.15,237.89,122.37,241.93Z"/></g></g></svg>