<svg id="Capa_1" data-name="Capa 1" xmlns="http://www.w3.org/2000/svg" viewBox="0 0 2500 2500"><defs><style>.cls-1{fill:#fff;}</style></defs><title>fiverr-1</title><circle class="cls-1" cx="1250" cy="1250" r="1250"/><path d="M2277.5,1016.87c0-41.25-32.5-75-73.75-75-40,0-73.13,33.13-73.13,75,0,41.26,32.51,75,73.13,75C2245,1092.5,2277.5,1058.75,2277.5,1016.87Zm-73.75,54.38c-28.12,0-50-23.75-50-54.38,0-30,21.88-53.75,50-53.75,28.75,0,51.25,23.75,51.25,53.75C2255,1047.5,2232.5,1071.25,2203.75,1071.25Z"/><path d="M2223.75,1023.12c3.75-1.24,11.87-6.87,11.87-18.75,0-14.37-9.37-23.12-25-23.12H2177.5v70.63h21.87v-23.75H2205l10,23.75h23.75l-13.13-24.38c-1.25-3.75-1.87-4.37-1.87-4.37Zm-18.75-10h-5.63V996.25H2205c5,0,7.5,2.5,7.5,8.12C2213.13,1010,2210,1013.12,2205,1013.12Z"/><circle cx="653.75" cy="1018.75" r="56.25"/><path d="M712.5,1111.87H455V1095c0-33.13,33.13-33.75,50-33.75,19.38,0,28.13,1.88,28.13,1.88V971.88a323.27,323.27,0,0,0-41.25-2.5c-53.75,0-153.13,15-153.13,128.75v14.37H291.88v84.38h46.87V1375H295v84.38H506.25V1375H455V1196.88H595.63V1375H551.88v84.38H756.25V1375H712.5Zm437.5,0H965.63v84.38h31.25l-40,125c-7.5,20.62-9.38,45.62-9.38,45.62H945s-1.87-25-9.37-45.62l-40-125h31.25v-84.38H742.5v84.38h38.75l96.25,262.5H1015l96.25-262.5H1150Zm341.25,159.38c0-96.25-58.12-167.5-161.25-167.5-111.87,0-180.62,79.37-180.62,181.25,0,92.5,66.87,181.87,190.62,181.87,93.75,0,149.38-48.75,149.38-48.75l-42.5-80.62s-46.25,33.13-97.51,33.13c-36.87,0-71.87-19.38-80.62-63.75h220c-.63-.63,2.5-24.38,2.5-35.63Zm-220-28.75c6.25-26.88,22.5-51.25,55.63-51.25,25.62,0,43.75,23.75,43.75,51.25Zm713.13-50.63h-1.26a107,107,0,0,0,1.26-17.5v-18.12c0-31.88-17.5-44.38-49.38-44.38H1825.63v84.38h32.5c9.37,0,15,5.62,15,15V1375h-46.88v84.38h210.63V1375H1990v-50.63c0-63.12,31.25-104.37,95.63-104.37a133.24,133.24,0,0,1,23.75,1.88V1107.5a88.24,88.24,0,0,0-13.76-1.25c-52.5-.63-96.25,38.13-111.24,85.62Zm-308.13,0H1675a107.86,107.86,0,0,0,1.25-17.5v-18.12c0-31.88-17.5-44.38-49.37-44.38H1517.5v84.38H1550c9.38,0,15,5.62,15,15V1375h-46.87v84.38h210.62V1375h-46.87v-50.63c0-63.12,31.25-104.37,95.62-104.37a133.24,133.24,0,0,1,23.75,1.88V1107.5a88.2,88.2,0,0,0-13.75-1.25c-53.13-.63-96.88,38.13-111.25,85.62Z"/></svg>