<svg id="Capa_1" data-name="Capa 1" xmlns="http://www.w3.org/2000/svg" viewBox="0 0 2500 2432"><defs><style>.cls-1{fill:#fff;}</style></defs><title>github-icon-1</title><circle cx="1254.71" cy="1287.27" r="1140.4"/><path class="cls-1" d="M1250,4.33C580.88,4.33,38.29,546.82,38.29,1216.05c0,535.38,347.19,989.58,828.65,1149.8,60.55,11.22,82.79-26.28,82.79-58.29,0-28.89-1.13-124.35-1.65-225.6-337.11,73.3-408.24-143-408.24-143C484.72,1798.93,405.3,1761.7,405.3,1761.7c-109.93-75.21,8.29-73.67,8.29-73.67,121.68,8.55,185.75,124.87,185.75,124.87C707.41,1998.15,882.81,1944.59,952,1913.64c10.87-78.33,42.28-131.78,76.93-162C759.75,1721,476.82,1617.06,476.82,1152.76c0-132.28,47.33-240.38,124.85-325.24-12.58-30.52-54-153.76,11.74-320.67,0,0,101.75-32.56,333.31,124.21,96.64-26.85,200.31-40.31,303.28-40.77,103,.46,206.72,13.92,303.56,40.77,231.28-156.77,332.89-124.21,332.89-124.21,66,166.91,24.46,290.15,11.88,320.67,77.69,84.86,124.7,193,124.7,325.24,0,465.4-283.46,567.88-553.28,597.88,43.46,37.6,82.18,111.35,82.18,224.39,0,162.13-1.4,292.62-1.4,332.53,0,32.24,21.81,70,83.24,58.13,481.19-160.41,827.94-614.44,827.94-1149.64C2461.71,546.82,1919.2,4.33,1250,4.33"/><path class="cls-1" d="M492.12,1730.45c-2.66,6-12.15,7.82-20.77,3.7-8.79-4-13.73-12.17-10.88-18.21,2.61-6.2,12.1-7.93,20.87-3.76,8.81,3.94,13.83,12.23,10.78,18.27m59.6,53.18c-5.78,5.36-17.08,2.87-24.75-5.6-7.92-8.44-9.4-19.73-3.54-25.18s16.92-2.85,24.86,5.61,9.47,19.77,3.42,25.18m40.9,68c-7.43,5.16-19.57.32-27.07-10.46s-7.42-23.69.16-28.87,19.48-.52,27.08,10.17c7.42,11,7.42,23.88-.18,29.17m69.16,78.8c-6.64,7.31-20.78,5.36-31.14-4.64-10.59-9.77-13.54-23.64-6.88-31s20.94-5.28,31.38,4.64c10.52,9.75,13.73,23.72,6.65,31m89.36,26.61c-2.92,9.48-16.55,13.8-30.27,9.77S698.19,1951.59,701,1942s16.54-14,30.36-9.74c13.69,4.14,22.68,15.17,19.83,24.83m101.71,11.28c.34,10-11.3,18.28-25.7,18.46s-26.21-7.77-26.37-17.6c0-10.09,11.38-18.3,25.86-18.54s26.21,7.75,26.21,17.68m99.92-3.83c1.73,9.75-8.29,19.76-22.59,22.42-14.06,2.57-27.08-3.45-28.88-13.11-1.75-10,8.46-20,22.49-22.6,14.34-2.49,27.16,3.37,29,13.29"/></svg>