<svg xmlns="http://www.w3.org/2000/svg" width="19.127" height="19.127" viewBox="0 0 19.127 19.127"><defs><style>.a{fill:rgba(223,0,0,0.66);}</style></defs><path class="a" d="M301.576,13.676a.924.924,0,0,1-1.339,0L297.463,10.9l-2.773,2.773a.924.924,0,0,1-1.339,0,.924.924,0,0,1,0-1.339l2.773-2.773L293.351,6.79a.924.924,0,0,1,0-1.339.924.924,0,0,1,1.339,0l2.773,2.773,2.773-2.773a.947.947,0,0,1,1.339,1.339L298.8,9.563l2.773,2.773A.924.924,0,0,1,301.576,13.676ZM297.463,0a9.563,9.563,0,1,0,9.563,9.563A9.592,9.592,0,0,0,297.463,0Z" transform="translate(-287.9)"/></svg>