<svg id="Capa_1" data-name="Capa 1" xmlns="http://www.w3.org/2000/svg" viewBox="0 0 3365 3365"><defs><style>.cls-1{fill:#fff;}</style></defs><title>instagram-2-1</title><circle class="cls-1" cx="1682.5" cy="1682.5" r="1682.5"/><path d="M1074.71,2907c-146.68-6.67-226.36-31.08-279.36-51.75-70.22-27.34-120.29-59.89-173-112.52S537,2640,509.83,2569.8c-20.67-53-45.08-132.68-51.75-279.36-7.33-158.56-8.79-206.13-8.79-607.83s1.61-449.2,8.72-607.9c6.67-146.68,31.23-226.22,51.75-279.36,27.34-70.22,60-120.29,112.52-173.07S725,537,795.28,509.76c53-20.67,132.67-45.08,279.35-51.75,158.63-7.26,206.28-8.72,607.83-8.72s449.2,1.61,607.91,8.72c146.68,6.67,226.21,31.23,279.35,51.75,70.23,27.2,120.29,59.89,173,112.52s85.18,102.77,112.52,173c20.67,53,45.08,132.67,51.75,279.35,7.26,158.71,8.72,206.21,8.72,607.91s-1.46,449.2-8.72,607.9c-6.67,146.68-31.23,226.36-51.75,279.36-27.34,70.22-59.89,120.29-112.52,172.92s-102.77,85.18-173,112.52c-53,20.67-132.67,45.08-279.35,51.75-158.56,7.26-206.21,8.72-607.91,8.72s-449.2-1.39-607.75-8.72"/><path class="cls-1" d="M1379.69,1687.76c0-168.68,136.7-305.46,305.38-305.46s305.45,136.78,305.45,305.46-136.78,305.45-305.45,305.45-305.38-136.78-305.38-305.45m-165.13,0c0,259.86,210.65,470.5,470.51,470.5s470.5-210.64,470.5-470.5-210.64-470.51-470.5-470.51-470.5,210.63-470.5,470.51m849.68-489.16a110,110,0,1,0,110-109.91h-.05a110,110,0,0,0-109.95,109.91m-749.36,1235c-89.34-4.07-137.9-18.95-170.16-31.52-42.78-16.65-73.31-36.49-105.4-68.54s-52-62.54-68.54-105.32c-12.58-32.25-27.46-80.82-31.52-170.16-4.44-96.58-5.33-125.6-5.33-370.29s1-273.63,5.33-370.29c4.07-89.33,19.06-137.81,31.52-170.16,16.66-42.78,36.49-73.3,68.54-105.39s62.54-52,105.4-68.54c32.25-12.58,80.82-27.46,170.16-31.52,96.58-4.44,125.59-5.33,370.18-5.33s273.62.94,370.29,5.34c89.33,4.07,137.81,19.06,170.15,31.52,42.78,16.58,73.31,36.49,105.4,68.54s51.88,62.62,68.54,105.4c12.58,32.25,27.46,80.82,31.52,170.15,4.44,96.67,5.33,125.6,5.33,370.3s-.89,273.62-5.33,370.29c-4.07,89.33-19,137.89-31.52,170.15-16.66,42.78-36.49,73.31-68.54,105.33s-62.62,51.88-105.4,68.53c-32.25,12.58-80.82,27.46-170.15,31.52-96.59,4.45-125.6,5.33-370.29,5.33s-273.63-.88-370.18-5.33M1307.3,777c-97.55,4.44-164.2,19.91-222.41,42.56C1024.64,843,973.57,874.35,922.57,925.26s-82.29,102-105.68,162.32c-22.65,58.25-38.12,124.86-42.56,222.41-4.52,97.7-5.55,128.93-5.55,377.77s1,280.06,5.55,377.76,19.91,164.17,42.56,222.41c23.39,60.25,54.69,111.42,105.68,162.32s102,82.23,162.32,105.69c58.32,22.65,124.86,38.11,222.41,42.56,97.75,4.44,128.93,5.54,377.77,5.54s280.06-1,377.76-5.54,164.17-19.91,222.41-42.56c60.25-23.46,111.32-54.78,162.32-105.69s82.23-102.07,105.69-162.32c22.65-58.24,38.19-124.86,42.55-222.41,4.45-97.77,5.48-128.93,5.48-377.76s-1-280.07-5.48-377.77c-4.44-97.55-19.9-164.2-42.55-222.41-23.46-60.25-54.78-111.32-105.69-162.32S2345.49,843,2285.32,819.58C2227,796.93,2160.38,781.39,2062.91,777c-97.72-4.47-128.94-5.55-377.73-5.55s-280.1,1-377.85,5.55"/></svg>