<svg id="Capa_1" data-name="Capa 1" xmlns="http://www.w3.org/2000/svg" viewBox="0 0 177.79 480.49"><defs><style>.cls-1{fill:#fff;}</style></defs><title>Jesus</title><g id="Jesus"><g id="_Skin" data-name=" Skin"><path id="Trazado_2052" data-name="Trazado 2052" class="cls-1" d="M1.9,475.54c2.11.5,13.1,4,15.45,3.58,7.18-.44,39.3-9.71,40.43-13.15-.09-1.75.22-5.57-1.76-5.43,2.67-4.58-.35-9.4-2.42-14.08l-.07.14s-.48-.47-.51-.43c-.11-.15-.82-.79-1-.93,0-5.39,0-18-1-23.4.67-.19,15.32-106.66,21.41-154.19,1.31-.19,1.07-2,1.2-3,19.7,9.26,51.09,158.13,52.88,158-.16,3.5.35,6.59,0,10-.53,1.32,1,11.3,1.72,12.07-4.27-.3-3.17,2.14-3.17,2.14-.4,3.05-1.43,9.05-1.48,9.4-1.73,5.7,3.59,10.52,7.33,13,11.25,6,21.21,10.56,34.53,8.21,9.12-1.45,11.93-1.37,10.24-11.21,0-.21-.12-1.16-.12-1.16.8-2-19-15-20.24-16.15a17.6,17.6,0,0,0-3.2-3.42c-1.58-3.12-.7-5.11-2.62-8.23-.74-.7-4.6.36-5.5-1.44-1-2,.18-9.73,0-11.15S135.48,312.22,126,262.58A69.48,69.48,0,0,1,124.53,246c.24-9.61-2.23-14.38-5.64-22.16.71-.3-90.8,2.9-88.87,3.32-1.18,6.4,2.38,195.26,5.35,195.65-.44,2.05,0,6.36-.74,12.95a24.48,24.48,0,0,1-1.45,4.41A48.35,48.35,0,0,1,23,450.2c-6.47,4.57-14.61,7.68-15,8.64-4.22,2.37-5.69,5.59-4.69,9.62C1.85,469.94-.84,475,1.9,475.54Z"/></g><g id="_Shoes" data-name=" Shoes"><path id="Trazado_2053" data-name="Trazado 2053" class="cls-1" d="M11.45,478.11c-2.28-.57-4.79-1.29-6.62-1.82h0c-1.25-.36-2.24-.64-2.74-.76A1.28,1.28,0,0,1,1,474.62a2.93,2.93,0,0,1,0-1.5,8.45,8.45,0,0,1,.61-1.75,10.88,10.88,0,0,1,1.86-2.87,9.12,9.12,0,0,1-.28-2.85,7.07,7.07,0,0,1,.66-2.55,8,8,0,0,1,1.64-2.23,12.81,12.81,0,0,1,2.63-1.93c.15-.41,1.81-1.25,4.1-2.4A87.64,87.64,0,0,0,23,450.37a41.1,41.1,0,0,0,4-3.23c1.08-1,2.15-2.05,3.17-3.17a35,35,0,0,0,3-3.58c.1-.22.19-.44.27-.64,2.9,1.1,5,1.88,6.19,2.32l.81.29A8.49,8.49,0,0,1,43,444.94a21.59,21.59,0,0,0,2.8,3.09,5.38,5.38,0,0,0,3.53,1.53,6.19,6.19,0,0,0,1.91-.25,2.29,2.29,0,0,0,1.15-.76,2,2,0,0,0,.38-1,4,4,0,0,0-.15-1.37h0a1.12,1.12,0,0,1,.18.2h0a2,2,0,0,1,.39.33l.11.1.06-.14.13.28c.24.54.5,1.1.75,1.63a29.42,29.42,0,0,1,2.34,6.07,9.58,9.58,0,0,1,.19,3,7.57,7.57,0,0,1-.33,1.5,7.39,7.39,0,0,1-.67,1.49h.11a1.2,1.2,0,0,1,1,.56,2.69,2.69,0,0,1,.38,1,14.32,14.32,0,0,1,.23,2.92c0,.28,0,.55,0,.78V466c-.13.41-.72.92-1.75,1.52a33.1,33.1,0,0,1-4,1.9c-3.07,1.28-7.25,2.74-12.07,4.23-4.44,1.37-9.13,2.68-13.2,3.67-2,.5-3.86.9-5.4,1.2a31.34,31.34,0,0,1-3.73.55,3.55,3.55,0,0,1-.46,0A27.27,27.27,0,0,1,11.45,478.11Zm143.32-.17c-1.18-.12-2.37-.29-3.55-.51a46.4,46.4,0,0,1-6.83-1.89,69.68,69.68,0,0,1-6.67-2.81c-1.93-.92-4-2-6.77-3.46a22.45,22.45,0,0,1-5.71-5.33c-1.84-2.59-2.38-5.18-1.61-7.71,0-.09.08-.5.18-1.13h0c.3-1.8.92-5.54,1.25-7.89l0-.38a1.49,1.49,0,0,1-.09-1.42,1.35,1.35,0,0,1,.69-.51,4.18,4.18,0,0,1,1.26-.23,17.37,17.37,0,0,1,3.34,2.57l.18.16a12.06,12.06,0,0,0,2.18,1.5,4.18,4.18,0,0,0,1.8.5c.32,0,.65-.25,1-.73a8.85,8.85,0,0,0,.88-1.77,40.61,40.61,0,0,0,1.3-4.19l.23-.84,0-.1a3.63,3.63,0,0,1,1-1.34,14.62,14.62,0,0,1,2-1.53,17.92,17.92,0,0,1,2.39-1.32,8.77,8.77,0,0,1,2.18-.74,10.11,10.11,0,0,0,2.2.18,3.48,3.48,0,0,1,1.88.29,9.24,9.24,0,0,1,1,2.31,16.36,16.36,0,0,1,.44,2.08,12.58,12.58,0,0,0,1.13,3.84l.13.12h0a16.36,16.36,0,0,1,3.08,3.3c.31.3,1.87,1.39,4,2.91h0c3.06,2.14,7.25,5.08,10.62,7.67q2.17,1.65,4.17,3.49a9.23,9.23,0,0,1,1.15,1.27c.26.37.35.64.28.82,0,0,.07.76.11,1.06v.09a23.88,23.88,0,0,1,.45,5.06,7.17,7.17,0,0,1-.27,1.72,4.16,4.16,0,0,1-.62,1.29,4,4,0,0,1-1.25,1.13,7.46,7.46,0,0,1-1.82.76,41.79,41.79,0,0,1-5.44,1l-.49.08-.8.12c-1.21.22-2.42.38-3.6.48s-2.31.16-3.45.16-2.47-.07-3.68-.18Z"/></g><g id="_Ink" data-name=" Ink"><path id="Trazado_2054" data-name="Trazado 2054" d="M14,480.13a29.55,29.55,0,0,1-2.88-.84l-.26-.08c-2.76-.77-5.17-1.5-7.37-2.23a4.88,4.88,0,0,1-2.66-1.63A3.6,3.6,0,0,1,0,472.61a6.93,6.93,0,0,1,.77-2.7,7.65,7.65,0,0,1,1.73-2.23,8.85,8.85,0,0,1-.18-3,9.85,9.85,0,0,1,.8-3,8.91,8.91,0,0,1,1.73-2.55,7.46,7.46,0,0,1,2.59-1.73,3.6,3.6,0,0,1,2.71-1.4,5.84,5.84,0,0,0,2.43-.88,2.55,2.55,0,0,1-1.55-.53,1.25,1.25,0,0,1-.48-1,.89.89,0,0,1,.3-.65,1.22,1.22,0,0,1,.82-.28,1.82,1.82,0,0,1,.46.06,14.54,14.54,0,0,1,1.63.7h0l.86.4,2.84-1.76a3,3,0,0,1-2.11-.88.93.93,0,0,1-.11-.81,1.52,1.52,0,0,1,1.57-.83,10.07,10.07,0,0,1,2.31.4c.43.1.83.2,1.17.26h.09a41.86,41.86,0,0,0,3.66-2.68,5,5,0,0,1-2.05-.73,1.86,1.86,0,0,1-.49-.48.76.76,0,0,1-.13-.47.7.7,0,0,1,.42-.55,2.43,2.43,0,0,1,1.13-.22,8.19,8.19,0,0,1,3,.71l.35-.34a1.69,1.69,0,0,1-.78-.51,1.46,1.46,0,0,1-.33-.92c0-.79-.14-3.27-.29-6.42v0c-.35-7.55-.9-19-.73-20.82l.18-2c.31-3.4.59-6.73.84-9.9.55-6.54,1-13.23,1.42-19.88s.71-13.24,1-19.9.4-13.25.5-19.91.12-13.25.07-19.92-.15-13.25-.33-19.91c-.27-10.42-.36-15.71-.71-19.91-.23-2.82-.22-1.94-1.8-16-.62-5.56-.68-6.24-1.77-16-1.24-11-1.54-13.5-1.77-15.35-.69-5.5-1.33-10-1.77-13,1.22.16,3.07.38,5.31.59,21.48,2,37.43-1,47.06-2.54a296.16,296.16,0,0,1,48.7-3.37h0c.51,1.27,1,2.6,1.4,4s.76,2.64,1.07,4a71.53,71.53,0,0,1,1.36,8.2c.28,2.51.47,5.23.59,8.32.1,2.65.15,5.26.18,8.35l0,3.7c1.64,11.1,3.6,22.34,5.5,33.22v0c1.36,7.76,2.76,15.78,4,23.69,1.43,8.88,2.53,16.67,3.39,23.81,2.09,15.34,4.22,32.86,6,49.33,1,9.08,1.83,17.77,2.56,25.82.78,8.72,1.4,16.68,1.83,23.66a.77.77,0,0,1,0,.3,3.65,3.65,0,0,1,1,.53,1.76,1.76,0,0,1,.62.83,14,14,0,0,1,1.82,4,19.85,19.85,0,0,0,1.1,2.86,8,8,0,0,0,.82,1.29,6.3,6.3,0,0,0,1.13,1.12h.06c.08,0,.17,0,.18.06a.09.09,0,0,1-.05.1c2.46,1.74,5.09,3.35,7.63,4.9,1.9,1.17,3.87,2.37,5.75,3.62.85.61,1.78,1.17,2.68,1.72h0c.94.56,1.9,1.15,2.78,1.79a11.22,11.22,0,0,1,2.34,2.17,5.23,5.23,0,0,1,.85,2.73,6.36,6.36,0,0,1-.11,1.45,7,7,0,0,1-.43,1.44,19.52,19.52,0,0,1,.52,5.54,6.27,6.27,0,0,1-.46,1.86,4.26,4.26,0,0,1-1,1.41,6.12,6.12,0,0,1-1.5,1.07,13,13,0,0,1-2.05.84,59.44,59.44,0,0,1-5.89,1.43l-.59.12a24.85,24.85,0,0,1-3.1.56,25.2,25.2,0,0,1-3,.18,26.64,26.64,0,0,1-2.82-.15c-.9-.1-1.83-.24-2.76-.43a38,38,0,0,1-5.33-1.51,97.34,97.34,0,0,1-10.17-4.55h-.38s-5.35-2.45-8-3.54c-.73-.37-1.49-.71-2.22-1a25.89,25.89,0,0,1-4.75-2.56,6.38,6.38,0,0,1-1.52-1.71,5.59,5.59,0,0,1-.76-2.16,4.06,4.06,0,0,1,.12-1.47,3.87,3.87,0,0,1,.75-1.38,7.71,7.71,0,0,1-.35-4,40.3,40.3,0,0,1,.84-4.87h0c.14-.83.3-1.62.4-2.28l0-.18c0-.21.08-.42.12-.66a9.09,9.09,0,0,1,.75-2.66,3.15,3.15,0,0,1-1-.53,2.8,2.8,0,0,1-.76-1,.89.89,0,0,1-.06-.84c.17-.32,1.14-.59,1.14-.59v.51h-.09l0,0h.06c-3.53-14.59-6.91-30.92-10.48-48.21-3.62-17.53-7.37-35.64-11.52-53-2.24-9.4-4.39-17.69-6.56-25.34-1.18-4.17-2.38-8.18-3.56-11.92-1.25-3.95-2.53-7.73-3.8-11.25-.9-2.12-1.66-4.34-2.46-6.7v1.34c-2.31-6.67-4.7-13.57-10.62-17.53v.05a6.69,6.69,0,0,1-.32,1.32,1.48,1.48,0,0,1-.85.9c-1.51,11.56-3.07,24.76-4.64,39.22-1.44,13.32-2.9,27.75-4.33,42.87-2.55,27.06-5,56.3-6.88,82.32a18.38,18.38,0,0,0-.23,2.77,26.14,26.14,0,0,1-.44,4.59c-.37,1.58-1,2.35-1.92,2.35h-.2a2.76,2.76,0,0,1-.47.2.18.18,0,0,1,.1.09,19.56,19.56,0,0,1,2.25,6c.08.35.16.69.23,1a16.78,16.78,0,0,1,.56,3.51,6.83,6.83,0,0,1-.94,3.48,3.95,3.95,0,0,1,2.44,3.27,4.79,4.79,0,0,1,0,1.31,5.67,5.67,0,0,1-.36,1.28,4.86,4.86,0,0,1-1.57,2.07,64.43,64.43,0,0,1-8.61,4.47,97.63,97.63,0,0,1-10.1,3.71,103.89,103.89,0,0,1-10.56,2.66,77,77,0,0,1-10,1.32l-.54,0A13.37,13.37,0,0,1,14,480.13ZM56.17,461a11.58,11.58,0,0,1-1.8,1.7,21.75,21.75,0,0,1-2.45,1.58c-.87.49-1.86,1-3,1.46s-2.12.9-3.32,1.35c-4.6,1.73-9.87,3.2-14.1,4.37-1.85.51-3.59,1-5,1.43-1,.21-2,.47-3.12.75a30.23,30.23,0,0,1-7.5,1.29,10.73,10.73,0,0,1-4.73-1,16.32,16.32,0,0,1-2.38-.62,13.68,13.68,0,0,1-2.28-1,9,9,0,0,1-1.91-1.44,6.18,6.18,0,0,1-1.3-1.9,22.06,22.06,0,0,0,.09,3l.05.57a1.56,1.56,0,0,0,.39,1.4,3.37,3.37,0,0,0,1.5.52l.17,0c1.92.47,3.86,1.09,5.72,1.7h0c1.88.6,3.82,1.23,5.73,1.69a78.49,78.49,0,0,0,9.3-1.16c3.07-.58,6.1-1.3,9.09-2.18s5.82-1.84,8.79-3c2.73-1,5.56-2.25,8.4-3.57a8.85,8.85,0,0,0,2.37-1.44,5.09,5.09,0,0,0,1.43-1.95,4.54,4.54,0,0,0-.19-3.61Zm117.34,10.13a11.65,11.65,0,0,1-2.6,1.56,12.4,12.4,0,0,1-2.84.86,16.82,16.82,0,0,1-3,.27,22.88,22.88,0,0,1-4-.37,32.52,32.52,0,0,1-3.92-1c-1.19-.36-2.45-.81-3.73-1.33-1.07-.44-2.2-.94-3.35-1.49-8.28-3.43-14.71-5.89-20.83-8a4.4,4.4,0,0,1-1.14.14,9.8,9.8,0,0,1-2.94-.6l-.36-.11-.16-.05a1.86,1.86,0,0,0-.15,1.09,2.7,2.7,0,0,0,.4,1,6.09,6.09,0,0,0,1.58,1.62l.08.05c3.35,1.83,7,3.4,10.49,4.91,2.47,1.07,5,2.17,7.45,3.35,5.63,3,10.63,4.43,15.74,4.43a28,28,0,0,0,4.75-.4,35.14,35.14,0,0,0,5-1.25,15.51,15.51,0,0,0,2.85-.74,4.05,4.05,0,0,0,1.54-1,5.18,5.18,0,0,0,1-3.08c.08-.68.18-1.46.36-2.35h0a13.12,13.12,0,0,1-2.29,2.36ZM54.15,446.45l-.2.05-.12.35v-.13a1.41,1.41,0,0,1,0-.18l-.26.07c0,.25.07.48.1.68a5.36,5.36,0,0,1-1.81,2.27,4.17,4.17,0,0,1-2.39.72,5.83,5.83,0,0,1-2.56-.63,9.48,9.48,0,0,1-2.5-1.8c-1.07,0-2.17.08-3.27.08s-2.3,0-3.47-.08l-1.91-.34-1.5-.16h0a28,28,0,0,1-5.08-.83l-.2.24c2,.87,3.4,1.52,4.3,2s1.29.74,1.26.86-.1.09-.28.09a39.46,39.46,0,0,1-5.58-1.15l-1-.25A30.66,30.66,0,0,1,24,451.4l.32.12a18.86,18.86,0,0,1,6,3.17,19.81,19.81,0,0,1-4.37-.94,25.42,25.42,0,0,0-4-.92c-1.32.87-2.7,1.72-4.11,2.58,3.44,1.2,4.84,1.74,4.82,1.86s0,0-.1,0a26.44,26.44,0,0,1-2.8-.49h.7l-2.73-.54-.31-.06a4.17,4.17,0,0,1-2,.56,4.43,4.43,0,0,0-2,.56l-.05,0a5.84,5.84,0,0,0-.83.63h0c-.47.28-1,.59-1.46.86a3.42,3.42,0,0,1-1.62.44,2.72,2.72,0,0,1-.8-.12A14.78,14.78,0,0,0,6.19,464a5.14,5.14,0,0,0,1.06,5,7.52,7.52,0,0,0,3.31,1.34c.52.12,1.07.24,1.57.41a5.22,5.22,0,0,1,1.42.7,12.5,12.5,0,0,0,2,.16,28.34,28.34,0,0,0,6.48-1l1.72-.4.28-.06c3.89-.92,7.8-2,11.61-3.17,1.2-.49,2.81-1,4.68-1.56A71,71,0,0,0,49,462.25c3.05-1.42,4.75-2.88,5.17-4.48a3.32,3.32,0,0,0-.44-3.31h0c.6-.36.55-.78.52-1.26l0-.23a3.19,3.19,0,0,1,.09-.63h0a40.56,40.56,0,0,1-.16-5.83.14.14,0,0,1,0-.07ZM165.56,471a10.32,10.32,0,0,0,4.51-1.17,7.87,7.87,0,0,0,3.36-2.95,3.61,3.61,0,0,0,.49-1.76,3.49,3.49,0,0,0-.57-1.88,8.39,8.39,0,0,0-2.53-1.93l-.82-.5c-2-1.24-3.9-2.51-5.56-3.6l-1.58-1a39.57,39.57,0,0,1-9.29,2.28h-.15a1.18,1.18,0,0,1-.85-.32,1.08,1.08,0,0,1-.31-.72,1.33,1.33,0,0,1,1.3-1.37h0c1-.08,1.93-.14,2.87-.2h0c1.71-.1,3.49-.21,5.22-.46l-2.57-1.7h0l-.05,0-1.46-1c-2.15.39-4.29,1-6.36,1.52l-1.94.52h-.11a.82.82,0,0,1-.54-.2.73.73,0,0,1-.23-.45.8.8,0,0,1,.11-.54,1,1,0,0,1,.53-.38c2.08-.43,4.22-.66,6.3-.89l.7-.08.66-.08h.39c-.78-.5-1.67-1.07-2.48-1.66a15.37,15.37,0,0,1-2.19-1.92c-2.29.78-4.6,1.48-7.35,2.29l-.34.1a4.87,4.87,0,0,1-1.36.25,1.22,1.22,0,0,1-.65-.15.73.73,0,0,1-.34-.54.83.83,0,0,1,.1-.58,1.1,1.1,0,0,1,.43-.4,4.46,4.46,0,0,1,1.27-.44l1.75-.37c1.68-.35,3.68-.76,5.73-1.12a7.16,7.16,0,0,1-.87-1.61,8.59,8.59,0,0,1-.43-1.73,22,22,0,0,1-.15-3.63h0a26.48,26.48,0,0,0-.1-3.21,8.05,8.05,0,0,0-2.58-.41,9.94,9.94,0,0,0-2.48.33,10.72,10.72,0,0,0-2.35.92,9.53,9.53,0,0,0-2,1.44,7.69,7.69,0,0,0-1.47,1.89,12.76,12.76,0,0,0-1.1,2.58c-.29.93-.51,1.87-.68,2.68l-.09.45c0,.12-.05.26-.08.37a4.06,4.06,0,0,1-1.07,2.45,3.19,3.19,0,0,1-2,.74,1.27,1.27,0,0,1-1.11-.51l-.42,0h.43a3.83,3.83,0,0,1-1.21-.19,4.13,4.13,0,0,1-1-.52A9.89,9.89,0,0,1,129.3,448a13.29,13.29,0,0,0-1.17-1.2,4.51,4.51,0,0,0-1.4-.87,5.38,5.38,0,0,1-.26,1.19c-.06.24-.13.47-.17.68s-.11.63-.17.93v.07a43.68,43.68,0,0,0-1,9.05,4.25,4.25,0,0,0,1.79.92,7.22,7.22,0,0,1,1,.38,1.2,1.2,0,0,1,1-.35,20.7,20.7,0,0,1,5.88,1.56c2.45.91,5.18,2.06,7.58,3.08h0a59.77,59.77,0,0,0,5.73,2.26c1.54.55,3.07,1.2,4.56,1.83a62.21,62.21,0,0,0,6,2.33,24.51,24.51,0,0,0,3.88.89,18.83,18.83,0,0,0,2.6.18h.31Zm-114-22.88a6.82,6.82,0,0,1-.26-.88,2,2,0,0,0,.8.17h.11a4,4,0,0,1-.08.4,5.24,5.24,0,0,1-.57.32h0c.09.23.18.35.26.35s.22-.22.32-.67a4.6,4.6,0,0,0,1.51-1.59c-.05-.43-.15-1.16-.25-1.16s-.14.5-.17,1.5a1,1,0,0,1-.37.62,1.16,1.16,0,0,1-.65.23c0-.14.05-.3.07-.47l-1,.19s0,.08,0,.11a.76.76,0,0,1-.18-.09c-1.2.2-2.45.38-3.7.5a4.88,4.88,0,0,0,.71.44l.07,0a3.53,3.53,0,0,0,1.62.4,4.18,4.18,0,0,0,1.74-.4h0Zm83.28,0h-.09a.78.78,0,0,0,.05.14v-.06l0-.1Zm-5.76-3.34c-.3,0-.6.06-.89.09.2.44.44.89.61.89s.24-.32.28-1Zm-75.37,3.68s-.09-.2-.23-1.13c.07-.14.13-.29.19-.44a8.25,8.25,0,0,1,.05,1.57ZM35.41,122.84a3.1,3.1,0,0,0-1-1,9.32,9.32,0,0,0-1.23-.6h0l-.24-.1-.2-.09a.27.27,0,0,1-.18-.32.45.45,0,0,1,.4-.34h.15c.48,0,1.2.63,1.73,1.22s.79,1,.73,1.17a.09.09,0,0,1-.08.05l-.09,0Z"/></g><g id="_Device" data-name=" Device"><path id="Trazado_2055" data-name="Trazado 2055" class="cls-1" d="M3.22,107.75l9.51,20.07s9.39,2.28,11.2,3.26,1,3.57,1,4.17-1,1.13-1,1.13,2.91,1.54,4.22,2.48A5.84,5.84,0,0,1,30,141l.74-1.79-1.9-2.85.8-3.54s5-6.42,6.15-7a16.14,16.14,0,0,1,3.82-.8l-11.46-19.4Z"/></g><g id="Grupo_73" data-name="Grupo 73"><path id="Trazado_2056" data-name="Trazado 2056" class="cls-1" d="M4.06,110.24a1.72,1.72,0,0,1,.12-2.43,1.74,1.74,0,0,1,1.25-.45,94.72,94.72,0,0,0,14.89-2.14c1-4,2-6.5,3.35-8.35l-.24-.41,2.73-2.1h0a26.12,26.12,0,0,1,8.4-4l8.32-3.92.75-.13c.91-1.48,1.32-3.42,2-5.8a2.12,2.12,0,0,1,3.45-.8c.13-.13.26-.26.4-.38-.12-.7.89-2.7.86-3.37C50,69,52.29,65.53,58,64.23a64.49,64.49,0,0,1,10.85-.11c5.27,1.46,10.46,6.09,9.67,11.66A10.36,10.36,0,0,0,84.33,80c.4,0,.74.67,1,1.77,12.1,3.3,38.19,10.6,39.83,12.62A42.07,42.07,0,0,0,129,98.53l12.72,32.75.54,5.16s-4.94,33.59-7.22,39.11-17,21-17,21q1.19,15.51,2.38,31c-4.63-.11-12.08-.3-21.26-.59-36.31-1.14-34-1.72-39-1.18-6,.64-16.25,2.22-29.53.59-1.67-.21-4.95-.18-7.68-2.37-3.63-2.9-4.19-7.7-4.73-13a51.45,51.45,0,0,1,1.18-17.13L9.18,184.86,8.1,181.39l-.75-6.85,4.12-16.64,1.36.16c-3-1.95-4.6-3.68-4.05-4.91-.45-1.33.37-2.79,0-4.16-.27-1-1-1.4-1.31-2.39-.49-1.38,0-3.24.59-4.65.23-.7-.41-1.47-.59-2.19-.85-3.39,1.09-3.09,2.49-5.35,0,0-.39-1.63-.39-1.62a6.63,6.63,0,0,1,.79-3.6,1.71,1.71,0,0,1,1.67-1,60.84,60.84,0,0,0-2.46-6.43C8,117.87,6.41,113.78,4.06,110.24Z"/></g><g id="_Skin-3" data-name=" Skin-3"><path id="Trazado_2057" data-name="Trazado 2057" class="cls-1" d="M58,75.58c-11,.07-19.26-9-21.15-19.6-2.36-6.8,3.12-28,5.5-36.49l-1.53.74c-2.57-1.41-4.08-4.18-.78-5.42a23.36,23.36,0,0,1-3-5.29C50.33,4.7,61.62-1,76.32,2.17c3.52.62,9.15,1.94,12.41,4.43A21.85,21.85,0,0,1,91.6,9.42c1,1.15,2.47,1.82,3.44,2.94,4.79,7.49,2.62,26.05-.52,33.08,1.49,3.7,1.65,8.64-2.49,11-2,.91-4,.83-5.49-1-.93,4.42-4.1,8.83-8.14,11.84-.65.47-1.66,1.38-2.51,1.16a34,34,0,0,1-8.72,4.4A15.27,15.27,0,0,1,58,75.57"/></g><g id="_Hair" data-name=" Hair"><path id="Trazado_2058" data-name="Trazado 2058" d="M94.54,44.5s-1.39-2.09-3.27-2.09a22.76,22.76,0,0,0-5.17,1.08s.71-5.37.71-7.08-3.06-5.63-3.06-5.63,5.11-4.52,3.06-8.15S79.59,14,73.51,14,56.38,18.7,54.21,18.7s-7.17-4.22-9.43-4C43.1,14.87,42.31,18,42,19.57l-1.13.55c-2.56-1.41-4.08-4.19-.77-5.42a23.36,23.36,0,0,1-3-5.29C50.38,4.59,61.68-1.12,76.38,2.05c3.52.63,9.14,2,12.41,4.43a21.25,21.25,0,0,1,2.86,2.83c1,1.15,2.47,1.82,3.45,2.94,4.6,7.21,2.76,24.68-.17,32.25Z"/></g><g id="Path"><path id="Trazado_2059" data-name="Trazado 2059" d="M42.57,69.9a28,28,0,0,1-6.86-13.84c-1.14-5.92-.36-11.9.85-17.74l.08-.39c1.18-5.59,2.56-11.14,4-16.66a1.15,1.15,0,0,1-.41-.17c-1.49-1-3.29-2.31-3.25-4.29a3.26,3.26,0,0,1,.46-1.61,3,3,0,0,1,.88-.93,22.94,22.94,0,0,1-2.5-4.69.84.84,0,0,1,.06-.74,1.16,1.16,0,0,1,.59-.5l3.21-1.18,6.92-2.53.82-.3c3-1.1,5.94-2.19,9-3A46.28,46.28,0,0,1,76.51.9,43.32,43.32,0,0,1,85.6,3.42a18,18,0,0,1,3.81,2.12A18.85,18.85,0,0,1,92.06,8.1l.15.16.22.25a10.66,10.66,0,0,0,1.63,1.37,11.25,11.25,0,0,1,1.85,1.6,9.15,9.15,0,0,1,1.86,3.82A48.38,48.38,0,0,1,98.84,25a51.16,51.16,0,0,1-3.08,20.32,1.46,1.46,0,0,1,.07.19,11.81,11.81,0,0,1,.39,7.15,7.09,7.09,0,0,1-3.71,4.71,7.22,7.22,0,0,1-3.24.67,4.12,4.12,0,0,1-2.13-.62,21,21,0,0,1-4.4,7.32,25.72,25.72,0,0,1-3.65,3.35l-.12.09a6.68,6.68,0,0,1-2.36,1.31,1.61,1.61,0,0,1-1-.09,1.56,1.56,0,0,1-.72-.65,1.09,1.09,0,0,1-.15-.56,1,1,0,0,1,.16-.55,1,1,0,0,1,.46-.4,1.08,1.08,0,0,1,.59,0,1.08,1.08,0,0,0,.31,0,2.45,2.45,0,0,0,1.16-.68l.33-.27.18-.13a25.48,25.48,0,0,0,3.31-3,35.91,35.91,0,0,0,4.5-6.25l.35-.58c0-.05-.05-.09-.07-.14a1.08,1.08,0,0,1-.08-.59,1.1,1.1,0,0,1,.22-.56,1,1,0,0,1,.48-.34.92.92,0,0,1,.57,0l.57.2a5.38,5.38,0,0,0,1.89.44,3.88,3.88,0,0,0,2.21-.74c1.59-1.13,2-3.33,2-5.15a7.12,7.12,0,0,0-1.79-5.16,3.54,3.54,0,0,0-2.48-.94,4.54,4.54,0,0,0-2.64,1,4.94,4.94,0,0,0-.44.36.53.53,0,0,1-.23.24h0l-.28.33.06-.26H86a.55.55,0,0,1-.34-.2.56.56,0,0,1-.1-.36c0-.9.18-1.78.3-2.67A21.55,21.55,0,0,0,86.13,38a8.37,8.37,0,0,0-.65-3.08,8.62,8.62,0,0,0-.8-1.42l-.52-.63a6.59,6.59,0,0,1-.7-.88,1.92,1.92,0,0,1-.29-1.4,3.77,3.77,0,0,1,.77-1.5l.22-.3a9.67,9.67,0,0,0,1.58-2.93,6.08,6.08,0,0,0-1.32-5.38c-2.84-3.93-7.5-5.12-12.14-5.16a29,29,0,0,0-7.7,1,34.68,34.68,0,0,0-5.32,2.07c-.61.27-1.22.55-1.85.81a8.57,8.57,0,0,1-3.89.86A6.91,6.91,0,0,1,50,18.66c-.26-.17-.55-.39-.86-.63a11.22,11.22,0,0,0-2.91-1.77,2.32,2.32,0,0,0-1.66,0,1.2,1.2,0,0,1,0,.5c-1.8,6-3.36,12.09-4.78,18.2-1.35,5.82-2.66,11.79-2.09,17.8A26.82,26.82,0,0,0,43,66.54a18.88,18.88,0,0,0,18.59,7.37,22.35,22.35,0,0,0,6.88-2.66l.29-.16a.6.6,0,0,1,.39-.07.57.57,0,0,1,.35.22.65.65,0,0,1,.13.38.67.67,0,0,1-.14.37c-3.18,3.87-8.83,5-13.59,4.5A21.3,21.3,0,0,1,42.57,69.9Z"/></g><g id="Path-2"><path id="Trazado_2060" data-name="Trazado 2060" d="M87.24,42.73a4.76,4.76,0,0,1,4.12-1.49,5.15,5.15,0,0,1,3.53,2.33,85.4,85.4,0,0,0,1.9-16.1,57.36,57.36,0,0,0-.71-9.7,14.74,14.74,0,0,0-1-3.75,6.91,6.91,0,0,0-2.23-2.57l-.6-.48a14.09,14.09,0,0,1-1.76-1.78c-.39-.45-.79-.89-1.22-1.3a14.18,14.18,0,0,0-3.33-2.26A33.2,33.2,0,0,0,78.1,3.12L77.71,3a45.11,45.11,0,0,0-19.42-.25,78,78,0,0,0-9.42,3l-.93.34L42.84,8,38.08,9.74A18,18,0,0,0,40.87,14a1.15,1.15,0,0,1,.28.61,1,1,0,0,1-.14.65,1.07,1.07,0,0,1-.52.44,1.38,1.38,0,0,1-.67.08.4.4,0,0,0-.26.06.8.8,0,0,0-.23.29,1.44,1.44,0,0,0,0,1.08A4.23,4.23,0,0,0,41,18.86l.22.14c.28-1,.55-2.06.82-3.09a1.4,1.4,0,0,1,.2-.43,1.06,1.06,0,0,1,.3-.48,3.86,3.86,0,0,1,2.68-1.06,6.62,6.62,0,0,1,3.27.93l.11.07c.54.32,1.05.7,1.55,1.06,1.47,1.08,2.86,2.14,4.92,1.63a14.63,14.63,0,0,0,3-1.21l.45-.22.27-.13a31.31,31.31,0,0,1,3.82-1.52,30.59,30.59,0,0,1,8.2-1.46c4.78-.2,10.23.62,13.74,4.15a11.38,11.38,0,0,1,3.42,6,8.82,8.82,0,0,1-2,6.4l-.26.33a2.55,2.55,0,0,0-.4.53.35.35,0,0,0,0,.22.7.7,0,0,0,.19.29l.16.19A11,11,0,0,1,86.8,33a9.69,9.69,0,0,1,1.14,3.58,15,15,0,0,1-.71,6.14Z"/></g><g id="Path-3"><path id="Trazado_2061" data-name="Trazado 2061" d="M87.41,50.1l-.17.13a2.28,2.28,0,0,1-1.45.62.93.93,0,0,1-.81-.38,1.22,1.22,0,0,1-.21-.91,2.12,2.12,0,0,1,1.13-1.43,7.41,7.41,0,0,1,2.47-.77l.14,0a7.24,7.24,0,0,1,4.07.68.47.47,0,0,1,.23.61.54.54,0,0,1-.22.25.5.5,0,0,1-.34.06,6.38,6.38,0,0,0-3.43.36A6,6,0,0,0,87.41,50.1Z"/></g><g id="face_Driven" data-name="face Driven"><g id="_Ink-3" data-name=" Ink-3"><path id="Trazado_2062" data-name="Trazado 2062" d="M53.92,56.71a5.34,5.34,0,0,1-2-1.29,2.39,2.39,0,0,1-.69-1.58,1.19,1.19,0,0,1,.15-.58,1.46,1.46,0,0,1,.4-.46,1.2,1.2,0,0,1,.73-.26.88.88,0,0,1,.33.06,3.21,3.21,0,0,1,1.1.75l0,0a5.41,5.41,0,0,0,1,.76,3.13,3.13,0,0,0,2.08.33,3.59,3.59,0,0,0,1.07-.38,4,4,0,0,0,.94-.65A5.91,5.91,0,0,0,60,52.31h0a4.31,4.31,0,0,1,.58-.7.15.15,0,0,1,.12.1,3.62,3.62,0,0,1,.1,1.57,4.14,4.14,0,0,1-.55,1.44A4.87,4.87,0,0,1,56,57.12,6,6,0,0,1,53.92,56.71Zm-1.49-9.83a4.2,4.2,0,0,1-.78-1.17,4.39,4.39,0,0,1-.35-1.37,3.88,3.88,0,0,1,.68-2.6,3.82,3.82,0,0,1,1.06-1,4.68,4.68,0,0,1,1.58-.57h.14a.62.62,0,0,1,.4.13.63.63,0,0,1,.21.3.43.43,0,0,1-.11.48,6.11,6.11,0,0,0-1.34,1.08A3.39,3.39,0,0,0,53,43.73a2.2,2.2,0,0,0,.42,1.77,2.23,2.23,0,0,0,.71.5,2.07,2.07,0,0,0,.77.15,3.69,3.69,0,0,0,1.82-.58,12.75,12.75,0,0,0,1.51-1l.17-.13a1,1,0,0,1,.49-.15,1.06,1.06,0,0,1,.63.25,1.35,1.35,0,0,1,.41.59,1.11,1.11,0,0,1,0,.6,1,1,0,0,1-.34.54,10.7,10.7,0,0,1-2.42,1.37,5.77,5.77,0,0,1-2.06.41h0a3.73,3.73,0,0,1-2.76-1.12Zm-4.61-5.46a2.81,2.81,0,0,1-.67-.86,4.9,4.9,0,0,1-.54-2v0a5.4,5.4,0,0,1,.5-2.12A2,2,0,0,1,48.74,35c.43,0,.81.34,1.11,1a7,7,0,0,1,.51,2.21v.13a6,6,0,0,1-.11,1.53,3,3,0,0,1-.66,1.5,1.13,1.13,0,0,1-.85.38,1.4,1.4,0,0,1-.92-.35Zm19.1.36a1.15,1.15,0,0,1-.84-.37A3.05,3.05,0,0,1,65.42,40a7.08,7.08,0,0,1-.13-1.53v-.06a6.73,6.73,0,0,1,.5-2.3c.3-.68.68-1,1.13-1a2,2,0,0,1,1.63,1.33,5.4,5.4,0,0,1,.5,2.13v0a4.87,4.87,0,0,1-.55,2,3,3,0,0,1-.66.87,1.42,1.42,0,0,1-.92.35Zm-5.65-6.52a10.59,10.59,0,0,1-3.16-.45A1.82,1.82,0,0,1,57,34a2,2,0,0,1-.21-1.24,2.11,2.11,0,0,1,.69-1.28,1.52,1.52,0,0,1,.85-.37,2.28,2.28,0,0,1,.78.07,10.42,10.42,0,0,0,2.88.44,7.35,7.35,0,0,0,1.55-.16A16.16,16.16,0,0,0,65.14,31a10.46,10.46,0,0,1,3-.6h.25a9.47,9.47,0,0,1,2.42.44,18.33,18.33,0,0,1,2.3.91l.09,0a15.34,15.34,0,0,1,1.9,1.06,6,6,0,0,1,1.6,1.44.09.09,0,0,1,0,.1.12.12,0,0,1-.1.06h0a7.58,7.58,0,0,1-1.33-.24c-.22-.06-.44-.12-.67-.16-.76-.15-1.54-.25-2.3-.36h0l-.52-.07a17.24,17.24,0,0,0-2.28-.18,5.85,5.85,0,0,0-1.81.23,14.68,14.68,0,0,0-1.65.6,12.92,12.92,0,0,1-2.67.83,14.46,14.46,0,0,1-2.08.16ZM50.44,34A24.42,24.42,0,0,1,48.19,33L48.08,33l-.53-.25q-.3-.13-.6-.3a6.68,6.68,0,0,0-2.77-.92,2.1,2.1,0,0,0-1.51.6l-.06,0a.09.09,0,0,1-.08,0,.11.11,0,0,1,0-.08,3.61,3.61,0,0,1,1.55-2.07,4.91,4.91,0,0,1,2.52-.8h.15a8.32,8.32,0,0,1,3,.74L50,30l.66.25a5.68,5.68,0,0,0,1.82.42,2.18,2.18,0,0,0,.72-.12l0,0a1.5,1.5,0,0,1,.47-.08,2.06,2.06,0,0,1,1.85,1.44,1.89,1.89,0,0,1-.2,1.45,2,2,0,0,1-1.14.91,5,5,0,0,1-1.39.2A7.12,7.12,0,0,1,50.44,34Z"/></g></g><g id="Grupo_76" data-name="Grupo 76"><g id="Grupo_74" data-name="Grupo 74"><path id="Trazado_2063" data-name="Trazado 2063" class="cls-1" d="M26.92,445.54a1.52,1.52,0,0,1-1.07-1.22c0-.57-.05-1.16-.07-1.73l-.12-3.46-.25-6.91c-.15-4.61-.35-9.22-.39-13.82,0-.58,0-1.15.05-1.7l.17-1.72.32-3.45.63-6.89,1.08-13.8c.17-2.3.39-4.6.52-6.9l.38-6.91c.24-4.61.55-9.22.7-13.83.26-9.23.62-18.46.61-27.69l.06-6.92,0-3.46,0-3.46-.17-13.85c-.06-4.62-.18-9.22-.28-13.84-.06-2.31-.13-4.62-.27-7-.07-1.16-.16-2.32-.28-3.49l-.38-3.44-3.06-27.5-1.56-13.77L21.68,225.1l-1.2,1.22c4.23.49,8.46,1,12.72,1.12s8.51.21,12.78.06,8.5-.49,12.73-1,8.43-1.13,12.61-1.8c8.32-1.35,16.69-2.27,25.1-2.87s16.83-.84,25.26-.79h.14a1,1,0,0,1-.38,0l-.78-.69c.49,1.43,1,2.84,1.48,4.29l.59,2.19c.2.73.4,1.45.55,2.2a74.21,74.21,0,0,1,1.35,9q.42,4.56.47,9.18c.08,3.08.15,6.15.17,9.25v.15L129,279l1.87,11.2,1.91,11.17,1.91,11.17q.94,5.6,1.78,11.19T138.07,335c.23,1.87.49,3.75.76,5.62l.76,5.62q1.51,11.24,2.89,22.48c.9,7.5,1.81,15,2.57,22.53l2.33,22.55,1,11.29.48,5.65.24,2.82.12,1.41.06.71,0,.35c0,.12,0,.15,0,.23l0,.4.21.06a3.21,3.21,0,0,1,.89.44,1.18,1.18,0,0,1,.33.3,1.11,1.11,0,0,1,.22.38v0l0,.06.64,1,.3-.52-1.17.07.36.33-.1-1.49v-.21l-.21-.07a9.31,9.31,0,0,0-5.53,0,10.06,10.06,0,0,0-4.68,2.9,9.27,9.27,0,0,0-1.47,2.35,12.67,12.67,0,0,0-.86,2.61c-.2.89-.45,1.76-.61,2.66a3.87,3.87,0,0,1-1,2.34l.19,0-12.25-5.16h0l-.91-.48h0a2.68,2.68,0,0,1-.76-.94h0a.8.8,0,0,1-.15-.47.65.65,0,0,1,.18-.46,3,3,0,0,1,.91-.45,2.94,2.94,0,0,0-.93.44.67.67,0,0,0-.19.47,1,1,0,0,0,.14.5h0a2.78,2.78,0,0,0,.76,1h0l.9.5h0l12.15,5.4.1,0,.08-.08a2.92,2.92,0,0,0,.8-1.18,7.56,7.56,0,0,0,.36-1.34c.16-.88.42-1.74.64-2.61a12.61,12.61,0,0,1,.87-2.53A8.34,8.34,0,0,1,141,440.3a9.48,9.48,0,0,1,4.46-2.67,8.73,8.73,0,0,1,5.16,0l-.23-.28.08,1.45,0,.34h.34l1.15-.05.6,0-.3-.49-.68-1.13.05.08a2.52,2.52,0,0,0-.32-.58,2.56,2.56,0,0,0-.48-.45,4,4,0,0,0-1.09-.56l.25.47a2.59,2.59,0,0,0,0-.48l0-.35-.05-.71-.1-1.42-.2-2.83-.4-5.66-.8-11.32c-.62-7.53-1.39-15.06-2.09-22.59S144.81,376,144,368.51s-1.74-15-2.69-22.54l-.71-5.62c-.25-1.88-.49-3.74-.7-5.62q-.69-5.64-1.49-11.26c-.53-3.75-1.08-7.5-1.7-11.23l-1.88-11.19-1.88-11.19-1.83-11.18-3.67-22.36v.15c0-3.09-.07-6.19-.13-9.29s-.18-6.22-.46-9.33a76.91,76.91,0,0,0-1.36-9.3c-.15-.77-.36-1.53-.56-2.29l-.61-2.28c-.46-1.51-1-3-1.54-4.48l-.18-.54-.6-.14a1,1,0,0,0-.43,0h.13c-8.48-.07-17,.14-25.44.72s-16.93,1.57-25.3,2.95c-4.18.68-8.33,1.34-12.5,1.82s-8.37.84-12.56,1-8.4.16-12.59,0-8.38-.6-12.55-1.07L19.36,224l.19,1.38,1.87,13.69L23,252.82c1.05,9.16,2,18.33,3.14,27.5l.42,3.42c.13,1.13.22,2.27.3,3.4.15,2.28.24,4.58.32,6.88.15,4.6.31,9.22.4,13.83l.29,13.82.08,3.45v10.37c.09,9.22-.19,18.43-.37,27.65,0,2.3-.16,4.61-.25,6.91L27.07,377l-.28,6.91c-.1,2.3-.28,4.6-.42,6.9l-.89,13.8-.53,6.9-.26,3.45-.15,1.72c0,.59,0,1.18,0,1.75.1,4.62.37,9.23.62,13.83l.38,6.91.19,3.46c0,.57.05,1.15.1,1.72A1.55,1.55,0,0,0,26.92,445.54Z"/></g><g id="Grupo_75" data-name="Grupo 75"><path id="Trazado_2064" data-name="Trazado 2064" class="cls-1" d="M123.87,441.94c-2.9-13.08-5.55-26.22-8.11-39.37s-5.2-26.29-7.93-39.41q-2.07-9.84-4.29-19.65T98.76,324c-.86-3.24-1.72-6.49-2.66-9.71l-2.86-9.66c-.23-.81-.5-1.61-.76-2.4l-.8-2.4L90.07,295l-.81-2.4c-.12-.39-.32-.82-.46-1.18l-.45-1.15c-.58-1.54-1.12-3.11-1.66-4.7L84.45,279v8.31l2.25-.38a69.81,69.81,0,0,0-4-9.85,27,27,0,0,0-3-4.57,19.09,19.09,0,0,0-4.1-3.72l-1.55-1-.27,1.82,0,.32,0,.27a4.44,4.44,0,0,1-.15.52.5.5,0,0,1,0,.13l0,0a.27.27,0,0,1-.12.09l-.64.27-.08.66-2.54,21.69-1.27,10.84c-.42,3.62-.85,7.23-1.18,10.86-1.38,14.48-2.87,29-4.13,43.46s-2.4,29-3.48,43.52L58.59,424l-.68,10.9-.17,2.71a22,22,0,0,1-.27,2.7,27.2,27.2,0,0,1-1.4,5.26,27.41,27.41,0,0,0,1.58-5.23,22.31,22.31,0,0,0,.35-2.71l.25-2.72,1-10.87,2-21.73q2-21.74,4.13-43.44l4.56-43.39c.35-3.62.81-7.23,1.24-10.84l1.29-10.83L75,272.16l-.71.94a2.71,2.71,0,0,0,1.32-1.18,3.11,3.11,0,0,0,.21-.5,6.77,6.77,0,0,0,.22-.77c0-.13.06-.26.08-.39l.06-.34-1.82.79a17.22,17.22,0,0,1,3.6,3.27,24.77,24.77,0,0,1,2.73,4.15,68.88,68.88,0,0,1,3.84,9.52l2.26,6.51v-8.23l-2.25.37c.54,1.58,1.09,3.18,1.7,4.77l.47,1.19c.16.42.33.75.45,1.16l.8,2.36,1.6,4.73.8,2.36c.27.79.54,1.58.77,2.38l2.9,9.59c1,3.2,1.84,6.43,2.71,9.65,1.75,6.46,3.36,12.95,4.94,19.46s3.09,13,4.55,19.55c3,13.07,5.69,26.18,8.56,39.27S120.51,429,123.87,441.94Z"/></g></g><g id="_Ink-2" data-name=" Ink-2"><path id="Trazado_2065" data-name="Trazado 2065" d="M29.6,228.28c-1-.08-2-.2-3-.37a1.33,1.33,0,0,1-1.11-.92,0,0,0,0,1,0,0,4.89,4.89,0,0,0-.5-.52,4.17,4.17,0,0,0-.67-.33,6.89,6.89,0,0,0-1.47-.37c-.3,0-.62-.07-.92-.09s-.5,0-.74-.07a13.34,13.34,0,0,1-1.38-.25c-.41-.1-1.11-8.21-1.78-16-.32-3.74-.65-7.6-.95-10.45-.15-1.53-.28-2.66-.4-3.46a3.53,3.53,0,0,0-.33-1.39,7.93,7.93,0,0,1-1.85-1.17,16,16,0,0,1-3.12-3.13,23.79,23.79,0,0,1-1.46-2.1c-.77-1.24-1.44-2.56-2.09-3.84l0,0c-.24-.38-.46-.79-.67-1.2a15.32,15.32,0,0,1,4-.73.65.65,0,0,0,.52-.23.71.71,0,0,0,.17-.5V181a.66.66,0,0,0-.68-.65h0a16.68,16.68,0,0,0-4.6.84c-.09-.22-.15-.41-.21-.59a9.1,9.1,0,0,1-.45-1.27l-.17-.44,0-.14-.09-.39c-.13-.54-.26-1.09-.4-1.64a28.55,28.55,0,0,1-.77-3.29,20.53,20.53,0,0,1-.36-2.22,41.32,41.32,0,0,1-.48-5.44c0-1.12.1-2.26.22-3.37.05-.74.14-1.5.26-2.27v-.27a23.56,23.56,0,0,1,.3-3.35l.45-1.72.14-.53a42.37,42.37,0,0,1,1.71-4.6,3.6,3.6,0,0,0,.33-.61H7c.06.31.11.34.14.38a.1.1,0,0,1,0,.1v0h0l.06-.13h0a.69.69,0,0,1,0-.13,1.24,1.24,0,0,1,.26-.25h0L7.47,149a10.8,10.8,0,0,1-1.22-2c-.1-.21-.2-.42-.31-.63A6.93,6.93,0,0,1,5.09,144a3.15,3.15,0,0,1,0-1.06,3,3,0,0,1,.62-1.16,3.08,3.08,0,0,1,.33-.3,2.34,2.34,0,0,0,.55-.62.87.87,0,0,0-.09-.84c-.1-.17-.2-.35-.31-.52h0c-.55-.89-1.07-1.73-.31-2.79a4.86,4.86,0,0,1,1-.92,7.36,7.36,0,0,0,.74-.62,3.31,3.31,0,0,0,.9-2.38l0,0a.11.11,0,0,1-.07-.06,5,5,0,0,1-.24-1.21,7.35,7.35,0,0,1,0-1.24,11.78,11.78,0,0,1,.59-2.41,1.48,1.48,0,0,1,.66-.85,2.07,2.07,0,0,1,1-.26c-3.38-6.61-6.21-12.7-8.64-18.63-.08-.2-.16-.4-.26-.63a.55.55,0,0,1,.05-.45.62.62,0,0,1,.4-.34,47.39,47.39,0,0,1,5.81-.77H7.08l1.1-.1c2.39-.23,4.82-.41,7.22-.55h.33l0-.06,1.07-1.65a3,3,0,0,0,.35-.72q.27-.77.57-1.56a17.25,17.25,0,0,1,1.57-3.34,10.06,10.06,0,0,1,1.46-1.73,16.07,16.07,0,0,1,1.76-1.42,14.7,14.7,0,0,1,2.1,1.74.71.71,0,0,0,.49.21.79.79,0,0,0,.72-.5.66.66,0,0,0-.17-.75,15.85,15.85,0,0,0-1.82-1.55c.6-.36,1.22-.71,1.82-1h0l.41-.23c2.77-1.58,5.63-3.06,8.51-4.39,1.28-.6,2.61-1.13,3.9-1.66l.68-.28a.88.88,0,0,0,.2-.09c.44-.22,1-.49,1.51-.74a1.87,1.87,0,0,1,.29-1.24l.06-.08a3.15,3.15,0,0,1,.87-.58l.16-.08h0l.1,0-.14.05-.14,0h0a.48.48,0,0,1,.11-.13,2,2,0,0,1,.42-.76A2.55,2.55,0,0,0,43,82.2,11.61,11.61,0,0,0,43.4,81a6.9,6.9,0,0,1,.88-2,3.63,3.63,0,0,1,4-1.37c0-.27,0-.55.07-.82v.22a23.64,23.64,0,0,1,.92-3.8.06.06,0,0,1,.06,0s0,0,0,0a7,7,0,0,1,.72,3.43A19.62,19.62,0,0,1,50,80.15l.29.21a6.27,6.27,0,0,0,1.5.72,11.54,11.54,0,0,0,3.13.53c.45,0,.91,0,1.38,0,1.09,0,2.25-.06,3.44-.18s2.23-.26,3.4-.47l.13,0c2.7-.47,6.79-1.18,9.17-2.52a45.33,45.33,0,0,0,3.9-2.58h0l.65-.47a10.69,10.69,0,0,1-.48-2.64,6.5,6.5,0,0,1,.34-2.44.24.24,0,0,1,.22-.15.19.19,0,0,1,.18.15c.14.56.23,1.14.33,1.7a19.61,19.61,0,0,0,.56,2.5v.06l.43-.29a.64.64,0,0,1,.33-.1.76.76,0,0,1,.63.36,10.74,10.74,0,0,0,2.74,3,12,12,0,0,0,3.33,1.67,33.92,33.92,0,0,0,5.64,1.21h0l1.59.26a105.47,105.47,0,0,1,16.91,3.9c1.34.46,2.65,1,3.87,1.51A39.09,39.09,0,0,1,117.31,88a34.52,34.52,0,0,1,3.48,2.26,30.18,30.18,0,0,1,3.15,2.71,33.85,33.85,0,0,1,2.53,2.83,12.58,12.58,0,0,0-2.27.49.7.7,0,0,0-.42.33.73.73,0,0,0-.08.48.68.68,0,0,0,.65.62.59.59,0,0,0,.23,0,13.24,13.24,0,0,1,2.93-.52,51.64,51.64,0,0,1,3.64,5.83c1,1.8,1.94,3.82,3,6.16a85.18,85.18,0,0,1,4.32,12.18A88.26,88.26,0,0,1,140.93,134c-.61-.36-1.19-.68-1.76-1a.67.67,0,0,0-.34-.09.7.7,0,0,0-.47.19.88.88,0,0,0-.27.43.62.62,0,0,0,.35.72,29.79,29.79,0,0,1,2.69,1.55,90.54,90.54,0,0,1,.44,11.29,109.72,109.72,0,0,1-1.13,13.54c-.34,2.29-.77,4.55-1.26,6.7s-1.1,4.45-1.77,6.54a52.27,52.27,0,0,1-2.4,6.2c-.49,1-1,2-1.55,2.95a30.13,30.13,0,0,1-1.83,2.77,22.35,22.35,0,0,1-1.94,2.29,20.06,20.06,0,0,1-2.23,2,16.75,16.75,0,0,1-2.47,1.55,10.55,10.55,0,0,1-1.41.55,6.81,6.81,0,0,0-2.14,1,2.88,2.88,0,0,0-.74,1c0,.38.36,8.4.63,16.5.16,4.81.51,16.05.39,16.5a.82.82,0,0,1-.46.52v.21h0a0,0,0,0,1,0,0v0l0-.11v0c-.07,0-.14,0-.22-.12h-.56a76.26,76.26,0,0,1-7.71,0l-1.5,0c-1.16,0-3.47,0-3.47,0h0s-3.58-.32-5.37-.38c-4.32-.14-8.71-.22-13-.3l-5.86-.11c-2,0-6,.2-6,.2h0s-7.3.52-14.38.59c-9.53.1-12.1-.69-16.54,0a36.54,36.54,0,0,1-5.91.6c-1.63,0-2.05-.1-4,0s-2.31.22-4.12.22C31.58,228.4,30.58,228.37,29.6,228.28ZM81.9,202.7a.78.78,0,0,0-.7.49.66.66,0,0,0,.16.75,23.55,23.55,0,0,1,2,2.36.79.79,0,0,0,.64.36.64.64,0,0,0,.35-.1.82.82,0,0,0,.35-.52.55.55,0,0,0-.09-.47,25.46,25.46,0,0,0-2.2-2.66.68.68,0,0,0-.48-.21ZM101,199.22a.67.67,0,0,0,.15.75,22.2,22.2,0,0,1,2,2.37.83.83,0,0,0,.64.36.68.68,0,0,0,.35-.1.83.83,0,0,0,.36-.53.61.61,0,0,0-.1-.47,24.16,24.16,0,0,0-2.2-2.65.68.68,0,0,0-.48-.22h0a.82.82,0,0,0-.7.49Zm-9.74-11.87a.79.79,0,0,0-.7.53,8.23,8.23,0,0,1-1.7,2.61.68.68,0,0,0-.15.75.78.78,0,0,0,.7.49.66.66,0,0,0,.48-.22A10.13,10.13,0,0,0,92,188.27a.6.6,0,0,0,0-.49.75.75,0,0,0-.47-.4.63.63,0,0,0-.19,0Zm-9.87-15.82a.53.53,0,0,0-.52.4.63.63,0,0,0,.24.72,4.2,4.2,0,0,1,.38.3h0a4.12,4.12,0,0,0,.78.53l.64.29h0l.31.14,2,.89,4,1.87,4.8,2.19h0l3.3,1.5c2.41,1.1,5,2.32,8.27,3.82,1,.48,2,1,3,1.4h0l.09,0,.76.34.89.44a8.4,8.4,0,0,0,2.82,1h0a.05.05,0,0,0,0,0s0,0,0-.08a5.07,5.07,0,0,0-1.38-1h0a4.13,4.13,0,0,1-.42-.22c-.5-.28-1-.55-1.52-.82h0l-.35-.19c-1.16-.61-2.54-1.34-4-2.05-2.5-1.27-5-2.52-8-4l-1.09-.55c-2.3-1.16-4.69-2.35-7.05-3.49l-3.87-1.84-2.09-1-.25-.12h0c-.21-.1-.43-.21-.65-.3a2.32,2.32,0,0,0-.68-.16l-.46-.08a.51.51,0,0,0-.17,0h0ZM35.26,184a.69.69,0,0,0-.48.22c-.19.19-.38.41-.56.61A7.13,7.13,0,0,1,33.05,186a.77.77,0,0,0-.33.44.66.66,0,0,0,.07.55.77.77,0,0,0,.65.36.52.52,0,0,0,.34-.1,9,9,0,0,0,1.45-1.37c.18-.2.38-.42.58-.62a.68.68,0,0,0,.15-.75.77.77,0,0,0-.7-.49Zm65,27.77a.67.67,0,0,0-.48.21c-.19.2-.38.41-.56.62A6.77,6.77,0,0,1,98,213.75a.91.91,0,0,0-.33.44.7.7,0,0,0,.07.55.76.76,0,0,0,.65.36.53.53,0,0,0,.35-.1,8.89,8.89,0,0,0,1.44-1.37c.19-.2.38-.42.58-.62a.66.66,0,0,0,.16-.75.78.78,0,0,0-.7-.49Zm-59.66-7.09a.67.67,0,0,0-.48.21c-.19.2-.38.41-.56.62a6.43,6.43,0,0,1-1.18,1.15.89.89,0,0,0-.33.45.68.68,0,0,0,.07.54.77.77,0,0,0,.65.37.6.6,0,0,0,.35-.1,8.89,8.89,0,0,0,1.44-1.37l.58-.63a.66.66,0,0,0,.16-.75.8.8,0,0,0-.7-.49ZM66.17,179.9a.66.66,0,0,0,.16.75,22.19,22.19,0,0,1,2,2.36.85.85,0,0,0,.65.36.64.64,0,0,0,.35-.1.82.82,0,0,0,.35-.52.59.59,0,0,0-.09-.47,26.77,26.77,0,0,0-2.2-2.66.69.69,0,0,0-.49-.21h0a.78.78,0,0,0-.7.49Zm-13,10.63a.66.66,0,0,0,.16.75,22.19,22.19,0,0,1,2,2.36A.82.82,0,0,0,56,194a.64.64,0,0,0,.35-.1.82.82,0,0,0,.35-.52.61.61,0,0,0-.09-.47,26.54,26.54,0,0,0-2.2-2.66.69.69,0,0,0-.49-.21h0a.77.77,0,0,0-.69.49Zm10,11.81a.66.66,0,0,0,.16.75,24.85,24.85,0,0,1,2,2.37.81.81,0,0,0,.64.36.74.74,0,0,0,.35-.1.81.81,0,0,0,.35-.53.57.57,0,0,0-.09-.47,25.34,25.34,0,0,0-2.2-2.65.69.69,0,0,0-.48-.22h0a.82.82,0,0,0-.7.49Zm-8.86,11.82a.66.66,0,0,0,.16.75,23.55,23.55,0,0,1,2,2.36.81.81,0,0,0,.64.36.64.64,0,0,0,.35-.1.82.82,0,0,0,.35-.52.55.55,0,0,0-.09-.47,25.46,25.46,0,0,0-2.2-2.66.68.68,0,0,0-.48-.21h0a.79.79,0,0,0-.7.48Zm-13-20.68a.66.66,0,0,0,.16.75,24.85,24.85,0,0,1,2,2.37.84.84,0,0,0,.64.36.74.74,0,0,0,.35-.1.81.81,0,0,0,.35-.53.57.57,0,0,0-.09-.47,25.34,25.34,0,0,0-2.2-2.65.68.68,0,0,0-.48-.22h0a.82.82,0,0,0-.7.49Zm30.72,21.27a.66.66,0,0,0,.16.75,22.19,22.19,0,0,1,2,2.36.82.82,0,0,0,.65.36.64.64,0,0,0,.35-.1.82.82,0,0,0,.35-.52.6.6,0,0,0-.09-.47,26.77,26.77,0,0,0-2.2-2.66.69.69,0,0,0-.49-.21h0a.78.78,0,0,0-.69.49Zm52.75-40.38a.59.59,0,0,0,.35.71c.45.22.92.43,1.38.63h0a19.62,19.62,0,0,1,2.17,1,.69.69,0,0,0,.37.1.66.66,0,0,0,.44-.17.83.83,0,0,0,.25-.41.67.67,0,0,0,0-.42.71.71,0,0,0-.31-.35,23,23,0,0,0-2.18-1.05h0c-.45-.2-.92-.4-1.37-.62a.81.81,0,0,0-.34-.08.79.79,0,0,0-.74.62ZM15.17,162.51a3.47,3.47,0,0,0-1,.92,10.79,10.79,0,0,0-.75,1.15,13.59,13.59,0,0,0-1.21,2.73,13.83,13.83,0,0,0-.7,3,7.49,7.49,0,0,0,0,1.57,5.44,5.44,0,0,0,.38,1.49.76.76,0,0,0,.69.47.59.59,0,0,0,.59-.47,16.47,16.47,0,0,0,.47-3.21,20.09,20.09,0,0,1,.28-2.43c.16-.84.39-1.75.71-2.85.07-.22.15-.45.23-.67h0a6.9,6.9,0,0,0,.42-1.68.08.08,0,0,0,0,0l0,0h0Zm37.51,2.32a.76.76,0,0,0-.73.48c-.2.49-.42,1-.63,1.47h0c-.21.47-.43,1-.62,1.46a.56.56,0,0,0,0,.56.79.79,0,0,0,1.12.13.73.73,0,0,0,.24-.31c.2-.49.42-1,.63-1.46h0c.21-.48.43-1,.63-1.46a.58.58,0,0,0,0-.57A.74.74,0,0,0,52.68,164.83Zm-19.09-.48a.61.61,0,0,0-.46.2.79.79,0,0,0-.21.44.69.69,0,0,0,.5.8,28.94,28.94,0,0,1,3.28,1.28h0l.71.32a.87.87,0,0,0,.32.06.82.82,0,0,0,.78-.65.55.55,0,0,0,0-.38.65.65,0,0,0-.32-.29l-.85-.37a29.32,29.32,0,0,0-3.51-1.37.78.78,0,0,0-.22,0Zm65-.62a.72.72,0,0,0-.49.22l-1.88,1.88a.68.68,0,0,0-.16.75.82.82,0,0,0,.7.49.7.7,0,0,0,.49-.22L99.1,165a.65.65,0,0,0,.16-.74.81.81,0,0,0-.7-.5Zm11.22-30.42a.2.2,0,0,0-.18.12,19.33,19.33,0,0,0-.78,3c-.2,1.08-.33,2.16-.44,3.07a50.35,50.35,0,0,0-.28,6.26c0,1.92.14,4,.33,6.44.06.73.12,1.46.19,2.18h0c0,.27,0,.57.08.87s0,.35,0,.51a13.45,13.45,0,0,0,.21,1.79c-.9-.22-1.86-.45-3-.71l-3.1-.69h0c-2.16-.47-4.39-1-6.57-1.5-.94-.23-1.88-.49-2.8-.74l-1.89-.52-.78-.2a25.31,25.31,0,0,0-3.77-.82.06.06,0,0,0-.06,0,.39.39,0,0,0-.39.28.73.73,0,0,0,0,.36.53.53,0,0,0,.2.29,17.48,17.48,0,0,0,4.29,2c1.3.44,2.65.77,4,1.1l.41.1c2.57.63,5.21,1.17,7.77,1.7h0l1.41.29.32.07h0c2.92.6,5.93,1.23,8.86,2,1.55.4,3,.77,4.37,1.19l.36.1h0a12.22,12.22,0,0,1,1.85.63,4.14,4.14,0,0,1,1.55,1.13s0,0,0,0a.05.05,0,0,0,.05,0,.06.06,0,0,0,0-.06,5.56,5.56,0,0,0-2.46-2.36,21.4,21.4,0,0,0-3.33-1.37h0c-.34-.11-.66-.23-1-.34-1.46-.53-3.08-1-5-1.52a19.41,19.41,0,0,0-.24-4c-.08-.61-.16-1.24-.21-1.84-.2-2.33-.32-4.27-.39-6.11-.08-2.25-.08-4.3,0-6.25,0-1.18.15-2.38.25-3.53.07-.87.15-1.77.21-2.66a.15.15,0,0,0,0-.11.13.13,0,0,0-.12,0ZM38.2,126.46a8.62,8.62,0,0,0-2.26.26,4.48,4.48,0,0,0-2.23,1.75h0l-.07.1c-.64.76-1.26,1.52-1.84,2.3a21.25,21.25,0,0,0-1.53,2.33,11.6,11.6,0,0,0-.74,1.5l-.06.12h0a4,4,0,0,0-.16.45,1,1,0,0,0,0,.17c0,.12,0,.22-.16.22a1,1,0,0,1,.75.57,2.2,2.2,0,0,1,.3,1,.86.86,0,0,1-.1.41.39.39,0,0,1-.32.16h.17a1.56,1.56,0,0,1-1.14-.62,2.5,2.5,0,0,1-.46-1,3.13,3.13,0,0,1,0-1.22c.4-2.17,2.43-4.77,3.1-5.62h0l.13-.16.49-.66a19.87,19.87,0,0,1,1.42-1.76,5,5,0,0,1,1.8-1.26l.08,0a8.61,8.61,0,0,1-1.22-1.54l0-.07v0a5.12,5.12,0,0,1-.88-1.8.46.46,0,0,1,.08-.34.44.44,0,0,1,.3-.14.37.37,0,0,1,.33.19,5.76,5.76,0,0,1,.55,1.18c.09.22.17.45.27.66s.27.55.41.82.33.64.47,1a8.43,8.43,0,0,1,2.06-.32c-.91-1.23-2.44-3.57-2.61-3.86-.78-1.28-1.58-2.67-2.43-4.26-.49-.91-.94-1.86-1.38-2.78h0c-.32-.65-.64-1.32-1-2h0c-.44-.88-.9-1.78-1.4-2.65a8,8,0,0,0-.57-.86l-.09-.1-.05,0-.09,0h0l-.05,0a1.07,1.07,0,0,1-.4-.49,1.84,1.84,0,0,0-.3-.43.72.72,0,0,0-.35-.22,2.09,2.09,0,0,0-.75-.1h-.35c-.72,0-1.46,0-2.18,0h0l-.56,0c-1.55,0-3.1.1-4.6.18l-1.39.08c-2.21.13-4.46.31-6.68.52-.84.08-1.69.18-2.51.28H7.66c-1.13.14-2.3.28-3.44.36,1.39,3.3,2.83,6.52,4.29,9.55,1.54,3.21,3.16,6.34,4.81,9.28a1.46,1.46,0,0,1,.07.19,25.41,25.41,0,0,1,4.91.72A24.23,24.23,0,0,1,23,130.05a6.39,6.39,0,0,1,1.66,1.1,4.07,4.07,0,0,1,.61.76,3.29,3.29,0,0,1,.37.94,6.21,6.21,0,0,1,0,2.15,1.36,1.36,0,0,0,0,.2,1.91,1.91,0,0,1-.53,1.4.82.82,0,0,1-.26.14,22.57,22.57,0,0,1,3.08,1.71,6.51,6.51,0,0,1,1.23,1.05,4.27,4.27,0,0,1,.89,1.36c0-.1.06-.21.1-.32a8.7,8.7,0,0,1,3.32-4.68,6.53,6.53,0,0,1,1.34-2,6,6,0,0,1,1.21-1,2.53,2.53,0,0,1,1.35-.45h.1a12.69,12.69,0,0,1,5.45,1.19h.62l1.36,0h0a.09.09,0,0,1,.08.08h0a.09.09,0,0,1-.09.09c-.59.08-1.11.15-1.59.23-1.3.21-2.56.47-3.75.78l-.15,0a22.52,22.52,0,0,0-4.23,1.39,7.05,7.05,0,0,0-3.12,3.2,7.85,7.85,0,0,0-.87,4.44,6.53,6.53,0,0,0,.21,1.07c.15.49.36.73.61.73h.09c.43-.1.67-.81.84-1.33a3.13,3.13,0,0,1,.16-.42,4.31,4.31,0,0,1,1.08-1.46,6.25,6.25,0,0,1,1.55-1,32.07,32.07,0,0,1,3.07-1.12l1.11-.37.11,0,.06,0,2.21-.76.4-.14h-.05a4.63,4.63,0,0,1,1.55-.37,2.61,2.61,0,0,1,.48,0,.58.58,0,0,1,.42.37.75.75,0,0,1-.14.71,2.86,2.86,0,0,1-1.47.83l-.26.09-1.6.56-.9.31-1.21.4H40c-.89.29-1.8.59-2.65,1l0,.09h0a.16.16,0,0,1,.13.06.18.18,0,0,1,0,.14c0,.07,0,.15,0,.22v.05a8.54,8.54,0,0,0-.12,3.34,2.78,2.78,0,0,0,.61,1.15,1.54,1.54,0,0,0,1.11.54,1.27,1.27,0,0,0,.34,0,.54.54,0,0,1-.11-.64,8.33,8.33,0,0,1,2.43-2,15.87,15.87,0,0,1,1.82-1,4.21,4.21,0,0,1,1.47-.42.51.51,0,0,1,.53.28s0,0,0,.05l-.06,0h-.08a2.2,2.2,0,0,0-1.05.61l-.3.23-.47.32-1,.64c-.49.34-1,.71-1.49,1.11L41,148a2.67,2.67,0,0,1-.85.56.9.9,0,0,1,.49.57,2.31,2.31,0,0,0,1.24,1.55,2.68,2.68,0,0,0,1.08.19h.7l.43,0a4.46,4.46,0,0,1,2.59,1.25A11.49,11.49,0,0,1,48.16,154a12.62,12.62,0,0,0,1.26,1.65,3.88,3.88,0,0,0,1.69,1.1,5.05,5.05,0,0,0,1.55.22,15.34,15.34,0,0,0,2.13-.2l.3-.05a20.81,20.81,0,0,1,2.85-.25,10,10,0,0,1,1.44.1,14.54,14.54,0,0,1,4,1.27,18.49,18.49,0,0,1,3.56,2l0-.13c.2-.61.41-1.25.57-1.89a24.66,24.66,0,0,0,.65-4.92,37.65,37.65,0,0,0-.18-4.75c0-.39-.07-.79-.12-1.18v-.44l-.12-1.19c0-.13,0-.26,0-.4h0l0-.23A54,54,0,0,0,62,141.92l-.34-.14h0l-.19-.09h0a1.19,1.19,0,0,1-.5-.54,22.23,22.23,0,0,1-4.06-3.38,24.22,24.22,0,0,1-3.22-4.23l-.3-.5a20.69,20.69,0,0,0-2.23-3.24,7.16,7.16,0,0,0-1.78-1.46,8,8,0,0,0-2.16-.83,37.15,37.15,0,0,0-5.66-.84l-.66-.06h0c-.84-.07-1.7-.14-2.57-.14ZM13.75,145.71h.06l.53,0a108.33,108.33,0,0,1,11.07,1.39c1,.18,1.93.4,2.86.63l.33.09h0a4.23,4.23,0,0,0,1.06.2h.09a.84.84,0,0,0,.77-.41,1.05,1.05,0,0,0-.23-1.06l-.19-.24A12.91,12.91,0,0,0,27,143.87l0,0a22,22,0,0,1-2.63-.56c-.39-.1-.79-.2-1.18-.28L23,143l-9.11-2.07a.45.45,0,0,1-.28-.19.52.52,0,0,1-.06-.3.5.5,0,0,1,.15-.32.44.44,0,0,1,.33-.14h.12l4.43,1,2.63.6,3.44.78.83.22a10,10,0,0,0,1.53.36,3.52,3.52,0,0,0,.56,0,2.22,2.22,0,0,0,.68-.08,1.08,1.08,0,0,0,.68-.54,1.89,1.89,0,0,0,.2-1.07,2.27,2.27,0,0,0-.28-.88,6.34,6.34,0,0,0-2.44-2l-.05,0a36,36,0,0,0-3.53-1.73c-.46-.2-.93-.41-1.39-.63l-.88-.19c-.5-.11-1-.2-1.54-.3h-.06a27.54,27.54,0,0,1-3.76-1,.43.43,0,0,1-.25-.51,3.11,3.11,0,0,1,.5-.82h-.11a11.62,11.62,0,0,1,2.61.46l1,.24,3.2.7.6.13.19.05a4.67,4.67,0,0,0,.76.17h.05c.06,0,.09-.23.11-.39v-.06a5.44,5.44,0,0,0,.05-1.66,2.27,2.27,0,0,0-.8-1.42,5.81,5.81,0,0,0-1.44-.85,22.39,22.39,0,0,0-3.58-1.27,23.89,23.89,0,0,0-3.74-.69c-.56-.06-1.15-.1-1.74-.12H12a1,1,0,0,0-1,.55,8.75,8.75,0,0,0-.65,1.77,16.71,16.71,0,0,0-.37,1.87s0,0,.07,0a3,3,0,0,1,.26,1.8A3,3,0,0,1,9.44,136c-.15.13-.31.27-.47.39-.51.39-1.08.84-1.05,1.42A2.1,2.1,0,0,0,8.54,139a4.56,4.56,0,0,1,.4.55,2.26,2.26,0,0,1,.26.77,1.48,1.48,0,0,1-.11.8,2.3,2.3,0,0,1-.67.81,2.26,2.26,0,0,0-.67.81c-.34.84.2,1.85.58,2.58l0,0c.14.26.29.52.44.77v.94a14,14,0,0,1,.74,1.38,73.61,73.61,0,0,0,7.7,3.29l2.17.4c1.51.26,2.88.47,4.2.66.81.12,1.6.22,2.4.31h.06a6.64,6.64,0,0,0,.77,0,1.69,1.69,0,0,0,1.23-.41c1.09-1,.56-2.75-.22-3.92,0,0,0,0,0-.05l-.67-.17h0c-.44-.11-.9-.22-1.35-.31-1.19-.23-2.47-.44-3.91-.65-2.64-.37-5.35-.63-8-.87l-.13,0a.52.52,0,0,1-.38-.21.55.55,0,0,1-.12-.39.47.47,0,0,1,.12-.32.4.4,0,0,1,.33-.13h0Zm116.29.81a7.19,7.19,0,0,1-2.47,1.35h0l-.34.13a.77.77,0,0,0-.47.9.63.63,0,0,0,.59.56.58.58,0,0,0,.26-.06l.3-.11c.56-.22,1.13-.45,1.67-.72a6.39,6.39,0,0,0,1.49-1,.63.63,0,0,0,.17-.73.82.82,0,0,0-.71-.5.73.73,0,0,0-.48.21ZM29.57,143.29a2.28,2.28,0,0,1-1.19.64,6.8,6.8,0,0,1,1.25.73,7.9,7.9,0,0,1-.06-1.37Zm50.84-4.85a11.48,11.48,0,0,0-2.33.4h0l-.13,0a.63.63,0,0,0-.42.29.74.74,0,0,0-.09.46.72.72,0,0,0,.7.67l.19,0,.26-.07h0a7.72,7.72,0,0,1,1.84-.32.7.7,0,0,0,.53-.25.82.82,0,0,0,.17-.5v-.05a.66.66,0,0,0-.68-.65h0Zm19.9-11.18a11.69,11.69,0,0,1-2.75,1,.66.66,0,0,0-.42.27.68.68,0,0,0-.1.44.77.77,0,0,0,.73.71l.17,0a13.06,13.06,0,0,0,3.1-1.12.59.59,0,0,0,.35-.71.79.79,0,0,0-.74-.62.73.73,0,0,0-.33.08Zm-25.72-8.77a.65.65,0,0,0-.1.6,33.26,33.26,0,0,1,.84,4.18.56.56,0,0,0,.58.53.9.9,0,0,0,.64-.3.74.74,0,0,0,.17-.62,31.53,31.53,0,0,0-.83-4.18.67.67,0,0,0-.67-.51.79.79,0,0,0-.62.3Zm48,1.91a.81.81,0,0,0-.2.39.77.77,0,0,0,.47.9,21.57,21.57,0,0,1,3,1.39.76.76,0,0,0,.36.11.7.7,0,0,0,.44-.18.76.76,0,0,0,.25-.4.67.67,0,0,0,0-.42.73.73,0,0,0-.31-.36,23.63,23.63,0,0,0-3.31-1.53.58.58,0,0,0-.26-.06.55.55,0,0,0-.38.16ZM49.35,108.13a.85.85,0,0,0-.67.39.72.72,0,0,0,0,.71,11.57,11.57,0,0,1,.5,1.14,3.87,3.87,0,0,1,.23,1.21.71.71,0,0,0,.24.53.76.76,0,0,0,.5.17.7.7,0,0,0,.53-.21.68.68,0,0,0,.18-.49,5.72,5.72,0,0,0-.29-1.59,11.58,11.58,0,0,0-.65-1.49.6.6,0,0,0-.55-.37Zm46.72-2.46a.63.63,0,0,0-.47.2.83.83,0,0,0-.22.46.67.67,0,0,0,.51.77c.89.25,1.81.43,2.71.6h0c.69.14,1.4.28,2.09.44a.63.63,0,0,0,.19,0,.75.75,0,0,0,.71-.68.74.74,0,0,0-.09-.46.69.69,0,0,0-.42-.29c-.7-.16-1.4-.3-2.09-.44h0c-.9-.17-1.82-.36-2.72-.6a.64.64,0,0,0-.2,0Zm28.5-2.09a.76.76,0,0,0-.26.06c-.49.19-1,.36-1.47.52h0c-.48.16-1,.33-1.46.52a.78.78,0,0,0-.47.89.63.63,0,0,0,.6.56.75.75,0,0,0,.26,0c.49-.19,1-.36,1.47-.52s1-.34,1.46-.53a.77.77,0,0,0,.47-.88.65.65,0,0,0-.6-.57Zm-45.2-5.06a18.53,18.53,0,0,0-3.33.24.6.6,0,0,0-.42.25.66.66,0,0,0-.1.43.86.86,0,0,0,.23.5.68.68,0,0,0,.52.23h.15a15.35,15.35,0,0,1,3-.19h.06a.68.68,0,0,0,.64-.72h0a.77.77,0,0,0-.18-.5.65.65,0,0,0-.52-.23ZM39.64,90.89a.69.69,0,0,0,0,.45.68.68,0,0,0,.3.39L41.82,93a.64.64,0,0,0,1-.42.66.66,0,0,0,0-.44.73.73,0,0,0-.3-.39l-.87-.59-1-.66a.67.67,0,0,0-.38-.13.71.71,0,0,0-.64.54Zm65.77-2.36a.89.89,0,0,0-.23.52h0a.59.59,0,0,0,.53.65h0a16,16,0,0,1,3.34.84.75.75,0,0,0,.26,0,.64.64,0,0,0,.6-.57.77.77,0,0,0-.47-.88,17.38,17.38,0,0,0-3.34-.84H106a.74.74,0,0,0-.54.23Zm-35-2.65a11.87,11.87,0,0,0-1.82,1.57.66.66,0,0,0-.16.75.78.78,0,0,0,.7.49.67.67,0,0,0,.48-.21l0,0a10,10,0,0,1,1.5-1.33.81.81,0,0,0,.33-.44.7.7,0,0,0-.07-.55.76.76,0,0,0-.65-.36.53.53,0,0,0-.33.09Z"/></g><g id="Grupo_77" data-name="Grupo 77"><path id="Trazado_2066" data-name="Trazado 2066" class="cls-1" d="M79.68,75.21a47.64,47.64,0,0,0,10.67,5.42,48.77,48.77,0,0,0,5.79,1.62c2,.43,3.93.75,5.9,1.09a49,49,0,0,1,11.37,3.26,47.05,47.05,0,0,1,10.21,5.85,20.49,20.49,0,0,1,4,4.16,38.54,38.54,0,0,1,3.06,5,75.49,75.49,0,0,1,4.49,10.94c1.24,3.75,2.28,7.58,3.18,11.44s1.71,7.75,2.32,11.64v-.14c0,3.84-.08,7.71-.26,11.55s-.48,7.7-.9,11.52a98.71,98.71,0,0,1-1.86,11.33,42.09,42.09,0,0,1-1.62,5.41,17.08,17.08,0,0,1-2.57,4.75l-.1.13-.08.17a16.15,16.15,0,0,1-1,1.87c-.4.62-.82,1.23-1.28,1.82a27.48,27.48,0,0,1-3,3.28,29.5,29.5,0,0,1-7.41,5l-.74.34.07.8,1.5,17.43,1.54,17.42,1.12-1.17q-12.78-.44-25.51-.45T73,226.81L60.29,227c-4.25.1-8.5.24-12.74.39s-8.49.31-12.73.47-8.49.4-12.73.6c8.49-.09,17-.22,25.48-.25q6.36,0,12.73,0H73q12.74.06,25.46.31c8.48.2,17,.37,25.43.74l1.22.06-.1-1.22-1.41-17.43-1.45-17.43-.67,1.15a31.34,31.34,0,0,0,8-5.36,27.72,27.72,0,0,0,3.28-3.57c.5-.65,1-1.31,1.4-2a17,17,0,0,0,1.21-2.22l-.18.3a19.39,19.39,0,0,0,2.94-5.42,45.77,45.77,0,0,0,1.7-5.72,98.82,98.82,0,0,0,1.87-11.61c.42-3.88.67-7.77.83-11.66s.22-7.78.16-11.69v-.14a145.34,145.34,0,0,0-5.9-23.34,75.57,75.57,0,0,0-4.79-11.09,40,40,0,0,0-3.28-5.14,21.6,21.6,0,0,0-4.34-4.36,41.55,41.55,0,0,0-5.13-3.26,49.29,49.29,0,0,0-17.15-5.55c-2-.28-3.94-.54-5.9-.91a47.54,47.54,0,0,1-5.76-1.44A48.47,48.47,0,0,1,79.68,75.21Z"/></g><g id="Grupo_78" data-name="Grupo 78"><path id="Trazado_2067" data-name="Trazado 2067" class="cls-1" d="M19.14,225.54c-.06-2.62-.14-5.25-.28-7.87s-.27-5.23-.41-7.85L17.92,202l-.61-7.84,0-.51-.48-.33a19,19,0,0,1-2.17-1.84,25.45,25.45,0,0,1-2-2.17A32.61,32.61,0,0,1,7,178.94a58.17,58.17,0,0,1-1.56-5.8,51.25,51.25,0,0,1-1.14-12,30.72,30.72,0,0,1,2.52-11.79v0l.55-.64-.63.55h0a27,27,0,0,0-3.8,11.76c-.14,1-.16,2.07-.22,3.12s0,2.08,0,3.12a46.53,46.53,0,0,0,.67,6.23c.19,1.05.43,2,.64,3.06s.51,2,.8,3.05a36.14,36.14,0,0,0,2.47,5.84,29.9,29.9,0,0,0,3.56,5.27A28.47,28.47,0,0,0,13,193.1a20.22,20.22,0,0,0,2.54,2.08l-.51-.84.86,7.81,1,7.81c.34,2.6.67,5.2,1.05,7.8S18.7,223,19.14,225.54Z"/></g><g id="Grupo_79" data-name="Grupo 79"><path id="Trazado_2068" data-name="Trazado 2068" class="cls-1" d="M48.08,77.87a2.18,2.18,0,0,0-1.56-.58,3.5,3.5,0,0,0-1.68.59A6.83,6.83,0,0,0,43.54,79a12.06,12.06,0,0,0-1,1.36l-.06.13a13,13,0,0,1-.63,1.16,4.07,4.07,0,0,1-.33.48,1.06,1.06,0,0,1-.15.15,1.24,1.24,0,0,0-.22.18A13.61,13.61,0,0,0,40,83.65a3.7,3.7,0,0,0-.57.9,2,2,0,0,0-.15.47,1.7,1.7,0,0,0,0,.39,1.24,1.24,0,0,0,0,.27,2.81,2.81,0,0,0,.1.31,1.49,1.49,0,0,0,.44.58,1.51,1.51,0,0,0,.26.18,1.15,1.15,0,0,0,.25.12,1.64,1.64,0,0,0,.38.1L41,87l-.56-2.77c-1.48.51-2.93,1-4.38,1.62s-2.88,1.17-4.3,1.81-2.84,1.3-4.25,2c-.7.36-1.4.73-2.1,1.16-.34.2-.7.43-1.06.68-.2.14-.37.25-.59.43l-.16.14c-.06,0-.13.13-.2.2l-.1.1a1.83,1.83,0,0,0-.13.16,2.73,2.73,0,0,0-.3.56l.68-.83c-.65.44-1.24.86-1.84,1.34A21.83,21.83,0,0,0,20,95.1a14,14,0,0,0-1.59,1.76A5.83,5.83,0,0,0,17.72,98a3.09,3.09,0,0,0-.22.79,2.13,2.13,0,0,0,.12,1l0-.67-.45,1.41c-.14.48-.3.94-.44,1.42-.27,1-.55,1.91-.77,2.89.6-.8,1.15-1.63,1.7-2.45.28-.42.53-.84.8-1.26l.79-1.25,0-.67c.05,0,.07-.09.22-.29a5.4,5.4,0,0,1,.56-.61,16.42,16.42,0,0,1,1.55-1.2c.56-.38,1.14-.75,1.73-1.11s1.2-.71,1.79-1l.68-.83a.64.64,0,0,1-.15.31c-.05.06,0,0,0,.05h0l.07,0,.36-.23.93-.5c.66-.32,1.33-.66,2-1l4.16-1.93c2.78-1.29,5.58-2.6,8.33-4L41,84.11l.1,0a.73.73,0,0,1,.2.05l.17.08.19.13a1.16,1.16,0,0,1,.32.44c0,.08.06.15.08.22a1.37,1.37,0,0,1,0,.19.75.75,0,0,1,0,.21.17.17,0,0,1,0,.12,1.17,1.17,0,0,1,.16-.34,10.78,10.78,0,0,1,.73-1l.28-.33a4,4,0,0,0,.27-.44,7.91,7.91,0,0,0,.35-.79,11.2,11.2,0,0,0,.44-1.5l-.05.12c.19-.45.35-.92.57-1.35.1-.23.24-.41.36-.63s.27-.39.41-.56a2.61,2.61,0,0,1,1.09-.83A2,2,0,0,1,48.08,77.87Z"/></g><path id="Trazado_2069" data-name="Trazado 2069" class="cls-1" d="M44.37,447.85a10.59,10.59,0,0,1-1.58-1.7c-.62-.85-.78-1.36-1.46-2.3A12.81,12.81,0,0,0,40,442.38a7.77,7.77,0,0,0-5.21-2.2c-2.63.18-5.19,2.84-5.89,6.57a1.82,1.82,0,0,1,2,.62C31.36,447.88,34.67,448.19,44.37,447.85Z"/></g></svg>