<svg xmlns="http://www.w3.org/2000/svg" viewBox="0 0 275.32 175.53">
    <defs>
        <style>
            .cls-1{
                fill:#f75c03;
                stroke-width: 0.25px;
                stroke: #f75c03;
            }
            
            .cls-2,
            .cls-3{
                fill:none;
                stroke-linecap: round;
                stroke-linejoin: round;
            }
            .cls-2{
                stroke:#fff;
                stroke-width:20px;
                stroke-dasharray: 150px;
                stroke-dashoffset: 150px;
            }
            .cls-3{
                stroke:#fff;
                stroke-width:20px;
                stroke-dasharray: 1050px;
                stroke-dashoffset: 3150px;
            }
        </style>
    </defs>
    <g id="Capa_1" data-name="Capa 1">
        <path mask="url(#mask1)" class="cls-1" d="M471.24,455.58c7.73,0,13.65,2.19,18.1,6.69s6.64,10.5,6.64,18.26-2.17,13.73-6.64,18.26-10.37,6.69-18.1,6.69h-7.86l-6.89,13h14.75c11.23,0,20.44-3.55,27.36-10.56S509,491.73,509,480.53s-3.5-20.42-10.4-27.41-16.13-10.56-27.36-10.56h-7.88l0,13Z" transform="translate(-290.25 -391.52)"/>
        <path mask="url(#mask2)" class="cls-1" d="M538.59,420.15a80.54,80.54,0,0,0-29.31-16.28c-11.06-3.51-23.79-5.29-37.83-5.29H407.86c-7.91.13-13,5.17-13,12.85V486c0,5.85-1.44,10.14-4.39,13.13s-7.05,4.4-12.62,4.4c-8.23,0-11.38-3.27-12.41-4.34-2.88-3-4.28-7.31-4.28-13.19V411.43c0-7.81-5.28-12.85-13.46-12.85H307.06a13.91,13.91,0,0,0-9.49,3.34,12.34,12.34,0,0,0-3.85,9.51v72.43c0,25.44,7.36,45.15,21.87,58.58A70,70,0,0,0,342.4,557.6c10.23,3.24,22.17,4.88,35.46,4.88h4.81a97.18,97.18,0,0,0,27.41-5.35,89.28,89.28,0,0,0,28.1-15.69,80.36,80.36,0,0,0,17.72-21.82l.47-1.12h.12l6.89-13h0v-49.9h.05l0-13H449.13v41.3c0,21.91-5.76,37.94-17.61,49s-29.85,16.61-53.62,16.62c-23.6,0-41.59-5.58-53.47-16.58s-17.69-27.06-17.69-49V411.6h41.38V486c0,9.28,2.66,16.75,7.92,22.21s12.65,8.34,21.79,8.34,16.47-2.78,21.89-8.28,8.13-13,8.13-22.27V411.6h63.6c25.11,0,44.79,6.15,58.5,18.3s20.33,28.67,20.33,50.63-6.65,38.52-20.33,50.63-33.39,18.31-58.5,18.31H445.11a53.82,53.82,0,0,1-13.85,13h40.19c14,0,26.77-1.77,37.83-5.28a80.7,80.7,0,0,0,29.31-16.29c16.39-14.52,24.71-34.84,24.71-60.38S555,434.68,538.59,420.15Z" transform="translate(-290.25 -391.52)"/>
    </g>
    
    <g id="Capa_2" data-name="Capa 2">
        <mask id="mask1">
            <path class="cls-2" d="M449.13,451.36l13.16.21a38.15,38.15,0,0,1,18.85,1.29c3.37,1.13,15.16,5.08,20,16.35,6.18,14.49-4.29,29-5,29.93-10.34,13.9-45.63,12.64-49.41,11.27">
                <animate
                    attributeName="stroke-dashoffset"
                    from="150"
                    to="285"
                    begin="0;loader_fase4.end"
                    dur="0.3125s"
                    fill="freeze"
                    id="loader_fase1"
                />
                <animate
                    attributeName="stroke-dashoffset"
                    from="285"
                    to="450"
                    begin="loader_fase2.end"
                    dur="0.3125s"
                    fill="freeze"
                    id="loader_fase3"
                />
            </path>
        </mask>
        <mask id="mask2">
            <path class="cls-3" d="M 454.57 438.71 L 456.06 511.2 L 439.57 533.43 A 58 58 0 0 1 425.15 544.52 A 59.64 59.64 0 0 1 410 550.14 C 396.77 553.33 381.7 556.95 363.29 554.43 C 356.53 553.5 317.41 548.14 304.14 520.57 C 300.54 513.09 300.48 507.38 300.29 490.57 C 300.04 469.81 299.58 458.02 299.43 418.14 C 299.43 411.51 299.36 406.14 299.33 402.72 L 355.55 402.06 Q 354.97 423.85 355.13 447.01 Q 355.34 471.93 356.43 495.29 C 360.73 507.4 373.08 514.39 384.71 512 C 394.71 509.95 402.57 501.33 404 490.57 C 402.64 470.46 402.54 454.05 402.71 442.57 C 403.05 420.24 404.17 400.84 404.17 400.84 S 404.17 401.02 404.11 402.08 L 486.5 403.36 A 86.7 86.7 0 0 1 524.21 416.64 A 80 80 0 0 1 543.27 433.79 A 74.81 74.81 0 0 1 554.21 453.07 Q 555.29 468.17 556.36 483.29 C 557.42 498.29 554.59 516.4 543.07 530.64 C 531.34 545.15 514.29 548.69 490.79 553.57 A 181.69 181.69 0 0 1 445.79 557.17 L 435 557" >
                <animate
                    attributeName="stroke-dashoffset"
                    from="3150"
                    to="2100"
                    begin="loader_fase1.end"
                    dur="2.1875s"
                    fill="freeze"
                    id="loader_fase2"
                />
                <animate
                    attributeName="stroke-dashoffset"
                    from="2100"
                    to="1050"
                    begin="loader_fase3.end"
                    dur="2.1875s"
                    fill="freeze"
                    id="loader_fase4"
                />
            </path>
        </mask>
    </g>
</svg>