<svg xmlns="http://www.w3.org/2000/svg" width="150.788" height="54.676" viewBox="0 0 150.788 54.676">
  <defs>
    <style>
      .cls-1 {
        fill: #ff5c00;
      }

      .cls-2 {
        fill: #fff;
      }

      .cls-2, .cls-3 {
        font-size: 21px;
        font-family: SegoeUI-Bold, Segoe UI;
        font-weight: 700;
      }

      .cls-3 {
        fill: #f75c03;
      }
    </style>
  </defs>
  <g id="Group_2" data-name="Group 2" transform="translate(0 11.58)">
    <path id="Path_1" data-name="Path 1" class="cls-1" d="M70.405,11.784A23.137,23.137,0,0,0,61.978,7.1,36.062,36.062,0,0,0,51.1,5.58H32.818a3.525,3.525,0,0,0-3.746,3.694V30.716a5.118,5.118,0,0,1-1.262,3.775,4.837,4.837,0,0,1-3.629,1.266,4.447,4.447,0,0,1-3.566-1.251,5.223,5.223,0,0,1-1.233-3.789V9.274a3.545,3.545,0,0,0-3.87-3.694H3.833a4,4,0,0,0-2.725.962A3.548,3.548,0,0,0,0,9.274V30.1C0,37.414,2.114,43.08,6.288,46.942A20.207,20.207,0,0,0,14,51.3a34.014,34.014,0,0,0,10.194,1.4h1.383a28.041,28.041,0,0,0,7.883-1.54,25.745,25.745,0,0,0,8.08-4.51,23.133,23.133,0,0,0,5.1-6.273l.135-.322h.04l.022-.044c0,.015,0,.029,0,.044h4.217a10.6,10.6,0,0,0,7.864-3.036A10.769,10.769,0,0,0,61.9,29.147a10.769,10.769,0,0,0-2.992-7.879,10.609,10.609,0,0,0-7.864-3.036H44.687V30.106c0,6.3-1.657,10.908-5.062,14.086s-8.581,4.777-15.418,4.777c-6.785,0-11.957-1.6-15.374-4.766s-5.088-7.78-5.088-14.1V9.329h11.9V30.716A8.849,8.849,0,0,0,17.923,37.1a8.322,8.322,0,0,0,6.266,2.4,8.489,8.489,0,0,0,6.3-2.381,8.763,8.763,0,0,0,2.341-6.4V9.326H51.11c7.217,0,12.875,1.77,16.819,5.264s5.845,8.245,5.845,14.558-1.913,11.076-5.845,14.558-9.6,5.264-16.819,5.264H43.528a15.434,15.434,0,0,1-3.983,3.742H51.1a36.045,36.045,0,0,0,10.875-1.522,23.137,23.137,0,0,0,8.428-4.682c4.715-4.177,7.1-10.019,7.1-17.364S75.12,15.961,70.405,11.784ZM48.769,21.971h2.271a6.917,6.917,0,0,1,5.2,1.924,7.087,7.087,0,0,1,1.909,5.249,7.087,7.087,0,0,1-1.909,5.249,6.926,6.926,0,0,1-5.205,1.924H48.766V21.971Z" transform="translate(0 -9.615)"/>
    <g id="Group_1" data-name="Group 1" transform="translate(84.788 -9.58)">
      <text id="Unión" class="cls-2" transform="translate(0 21)"><tspan x="0" y="0">Unión</tspan></text>
      <text id="Digital" class="cls-3" transform="translate(0 45.499)"><tspan x="0" y="0">Digital</tspan></text>
    </g>
  </g>
</svg>
