<svg xmlns="http://www.w3.org/2000/svg" width="53.512" height="35.675" viewBox="0 0 53.512 35.675">
  <defs>
    <style>
      .cls-1 {
        fill: #fff;
      }
    </style>
  </defs>
  <path id="Path_2023" data-name="Path 2023" class="cls-1" d="M.9,6.973A2.979,2.979,0,0,0,3.873,9.946H51.439a2.973,2.973,0,1,0,0-5.946H3.873A2.979,2.979,0,0,0,.9,6.973ZM3.873,24.81H51.439a3.2,3.2,0,0,0,2.973-2.973,3.2,3.2,0,0,0-2.973-2.973H3.873A3.2,3.2,0,0,0,.9,21.837,3.2,3.2,0,0,0,3.873,24.81Zm0,14.865H51.439A3.2,3.2,0,0,0,54.412,36.7a3.2,3.2,0,0,0-2.973-2.973H3.873A3.2,3.2,0,0,0,.9,36.7,3.2,3.2,0,0,0,3.873,39.675Z" transform="translate(-0.9 -4)"/>
</svg>
