<svg id="Capa_1" data-name="Capa 1" xmlns="http://www.w3.org/2000/svg" viewBox="0 0 179.92 493.19"><defs><style>.cls-1{fill:#fff;}</style></defs><title>Caricaturas</title><g id="Ricardo"><g id="Grupo_80" data-name="Grupo 80"><path id="Trazado_2070" data-name="Trazado 2070" class="cls-1" d="M141.46,443.7A78,78,0,0,1,124,441.38l-2.1-.55-7.12-65.9-11.68-90.52c-4.17,8.08-11.57,28.41-18.9,52.29A635.88,635.88,0,0,0,62.28,437.49a4,4,0,0,1-.7,3.07c-1.55,2.2-4.81,4.2-24.07.25l-.13,0L34,439.91a4.05,4.05,0,0,1-2,.39c-1.16-.07-2.78-.66-4-3-.61-1.21-1.18-2.36,2.3-35.72,1.68-16.06,3.53-32,3.55-32.18l0-.1L49.21,267c0-6.39.3-35.3,5.57-41.88L56,223.58l1.91.43c.55.12,54.4,12.1,81.12,8l.37,0,19.39-.75-3.67,78.7,1.47,92.63,2.69,34.37-.19.59c-.56,1.74-3,4.82-12.89,6A41.88,41.88,0,0,1,141.46,443.7Zm-13.78-7.92c3.64.78,11.39,2.16,17.8,1.41,4.43-.52,6.5-1.38,7.38-1.88l-2.55-32.62-1.47-92.91v-.1l3.35-72-12.36.48a95.85,95.85,0,0,1-14.26.92c-25.12,0-57.7-6.55-66.7-8.47-2.14,5.75-3.38,22.16-3.37,36.57l0,.47L40.11,370.17c-2.45,21.12-6,54.67-6.28,63.22l5,1.27c11,2.27,15.51,2.24,17.18,2A642.85,642.85,0,0,1,78.18,334.86c.85-2.79,5.38-17.41,10.35-31.29,2.9-8.1,5.43-14.5,7.53-19,3.11-6.69,5.6-10.4,9.18-9.56,3.26.77,3.67,4.86,3.82,6.47l12,92.73Z"/></g><g id="Grupo_81" data-name="Grupo 81"><g id="Grupo_3" data-name="Grupo 3"><g id="Grupo_2" data-name="Grupo 2"><g id="Grupo_1" data-name="Grupo 1"><g id="a_person_standing" data-name="a person standing"><g id="BODY"><g id="_Skin-2" data-name=" Skin-2"><path id="Trazado_2071" data-name="Trazado 2071" class="cls-1" d="M177.29,481.19c1-4.1-.48-7.36-4.76-9.77-.37-1-8.64-4.14-15.21-8.77A49.12,49.12,0,0,1,147,452.45a23.76,23.76,0,0,1-1.48-4.48c-.73-6.69-.31-11.07-.76-13.15,3-.4,10.44-196.49,9.24-203a19.78,19.78,0,0,0,5.93-2c.15,0-.1-.48-.09-.56,4.7-9.23-2.51-40.62-7-49.32,3.59-.09,8.32-.58,10.54-3.58a3.63,3.63,0,0,0,2.23-1.92,31.24,31.24,0,0,0,1.62-2.88c2.4-5,3.87-10.49,3.07-16,.16,0,.94,0,1-.27a10.25,10.25,0,0,0-.58-3.8A259.8,259.8,0,0,0,155,109.63c-3.27-7.21-10-9.85-17.07-12.56a83.51,83.51,0,0,0-10.28-3.72c0-.25.16-1-.3-.94s-.46,1-.67,1.55c-8.16-6.67-3-10.11-7.9-13.77-5.09-2.64-11.29-2.75-16.9-2.17-2.07.06-3.73,1-4.22,3.07a14.73,14.73,0,0,1-10.49,8.45c-.37-.66-1.41-2.58-2-2-6.57.23-16.52,2.64-22.67,4.44-6.17,1.58-12.41,4.45-14,11.16-2.93,11.94,1.73,61,9.37,70.49h.25a13,13,0,0,0,5.28,3.09c0,4.42-1.44,8.73-2.13,13-1.56,7.84-2.76,15.69-4.5,23.57,0,.88-3.32,12.9-.06,10.49.68.33,1.5.69,2.23,1-3.47,7.9-5,20.64-4.8,30.4a71.06,71.06,0,0,1-1.49,16.84C43.05,322.5,34.55,435.26,34.35,436.76s1,9.27,0,11.33c-.92,1.83-4.84.75-5.59,1.45-2,3.18-1.06,5.2-2.65,8.37a17.6,17.6,0,0,0-3.26,3.47c-1.22,1.17-21.37,14.4-20.56,16.41,0,0-.09,1-.12,1.17-1.72,10,1.14,9.92,10.4,11.39,13.53,2.38,23.64-2.21,35.07-8.34,3.8-2.56,9.2-7.46,7.44-13.25,0-.35-1.09-6.45-1.5-9.54,0,0,1.12-2.48-3.22-2.17.72-.78,2.28-10.92,1.75-12.26-.34-3.46.19-6.6,0-10.15,1.82.13,33.7-151.06,53.71-160.46.12,1-.12,2.88,1.21,3.06,6.19,48.27,21.06,156.41,21.75,156.6-1,5.52-1,18.29-1,23.77-.15.14-.87.79-1,.94,0,0-.49.43-.52.44l-.06-.14c-2.11,4.75-5.18,9.64-2.46,14.3-2-.15-1.7,3.73-1.79,5.51,1.15,3.49,33.77,12.91,41.06,13.36,2.39.41,13.54-3.13,15.69-3.64C181.49,487.86,178.77,482.69,177.29,481.19Z"/></g><g id="_Shoes-2" data-name=" Shoes-2"><path id="Trazado_2072" data-name="Trazado 2072" class="cls-1" d="M163.46,491.59a2.59,2.59,0,0,1-.48,0,30.81,30.81,0,0,1-3.8-.56c-1.56-.3-3.41-.71-5.5-1.22-4.16-1-8.94-2.34-13.46-3.74-4.92-1.52-9.17-3-12.31-4.31a34.25,34.25,0,0,1-4.06-1.93c-1-.61-1.65-1.14-1.79-1.55v-.17c0-.24,0-.51,0-.79a14.86,14.86,0,0,1,.24-3,2.73,2.73,0,0,1,.48-1.12,1.16,1.16,0,0,1,.93-.44h.11a8.56,8.56,0,0,1-.69-1.51,8,8,0,0,1-.33-1.53,9.39,9.39,0,0,1,.2-3.08,29.86,29.86,0,0,1,2.38-6.2c.25-.54.52-1.11.77-1.66l.12-.28.07.14.11-.1a2.18,2.18,0,0,1,.4-.34h0a1.8,1.8,0,0,1,.19-.2h0a4.16,4.16,0,0,0-.15,1.4,2,2,0,0,0,.39,1,2.32,2.32,0,0,0,1.17.77,6.45,6.45,0,0,0,1.95.25,5.48,5.48,0,0,0,3.6-1.56,22.9,22.9,0,0,0,2.85-3.14c1-1.27,1.89-2.36,2.68-2.64l.82-.3c1.23-.45,3.35-1.24,6.31-2.36.08.2.17.43.27.66a36.31,36.31,0,0,0,3,3.64c1,1.14,2.13,2.23,3.23,3.23a42.82,42.82,0,0,0,4.07,3.3,87.76,87.76,0,0,0,11,6.29c2.34,1.18,4,2,4.18,2.45a13,13,0,0,1,2.68,2,8.13,8.13,0,0,1,1.67,2.28,7.15,7.15,0,0,1,.68,2.6,9.48,9.48,0,0,1-.29,2.9,11.51,11.51,0,0,1,1.9,2.93,8.62,8.62,0,0,1,.62,1.79,3.13,3.13,0,0,1,0,1.52,1.31,1.31,0,0,1-1.1.93c-.51.12-1.52.41-2.8.78h0c-1.86.53-4.42,1.27-6.74,1.85A27.78,27.78,0,0,1,163.46,491.59ZM19.73,491c-1.15,0-2.33-.05-3.5-.15s-2.42-.27-3.65-.49l-.82-.13-.5-.08A45.16,45.16,0,0,1,5.74,489a7.73,7.73,0,0,1-1.85-.78,4.08,4.08,0,0,1-1.27-1.14A4.53,4.53,0,0,1,2,485.81a7.42,7.42,0,0,1-.27-1.75,23.93,23.93,0,0,1,.46-5.14v-.09c0-.31.11-1.07.11-1.08-.07-.18,0-.46.28-.83a9.53,9.53,0,0,1,1.17-1.29A55.19,55.19,0,0,1,8,472.09c3.41-2.63,7.67-5.62,10.78-7.8h0c2.19-1.53,3.77-2.64,4.09-3A16.8,16.8,0,0,1,26,458h0l.13-.11A12.68,12.68,0,0,0,27.26,454a15.23,15.23,0,0,1,.45-2.11,9.54,9.54,0,0,1,1.05-2.35,3.59,3.59,0,0,1,1.91-.29A10.39,10.39,0,0,0,32.9,449a8.68,8.68,0,0,1,2.22.75,17.3,17.3,0,0,1,2.42,1.34,15.33,15.33,0,0,1,2,1.55,3.72,3.72,0,0,1,1,1.36l0,.1c.07.22.14.52.24.86a41.74,41.74,0,0,0,1.31,4.25,8.91,8.91,0,0,0,.9,1.8c.34.49.68.74,1,.74a4.19,4.19,0,0,0,1.83-.51,11,11,0,0,0,2.2-1.51l.19-.17a17.22,17.22,0,0,1,3.4-2.6,4.24,4.24,0,0,1,1.27.22,1.36,1.36,0,0,1,.7.52,1.52,1.52,0,0,1-.08,1.45l0,.39c.33,2.38,1,6.18,1.26,8h0c.11.64.18,1.06.19,1.15.78,2.57.23,5.2-1.64,7.84a22.81,22.81,0,0,1-5.8,5.41c-2.79,1.5-4.9,2.58-6.86,3.51A73.33,73.33,0,0,1,34,488.35a47,47,0,0,1-6.93,1.91c-1.2.23-2.41.4-3.6.52s-2.5.17-3.74.17Z"/></g><g id="_Top" data-name=" Top"><path id="Trazado_2073" data-name="Trazado 2073" d="M56.45,243.74h0c.13-1.37.24-2.64.35-3.87h0c.21-2.48.39-4.63.74-6.69a25.2,25.2,0,0,1,1.75-6l-2.68-1c-.32-.14-.2-.69-.08-1.21a4.51,4.51,0,0,0,.12-.72c0-.23,0-.37-.17-.43a1.37,1.37,0,0,1-.74.32.5.5,0,0,1-.39-.2c-.85-1,.25-6.14.84-8.87.14-.57.25-1.14.34-1.72,1-4.69,1.89-9.43,2.72-14,.56-3.12,1.14-6.35,1.77-9.52.24-1.47.56-2.95.87-4.39s.61-2.86.85-4.3a28.85,28.85,0,0,0,.41-4.35,15.67,15.67,0,0,1-3.52-1.64A9.11,9.11,0,0,1,58,173.74l-.09-.08h-.24a19.55,19.55,0,0,1-2.72-5.25,70.29,70.29,0,0,1-2.38-8.06,185.61,185.61,0,0,1-3.54-21c-.44-3.7-.79-7.44-1.06-11.1s-.44-7.12-.51-10.32,0-6.18.1-8.65a34.38,34.38,0,0,1,.75-6.06,12.23,12.23,0,0,1,.81-2.34,11.82,11.82,0,0,1,1.2-2,12.84,12.84,0,0,1,1.51-1.71,15.26,15.26,0,0,1,1.78-1.43,21.11,21.11,0,0,1,4.15-2.19,34.57,34.57,0,0,1,4.56-1.46l.37-.11c2.07-.6,6.26-1.76,11-2.75,2.12-.44,4.11-.8,5.91-1.06a49.89,49.89,0,0,1,5.32-.52.36.36,0,0,1,.25-.11c.22,0,.49.21.81.62a9.06,9.06,0,0,1,.73,1.13l.2.34c.57,1.68,1.2,3.28,1.87,4.77a43.36,43.36,0,0,0,2.15,4.18,34.83,34.83,0,0,0,2.42,3.6,28.67,28.67,0,0,0,2.7,3,24.7,24.7,0,0,0,3,2.43,21.91,21.91,0,0,0,6.79,3.11,24.71,24.71,0,0,0,3.81.67c1.23.12,2.4.18,3.48.18a23.44,23.44,0,0,0,2.91-.16,16.75,16.75,0,0,0,2.54-.49,13,13,0,0,0,2.16-.8A10.17,10.17,0,0,0,122.5,109a8.07,8.07,0,0,0,1.41-1.45,8.3,8.3,0,0,0,1-1.77,11.19,11.19,0,0,0,.68-2.1,16.5,16.5,0,0,0,.3-2.42l1.17-8.78c.26,0,.23.4.21.69l.22.3a60.54,60.54,0,0,1,7.82,2.77h0l2.23.9,1,.41c1.58.61,3.27,1.28,4.86,2A32.72,32.72,0,0,1,148,102a20,20,0,0,1,3.8,3.25,17.28,17.28,0,0,1,1.57,2,18.38,18.38,0,0,1,1.31,2.38c1.59,3.28,3.14,6.72,4.61,10.21s2.77,6.84,4.08,10.4c1.24,3.38,2.46,6.93,3.63,10.56,1.1,3.4,2.19,7,3.25,10.68a10.24,10.24,0,0,1,.57,3.8c0,.16-.45.21-.73.24l-.24,0c.71,4.88-.32,10.24-3.07,16a32.61,32.61,0,0,1-1.62,2.88,4.06,4.06,0,0,1-.91,1.19,3.66,3.66,0,0,1-1.31.72,6.69,6.69,0,0,1-2.08,1.81,11.12,11.12,0,0,1-2.68,1.07,26.09,26.09,0,0,1-5.77.7A59.89,59.89,0,0,1,156,190c.63,2.19,1.23,4.51,1.78,6.91s1.09,5,1.53,7.45.82,5.12,1.08,7.48c.29,2.53.45,4.88.49,7a38.14,38.14,0,0,1-.29,5.95,13.81,13.81,0,0,1-1.23,4.41s0,.13,0,.29a10,10,0,0,1-.06,2.19,13.74,13.74,0,0,1-3.15,1.23c-1.17.33-2.4.59-3.39.8l-.67.15-3.52.5c0,.24.47.47,1.07.79a9.22,9.22,0,0,1,2.56,1.81,5.06,5.06,0,0,1,1,1.61,5.93,5.93,0,0,1,.4,2.28l-97.2,2.89Zm25.08-91.51h0a24.52,24.52,0,0,1,4.28.4,29.64,29.64,0,0,1,4.44,1.18l.19.06c3.89,1.38,6.71,2.45,8.38,3.19l6.08,5.13-2,9.14.47,0c1.79.08,3.42.12,4.84.12a37,37,0,0,0,5.47-.32,8.53,8.53,0,0,0,1.64-.4,2.17,2.17,0,0,0,.9-.56,5.75,5.75,0,0,0,1-1.7,3.92,3.92,0,0,0,.24-1.73l-.19-.45a85.69,85.69,0,0,1-3.26-8.92,23.78,23.78,0,0,1-.67-3,7,7,0,0,1,0-2,15.79,15.79,0,0,0,.29-2.83,6.78,6.78,0,0,0-.29-2.14l-.42-.22c-1.72-.89-3.4-1.68-5-2.34a47.88,47.88,0,0,0-4.61-1.67,32.77,32.77,0,0,0-4.25-1,23.89,23.89,0,0,0-3.87-.34,71.62,71.62,0,0,0-7.75.45c-2.65.29-5.42.74-8.23,1.33l-.89,1.25.88,7.51a21.18,21.18,0,0,1,2.25-.11h0Z"/></g><g id="_Ink-2-2" data-name=" Ink-2-2"><path id="Trazado_2074" data-name="Trazado 2074" d="M162.91,493.19h-.54a76.87,76.87,0,0,1-10-1.34,103.29,103.29,0,0,1-10.59-2.7,98.52,98.52,0,0,1-10.13-3.77,63.76,63.76,0,0,1-8.62-4.53,4.83,4.83,0,0,1-1.58-2.1,5.2,5.2,0,0,1-.35-1.3,4.56,4.56,0,0,1,0-1.33,4.15,4.15,0,0,1,.71-1.92,4,4,0,0,1,1.74-1.39,6.94,6.94,0,0,1-.94-3.53,16.4,16.4,0,0,1,.55-3.56v0c.08-.32.15-.66.23-1a20.47,20.47,0,0,1,2.26-6.05.2.2,0,0,1,.18-.1.17.17,0,0,1,.18.15,42.41,42.41,0,0,1-.16,5.86v0l-.05.61,0,.24c0,.48-.08.9-.12,1.26a7.26,7.26,0,0,0,.2,3.34,4,4,0,0,0,.63,1.29,7.26,7.26,0,0,0,1.16,1.19,15.79,15.79,0,0,0,3.42,2,71.62,71.62,0,0,0,8.71,3.1h-.11c1.92.58,3.57,1.08,4.8,1.57,3.91,1.19,7.92,2.27,11.91,3.2l.3.06c.58.12,1.18.26,1.75.4h0a29.91,29.91,0,0,0,6.65,1,13.16,13.16,0,0,0,2.08-.16,5.28,5.28,0,0,1,1.45-.71c.53-.17,1.08-.3,1.62-.42a7.74,7.74,0,0,0,3.4-1.34,5.11,5.11,0,0,0,1.08-5,14.58,14.58,0,0,0-2.42-4.82,2.92,2.92,0,0,1-.83.12,3.54,3.54,0,0,1-1.65-.44,12.18,12.18,0,0,1-1.5-.94c-.3-.2-.58-.4-.86-.56l-.07,0a3.68,3.68,0,0,0-1.94-.56,4.49,4.49,0,0,1-2.24-.56l-.32.06c-1,.18-2,.38-2.79.54h0a26,26,0,0,1-2.75.49c-.07,0-.1,0-.1,0s1.35-.65,4.72-1.84c-1.39-.85-2.74-1.68-4-2.55A25.85,25.85,0,0,0,154,466h0a19.67,19.67,0,0,1-4.29.93,18.53,18.53,0,0,1,5.86-3.13l.31-.12a28.76,28.76,0,0,1-3.54-3.07l-1,.25a39.5,39.5,0,0,1-5.48,1.14c-.17,0-.27,0-.28-.08s.38-.41,1.24-.86,2.27-1.11,4.22-2a10.68,10.68,0,0,1-1.74-3c-.27-.58-.54-1.18-.86-1.74a7,7,0,0,0-1.18-1.53,22.22,22.22,0,0,0-8.09,3.54,13.38,13.38,0,0,0-2.28,2.17l0,0-.18.2a11.82,11.82,0,0,1-1.46,1.54,9.31,9.31,0,0,1-1.57,1.15,7.6,7.6,0,0,1-1.63.71,5.81,5.81,0,0,1-1.6.25,4.61,4.61,0,0,1-1.51-.26,4.1,4.1,0,0,1-1.34-.78,6.5,6.5,0,0,1-1.94-3.27.1.1,0,0,1,0-.09.14.14,0,0,1,.12-.06.09.09,0,0,1,.08.05v0a4.49,4.49,0,0,0,1.61,1.82,5.26,5.26,0,0,0,1.17.56,4.13,4.13,0,0,0,1.78.18,3.5,3.5,0,0,0,1.22-.4h0a6.84,6.84,0,0,0,1.72-1.3,18.58,18.58,0,0,0,1.42-1.66h0a15.76,15.76,0,0,1,1.76-2,17,17,0,0,1,1.84-1.42,20.5,20.5,0,0,1,2-1.2,30.45,30.45,0,0,1,4.37-1.85,28.66,28.66,0,0,1-.75-5c-.13-1.79-.18-3.75-.14-5.38-1.2.06-2.4.08-3.55.08-2,0-3.93-.08-5.8-.24s-3.84-.43-5.74-.79a86.74,86.74,0,0,1,.48,11.16h0c0,2.55,0,5,.16,7a1.26,1.26,0,0,1-.21,1.14,2.1,2.1,0,0,1-.74.58,2.25,2.25,0,0,1-.92.21,1.29,1.29,0,0,1-.74-.2,1,1,0,0,1-.42-.65c-.09-2.63,0-5.93.21-9.53.22-3.4.57-7,1-10l-.35-.08a4.22,4.22,0,0,1-1-.34h-.2a1.47,1.47,0,0,1-.71-.18,1.72,1.72,0,0,1-.55-.49,4.78,4.78,0,0,1-.7-1.7,26.09,26.09,0,0,1-.45-4.66h0a18.78,18.78,0,0,0-.24-2.8c-.67-9.21-1.49-18.59-2.51-28.69-.9-9-1.94-18.36-3.18-28.62-2.3-19.06-4.94-38.4-7.5-57.1v-1.18c-1.43-10.76-2.9-21.9-4.29-32.85a1.52,1.52,0,0,1-.85-.92,6.29,6.29,0,0,1-.31-1.35v-.05c-5.9,4-8.27,11.1-10.57,17.91-.8,2.38-1.56,4.62-2.46,6.76-1.3,3.66-2.59,7.48-3.82,11.34-1.18,3.68-2.36,7.53-3.49,11.44-2.1,7.2-4.12,14.76-6.17,23.09-1.71,6.94-3.48,14.57-5.4,23.31-1.72,7.79-3.39,15.72-5,23.4h0C65,409.11,62,423.27,58.65,437.1h0v-.71a1.14,1.14,0,0,1,.86.61.88.88,0,0,1-.06.86,2.83,2.83,0,0,1-1.49,1.4,5.25,5.25,0,0,1-2.07.35,18.6,18.6,0,0,1-2.24-.17c-.4,0-.8-.09-1.17-.11.1,1.66,0,4.11-.1,6.71a59.42,59.42,0,0,0,0,8.95,2.61,2.61,0,0,1,2.42,1.47,9.49,9.49,0,0,1,.8,2.82h0c0,.24.08.46.13.68l0,.18c.1.68.27,1.5.44,2.36.32,1.59.68,3.38.84,5a8.14,8.14,0,0,1-.37,4.15,3.68,3.68,0,0,1,.77,1.43,4,4,0,0,1,.13,1.51,5.52,5.52,0,0,1-.79,2.23,6.5,6.5,0,0,1-1.56,1.78,26.92,26.92,0,0,1-4.9,2.64c-.76.34-1.55.7-2.3,1.08-2.78,1.12-5.6,2.52-8.32,3.88h0A97,97,0,0,1,29.28,491a38.56,38.56,0,0,1-5.48,1.58c-.95.19-1.9.34-2.83.44a28,28,0,0,1-2.9.15,26.06,26.06,0,0,1-6.28-.76l-.61-.13a59.11,59.11,0,0,1-6-1.48A13,13,0,0,1,3,489.91a6.3,6.3,0,0,1-1.54-1.11,4.7,4.7,0,0,1-1-1.47A6.47,6.47,0,0,1,0,485.39a20.32,20.32,0,0,1,.52-5.76,8.36,8.36,0,0,1-.44-1.5A7.57,7.57,0,0,1,0,476.62a5.61,5.61,0,0,1,.88-2.83,12,12,0,0,1,2.4-2.26c.9-.67,1.9-1.27,2.86-1.86h.27c.91-.56,1.86-1.14,2.71-1.76,1.91-1.28,3.9-2.52,5.82-3.7h0c2.57-1.6,5.23-3.24,7.72-5,0,0-.06-.08-.05-.11s.1-.07.18-.07h.07A6.89,6.89,0,0,0,24,457.87a8.7,8.7,0,0,0,.83-1.33A21.45,21.45,0,0,0,26,453.62a14.43,14.43,0,0,1,1.83-4.13,1.83,1.83,0,0,1,.59-.81,3.14,3.14,0,0,1,1-.54,7.26,7.26,0,0,1,2.49-.4c.32,0,.64,0,1,.05a9,9,0,0,1,0-2.2c.07-.9.2-1.94.38-3s.37-1.9.62-2.84a5.34,5.34,0,0,1,.69-1.7.3.3,0,0,1,.22-.14c.16,0,.29.25.39.74a15.91,15.91,0,0,1,.24,2.49v.13c0,.29,0,.72,0,1.21,0,1,.06,2.26,0,3.39a8.14,8.14,0,0,1-.24,2.46,10.38,10.38,0,0,1,1.92.8,9.5,9.5,0,0,1,1.57,1.08,10.65,10.65,0,0,1,2.3,2.79,19.14,19.14,0,0,1,1.46,3.31c.39,1.15.71,2.3,1,3.42h0l.18.66.09,0,.14,0H44a1.38,1.38,0,0,1,1,.55,5.29,5.29,0,0,0,1.23-1.13,15.75,15.75,0,0,0,1-1.35h0a8.19,8.19,0,0,1,2.06-2.4,1.17,1.17,0,0,1-.43-.82,1.76,1.76,0,0,1,.15-1,58,58,0,0,0,1-5.85c.22-1.64.45-3.33.72-4.88a24.44,24.44,0,0,1,1-4c-1.66-.25-3.35-.47-5-.69h0c-2.17-.28-4.41-.57-6.6-.94a60.9,60.9,0,0,1-6.51-1.41,1.49,1.49,0,0,1-1,.42,1.33,1.33,0,0,1-.93-.37,1.27,1.27,0,0,1-.31-.93c.45-7.33,1-14.88,1.61-22.43.6-7.3,1.3-14.84,2.06-22.4.74-7.27,1.57-14.79,2.46-22.35.86-7.24,1.8-14.75,2.81-22.31.86-7.34,2-15.34,3.41-24.46,1.28-8.13,2.69-16.38,4.05-24.36h0c1.91-11.17,3.89-22.72,5.53-34.12l0-1.77c0-2.8.07-5.79.18-8.72.13-3.23.33-6.07.62-8.69a74.84,74.84,0,0,1,1.4-8.56c.32-1.44.7-2.86,1.11-4.2s.91-2.81,1.44-4.14c-.42-.18-.79-.35-1.13-.52a2.48,2.48,0,0,1-.93.22,1.12,1.12,0,0,1-.91-.43,3,3,0,0,1-.5-1.65,12.53,12.53,0,0,1,.09-2.45c.2-1.78.63-3.75,1-5.33h0c.24-1.07.42-1.92.46-2.36.67-3.6,1.39-7.26,2.08-10.8v.63c1.67-8.42,3.4-17.14,4.61-25.75a15.3,15.3,0,0,1-2.57-1.18,11.81,11.81,0,0,1-5.22-6.29,55.48,55.48,0,0,1-2.58-8,176.3,176.3,0,0,1-3.82-22c-.92-7.8-1.52-15.89-1.68-22.79-.08-3.45-.05-6.48.09-9a30.15,30.15,0,0,1,.78-6,12.21,12.21,0,0,1,2.07-4.55,14.93,14.93,0,0,1,3.48-3.39,22.23,22.23,0,0,1,4.39-2.39,31.83,31.83,0,0,1,4.79-1.54l.94-.27c3.17-.88,6.94-1.9,10.84-2.7A76.46,76.46,0,0,1,85.21,87.1a.93.93,0,0,1,.56-.15c.29,0,.54.08.59.18a4.42,4.42,0,0,1,1.29,1.4,11.81,11.81,0,0,0,6.41-2.33,9.92,9.92,0,0,0,2.47-3.5,9,9,0,0,1,1.12-1.9,3.1,3.1,0,0,1,1.81-1.1h0a.91.91,0,0,1,.57.17,1,1,0,0,1,.31.43,1.18,1.18,0,0,1,0,.67,1.1,1.1,0,0,1-.39.58l0,0a3.36,3.36,0,0,0-1.24,1.52,9.24,9.24,0,0,1-1.45,2.51,9.49,9.49,0,0,1-2.09,1.91A9.63,9.63,0,0,1,87.92,89c.76,1.42,1.42,2.84,2,4.2v0c.65,1.43,1.32,2.91,2.12,4.38a22.1,22.1,0,0,0,3.61,5.32,23.7,23.7,0,0,0,4.81,4.06,23.25,23.25,0,0,0,5.5,2.59,18.77,18.77,0,0,0,5.66.91,14.39,14.39,0,0,0,4.78-.78,12,12,0,0,0,4.14-2.42,13.3,13.3,0,0,0,3.15-4.21,20.18,20.18,0,0,0,1.79-6.16,3.84,3.84,0,0,1-1.46-.65A6.32,6.32,0,0,1,122.8,95,11.67,11.67,0,0,1,121,91.32a13.51,13.51,0,0,1-.66-4.51,5.24,5.24,0,0,1,1.14-3.4l.08.35c.07.37.15.75.22,1.1h0A35.5,35.5,0,0,0,123,89.93a13.36,13.36,0,0,0,1.09,2.33,10.57,10.57,0,0,0,1.7,2.18l.17-.06c.13-.58.25-1.08.4-1.54a1.09,1.09,0,0,1,.44-.61,1.22,1.22,0,0,1,.67-.2,1.18,1.18,0,0,1,.85.34,1.08,1.08,0,0,1,.28.8c2.36.73,4.9,1.65,7.77,2.81,2.56,1,5.12,2.16,7.6,3.25h0l1.34.59a20.74,20.74,0,0,1,8.52,6.89,21.05,21.05,0,0,1,1.88,3.21c1.44,3,2.86,6.16,4.21,9.41,1.28,3,2.54,6.28,3.77,9.61,2.16,5.89,4.28,12.3,6.48,19.6a16.29,16.29,0,0,0,.59,2.1c.68,2.17,1.61,5.13.93,6.38a1.09,1.09,0,0,1-.69.55,22.24,22.24,0,0,1,.07,4.08,28.93,28.93,0,0,1-.59,4,36.74,36.74,0,0,1-2.7,7.71c-.25.42-.47.86-.7,1.33h0a14.38,14.38,0,0,1-1.32,2.28,4.69,4.69,0,0,1-.87.91,3.46,3.46,0,0,1-1.1.63,7.55,7.55,0,0,1-2,1.75,10.63,10.63,0,0,1-2.45,1.12,20.87,20.87,0,0,1-5.32.9c.58,1.36,1.18,3,1.78,4.8s1.21,3.86,1.79,6c1.22,4.54,2.28,9.35,3,13.93.42,2.48.75,4.89,1,7.16s.38,4.69.42,6.75c.06,4.59-.4,8.2-1.4,10.74a1,1,0,0,1-.36,1,4.38,4.38,0,0,1-1.25.78,21.47,21.47,0,0,1-3.25,1h0c-.37.09-.7.17-.92.24a59.89,59.89,0,0,1,.75,9.55c0,3.52-.2,7-.38,9.59-.53,6.8-1,13.63-1.42,20.31s-.79,13.64-1.08,20.33-.55,13.65-.72,20.34-.29,13.66-.33,20.35,0,13.66.08,20.36.26,13.65.5,20.34.57,13.65,1,20.34.88,13.63,1.43,20.31c.25,3.25.53,6.65.84,10.12l.18,2a74.48,74.48,0,0,1,.38,8,1.56,1.56,0,0,1-.41,1.07,1.84,1.84,0,0,1-1.17.53,10.29,10.29,0,0,1-3.46,1.34,34.75,34.75,0,0,1-3.8.54h0c-.64.07-1.25.13-1.86.21.18,1,.33,2.1.49,3.3v-.14c.15,1.2.32,2.44.52,3.58a17.44,17.44,0,0,0,.75,3,3.74,3.74,0,0,1,.66-.09,1.91,1.91,0,0,1,1,.28,1.13,1.13,0,0,1,.49.59,1,1,0,0,1-.21,1,2.09,2.09,0,0,1-.7.55,8.45,8.45,0,0,1,1.94,1.53,23.88,23.88,0,0,1,1.6,1.87h0a20.51,20.51,0,0,0,2,2.21,8.67,8.67,0,0,1,3.05-.72,2.57,2.57,0,0,1,1.13.23.73.73,0,0,1,.42.57.78.78,0,0,1-.13.47,1.9,1.9,0,0,1-.49.49,5.16,5.16,0,0,1-2.05.74,42.19,42.19,0,0,0,3.66,2.71h.09c.34-.05.74-.15,1.17-.26h0a10.07,10.07,0,0,1,2.31-.4,1.51,1.51,0,0,1,1.57.84,1,1,0,0,1-.11.83,3,3,0,0,1-2.11.89l2.85,1.78.87-.4a14.61,14.61,0,0,1,1.63-.71,1.82,1.82,0,0,1,.46-.06,1.23,1.23,0,0,1,.94.4.63.63,0,0,1,.17.38,1.24,1.24,0,0,1-.46,1.14,2.55,2.55,0,0,1-1.56.54,5.72,5.72,0,0,0,2.43.89,3.58,3.58,0,0,1,2.71,1.41,7.38,7.38,0,0,1,2.59,1.75,8.85,8.85,0,0,1,1.73,2.58,9.82,9.82,0,0,1,.81,3,9.12,9.12,0,0,1-.18,3,7.78,7.78,0,0,1,1.73,2.26,7.07,7.07,0,0,1,.77,2.73,3.68,3.68,0,0,1-.83,2.78,5,5,0,0,1-2.67,1.66c-2.21.74-4.63,1.47-7.39,2.25l-.26.09c-.95.33-1.91.61-2.89.85A13.39,13.39,0,0,1,162.91,493.19Zm-39.77-20.25a4.73,4.73,0,0,0-.2,3.74,5.33,5.33,0,0,0,1.49,2,9,9,0,0,0,2.46,1.5c2.94,1.37,5.87,2.61,8.7,3.7,3.08,1.19,6.14,2.23,9.11,3.09a94.9,94.9,0,0,0,9.42,2.26,78,78,0,0,0,9.63,1.2c2-.48,4-1.12,5.94-1.75h-.59c1.79-.58,3.64-1.18,5.48-1.63l.16,0a3.19,3.19,0,0,0,1.43-.5,1.47,1.47,0,0,0,.37-1.34l.05-.55a18.83,18.83,0,0,0,.09-2.91,5.66,5.66,0,0,1-1.24,1.82A8.85,8.85,0,0,1,173.6,485a12.17,12.17,0,0,1-2.18,1,15.32,15.32,0,0,1-2.28.6,10.43,10.43,0,0,1-4.53,1,29.76,29.76,0,0,1-7.19-1.24h-.58s-2.13-.6-3.16-.82c-1.43-.43-5.08-1.64-5.08-1.64h.05c-4.38-1.22-9.85-2.73-14.61-4.52-1.24-.47-2.4-.94-3.44-1.4s-2.16-1-3.06-1.52A19.89,19.89,0,0,1,125,474.7a10.75,10.75,0,0,1-1.87-1.76Zm-121,8.59h0c.19.91.28,1.7.37,2.39.17,1.38.29,2.37,1,3.13A4,4,0,0,0,5,488a15.29,15.29,0,0,0,2.9.76,36.13,36.13,0,0,0,5.12,1.27,30.09,30.09,0,0,0,4.83.41,28.6,28.6,0,0,0,4.13-.31,29.19,29.19,0,0,0,4-.89,40.66,40.66,0,0,0,7.85-3.3c2.48-1.2,5.06-2.32,7.57-3.4h0c3.56-1.54,7.25-3.13,10.65-5l.08-.06a6,6,0,0,0,1.6-1.64,2.81,2.81,0,0,0,.4-1,2,2,0,0,0-.14-1.11l-.17,0-.36.11h0a9.83,9.83,0,0,1-3,.61,4.14,4.14,0,0,1-1.16-.14c-6.22,2.11-12.75,4.6-21.16,8.09-1.17.56-2.31,1.07-3.41,1.52-1.3.52-2.57,1-3.78,1.35a31.67,31.67,0,0,1-4,1,23.59,23.59,0,0,1-4,.38,17.18,17.18,0,0,1-3-.27,13.22,13.22,0,0,1-2.89-.88,12,12,0,0,1-2.64-1.58,12.86,12.86,0,0,1-2.31-2.41Zm10.46,1.64h.58a18.84,18.84,0,0,0,3.27-.29,23.9,23.9,0,0,0,3.11-.76,62.94,62.94,0,0,0,5.95-2.29c1.46-.63,3-1.27,4.48-1.8q2.88-1,5.65-2.23h0c2.53-1.07,5.39-2.28,8-3.23a21.34,21.34,0,0,1,6.18-1.65,1.26,1.26,0,0,1,1.08.37,7.83,7.83,0,0,1,1-.4h0a4.51,4.51,0,0,0,1.88-1,46,46,0,0,0-1-9.5h0c0-.31-.12-.69-.18-1.05s-.12-.47-.19-.72h0a5.28,5.28,0,0,1-.27-1.24,4.76,4.76,0,0,0-1.47.91,16.14,16.14,0,0,0-1.23,1.25v1A9.54,9.54,0,0,1,47.77,462a4.06,4.06,0,0,1-1,.48,3.94,3.94,0,0,1-1.23.18,2.88,2.88,0,0,1-.41,0,1.25,1.25,0,0,1-1.09.46,3.17,3.17,0,0,1-1.91-.67,3.5,3.5,0,0,1-1.06-2.21c0-.1-.05-.23-.07-.34l-.09-.4c-.18-.82-.41-1.63-.67-2.43a11.52,11.52,0,0,0-1.08-2.34A6.93,6.93,0,0,0,37.71,453a9.67,9.67,0,0,0-2-1.3A10.69,10.69,0,0,0,31,450.6a8.59,8.59,0,0,0-2.52.37,21.57,21.57,0,0,0-.1,2.9,18.09,18.09,0,0,1-.15,3.29,7.14,7.14,0,0,1-.42,1.57,5.87,5.87,0,0,1-.85,1.45c2,.33,4,.7,5.63,1l1.71.34a4.34,4.34,0,0,1,1.25.4,1.12,1.12,0,0,1,.42.36.73.73,0,0,1,.1.52.7.7,0,0,1-.33.5,1.29,1.29,0,0,1-.64.13,5.6,5.6,0,0,1-1.34-.22l-.33-.09c-2.7-.74-5-1.37-7.22-2.08A14.36,14.36,0,0,1,24,462.8c-.8.54-1.67,1.05-2.43,1.51h0l.67.07.53.05.18,0h0c2.12.22,4.3.44,6.43.84a1,1,0,0,1,.54.36.71.71,0,0,1,.11.51.62.62,0,0,1-.24.42.81.81,0,0,1-.54.19h-.12l-2-.49h0c-2.11-.52-4.3-1.06-6.48-1.43l-1.5.92,0,0-.06,0-2.58,1.57c1.78.24,3.58.34,5.33.43h0c1,.05,2,.11,2.93.19a1.3,1.3,0,0,1,1.33,1.28h0a1,1,0,0,1-.31.69,1.34,1.34,0,0,1-.88.3h-.15a40.78,40.78,0,0,1-9.55-2.34L13.62,469c-1.71,1.12-3.71,2.43-5.71,3.7l-.85.51a8.59,8.59,0,0,0-2.6,2,3.56,3.56,0,0,0-.59,1.93,3.81,3.81,0,0,0,.5,1.81,8.12,8.12,0,0,0,3.46,3,10.72,10.72,0,0,0,4.63,1.2ZM58.63,225.54a.33.33,0,0,1,.27.15c4.82,1.49,9.7,2.82,14.5,4s9.88,2.16,14.75,2.95,10,1.42,14.92,1.83,10.07.63,15,.63h0c3.6,0,7.23-.11,10.77-.33s7.22-.58,10.75-1c4.45-.56,9.08-1.34,14.13-2.4a.34.34,0,0,1,.08-.26.4.4,0,0,1,.29-.12.33.33,0,0,1,.34.24l.66-.11h0c.8-.14,1.64-.29,2.45-.4a1.55,1.55,0,0,1,0-1.06,22.67,22.67,0,0,0,1-4.3,35.27,35.27,0,0,0,.26-4.47,89.9,89.9,0,0,0-.63-9h0c-.05-.44-.1-.9-.14-1.35-.28-3.26-.72-6.79-1.36-10.82-.56-3.58-1.23-7.22-1.87-10.73v0c-.41-2.24-.83-4.56-1.23-6.85-3-.13-6.07-.41-9-.68h0c-4.17-.38-8.49-.78-12.76-.78-.46,0-.92,0-1.36,0a4.62,4.62,0,0,1-.69,1.17,4.94,4.94,0,0,1-1,1,4.46,4.46,0,0,1-2.62.92,3.18,3.18,0,0,1-1.57-.39A3.88,3.88,0,0,1,123,181.8a12.76,12.76,0,0,1-.88-2c-.1-.25-.2-.52-.3-.76-1.26-3-2.55-6.08-3.8-9h0l-.43.1a47.52,47.52,0,0,1-11.5,1.65c-.65,0-1.3,0-1.93-.06a25.89,25.89,0,0,0-.47,3.16,28.8,28.8,0,0,1-.8,4.8c-.5,1.68-1.24,2.66-2.25,3a2.91,2.91,0,0,1-1,.17,3.15,3.15,0,0,1-1.32-.3,1.9,1.9,0,0,1-.9-.89c-4.62-.09-9.33-.4-13.89-.71l-5.74-.38c-1-.08-2.11-.14-3.14-.21h0c-1.93-.11-3.92-.23-5.87-.47a31.9,31.9,0,0,1-5.72-1.17,30.89,30.89,0,0,1,.56,4.29,26.23,26.23,0,0,1-.11,4.34c-.26,2.88-.67,6-1.26,9.57-.54,3.18-1.16,6.39-1.76,9.5h0c-.58,3-1.17,6-1.69,9-.57,3.39-1,6.36-1.25,9.09l0,.59,0,0v.07l1.07.32ZM85.28,87.4h0c-3.4,1-6.88,1.9-10.26,2.77-4.66,1.2-9.49,2.44-14.14,4a19.7,19.7,0,0,0-4.57,1.72,13.87,13.87,0,0,0-3.57,2.71,12.82,12.82,0,0,0-3.35,8.54c-.14,3.7-.14,7.55,0,11.46.11,3.68.35,7.54.69,11.46.61,7,1.59,14.46,3,22.75l.13.68c.14.74.29,1.5.43,2.23h0c.61,3.22,1.24,6.54,2,9.78.42,1.74.83,3.32,1.28,4.82.5,1.68,1,3.22,1.59,4.71a24.46,24.46,0,0,0,6.1,1.86,48.75,48.75,0,0,0,6.38.66c6,.3,12.29.63,18.51,1l4.84.31q.42,0,.9,0c1.25,0,2.66.05,3.5.92A.38.38,0,0,0,99,180a.64.64,0,0,1,.19.08l0,0,.14.11a.5.5,0,0,0,.34.2h0c.33-.1.48-.71.56-1.08l0-.1v0c.27-1.07.5-2.16.71-3.22h0c.18-.77.35-1.56.53-2.34.34-1.25.7-3.8.7-3.8v-.33a36.91,36.91,0,0,1,2-7,29.25,29.25,0,0,1-5.8-4.71l-2.06-.73a113.2,113.2,0,0,0-15-4.43,1.34,1.34,0,0,1-.48.88,1.45,1.45,0,0,1-.89.34,1,1,0,0,1-1-.63,35.13,35.13,0,0,1-1.23-5.74h0c-.19-1.19-.38-2.42-.64-3.6-.43-2.53-.89-5.09-1.33-7.57V136h0a192.57,192.57,0,0,1-3.56-20.52q1.5,4.27,2.57,8.67c.75,3,1.43,6.17,2.22,9.23h0c.59,3.29,1.32,6.68,2.14,9.86a.17.17,0,0,1,.1,0,.16.16,0,0,1,.16.14h0a34.91,34.91,0,0,1,25.44.32c.87.35,1.77.69,2.63,1h0c1.14.43,2.31.88,3.46,1.36a4.38,4.38,0,0,0,.86.3c.63.17,1.28.35,1.44.91a3.9,3.9,0,0,1,1-1.48,2.1,2.1,0,0,1,1.36-.49c.28,0,.46.09.5.26a96.78,96.78,0,0,1,10.12,2.14h0c2.49.62,5.06,1.26,7.61,1.74,1.38.25,2.64.44,3.85.57a36.08,36.08,0,0,0,3.89.22c.73,0,1.47,0,2.17-.08a43.56,43.56,0,0,1-1-10.92c0-.56,0-1.21,0-1.82l0-.48c0-.26,0-.52,0-.8v-.06c.09-2,.19-4.17.43-6.24a21.54,21.54,0,0,1,1.28-5.65,86.14,86.14,0,0,0-.32,13c.16,3.85.54,7.95,1.17,12.88a14.56,14.56,0,0,1,1.75-.13,4.73,4.73,0,0,1,1.45.18,1,1,0,0,1,.63.46.78.78,0,0,1-.22.83,4.17,4.17,0,0,1-1.6,1,7.42,7.42,0,0,1-2.6.46h-.24c-.65.05-1.31.07-2,.07a31.07,31.07,0,0,1-4.91-.4,43.72,43.72,0,0,1-4.8-1.06c-3.17-.88-6.33-2-9.39-3.2h0c-1.47-.55-3-1.11-4.47-1.63a8.51,8.51,0,0,0-2.9-.75,1.69,1.69,0,0,0-1.28.47c-.67.7-.74,2.16-.64,4.29,0,5.26,2.25,10.09,4.42,14.77l0,0,.39.84,1,2.31c1.6,3.62,3.33,7.53,5.06,11.58a26.45,26.45,0,0,1,5-1.11,40.32,40.32,0,0,1,5.15-.3c2.86,0,5.78.23,8.61.46,1.4.11,2.84.22,4.24.3a34.41,34.41,0,0,0,4.54.33,19.1,19.1,0,0,0,2.62-.16,15.37,15.37,0,0,0,2.51-.54,18.26,18.26,0,0,0,5.05-2.48c.48-.92,1-1.83,1.52-2.72.68-1.18,1.39-2.41,2-3.66a19.64,19.64,0,0,0,1.45-3.92,36.58,36.58,0,0,0,1.12-5.29c.26-1.81.43-3.65.58-5.39l-.28-1c-2.07-7.54-3.89-13.64-5.73-19.2-2.27-6.91-4.59-13-7.08-18.75l-.29-.68,0,0-.11-.27c-1.78-4.16-3.62-8.46-7.2-11.37a41.21,41.21,0,0,0-5.43-3.31c-1.88-1-5.76-2.92-5.76-2.92h0a84.32,84.32,0,0,1-9.08-4.39l0,.3a40.37,40.37,0,0,1-1.52,6.94,23.15,23.15,0,0,1-1.34,3.27,18.28,18.28,0,0,1-1.91,3,14.66,14.66,0,0,1-2.58,2.46,14.84,14.84,0,0,1-3,1.71,16.19,16.19,0,0,1-3.33,1,18.61,18.61,0,0,1-3.5.33,20,20,0,0,1-10.46-3,25.77,25.77,0,0,1-8.86-8.29A34,34,0,0,1,89,96.13a41.46,41.46,0,0,1-2-5.79l0-.09,0-.1h0a10.88,10.88,0,0,0-.58-1.66c-.32-.71-.68-1.07-1-1.08Zm20,75.87a38.51,38.51,0,0,1-.56,5.56h0c-.09.58-.18,1.19-.26,1.79L108,170h0c2.57-.45,5.22-.93,7.8-1.63-1.87-.71-3.68-1.48-5.37-2.29a55.23,55.23,0,0,1-5.14-2.77Zm-24-11.19a68,68,0,0,1,9.61,1.65,49.07,49.07,0,0,1,5.8,1.65c1.77.65,2.81,1.27,3.08,1.83a.65.65,0,0,1-.09.73c1.46.78,2.9,1.64,4.29,2.48,1.23.74,2.51,1.51,3.8,2.22a59.89,59.89,0,0,0,8.57,3.86l-.16-.35a46.34,46.34,0,0,1-3.16-8.94c-.17-.79-.3-1.58-.39-2.33a20.14,20.14,0,0,1-.13-2.34,18.43,18.43,0,0,1,.18-2.34,15.85,15.85,0,0,1,.54-2.34,3.94,3.94,0,0,1-1.52.28,8.49,8.49,0,0,1-2.59-.49c-.87-.28-1.74-.66-2.59-1h0c-.74-.32-1.44-.62-2.08-.83-1.4-.56-2.79-1.05-4.13-1.44a36.58,36.58,0,0,0-4.26-1,31.2,31.2,0,0,0-6.25-.57,51.16,51.16,0,0,0-5.25.3c-1.51.16-3.16.38-5.2.71.26,1.2.54,2.41.81,3.59h0c.35,1.53.71,3.12,1,4.69ZM67.4,134.21c-.37,0-1-.55-1.94-1.68-.8-1-1.69-2.19-2.41-3.18a16,16,0,0,0-1.52-2c-.85-1.1-1.81-2.14-2.74-3.14h0c-.92-1-1.87-2-2.71-3.1,0-.15.07-.22.2-.22a3.34,3.34,0,0,1,1.39.77c.58.44,1.19,1,1.59,1.31l.46.38.25.23a50.17,50.17,0,0,1,4.42,4.45,22.07,22.07,0,0,1,3.4,5.23,1.25,1.25,0,0,1-.17.82.34.34,0,0,1-.22.09Zm77.19-4.2a.06.06,0,0,1-.08,0c-.07-.14.24-.64.73-1.19s1.28-1.23,1.76-1.23h.15a.42.42,0,0,1,.41.33.27.27,0,0,1-.18.33l-.2.09-.24.1a9.63,9.63,0,0,0-1.25.61,3.09,3.09,0,0,0-1,1l-.1,0Z"/></g></g></g><g id="head_Pomp" data-name="head Pomp"><g id="_Skin-2-2" data-name=" Skin-2-2"><path id="Trazado_2075" data-name="Trazado 2075" class="cls-1" d="M133.17,29.06c-.65-3.92,1.48-4.73,0-8.46-3.28-6.9-12.24-6.6-18.81-7.13a49.17,49.17,0,0,0-21.5,3.62,34.5,34.5,0,0,0-4.65,2.47,2,2,0,0,0-.62,2.8,2.37,2.37,0,0,0,.32.39c-5.85,8.28-2.5,19.4-7.17,28.12-.86,1.56-2,3-2.75,4.58-1.14,2.46-1.22,6,1.37,7.63C83,65,85,61.17,86.81,66.77c8.93,19.55,26.88,20.65,43.92,10.46a14.93,14.93,0,0,0,4.1-3c2.52-2.84,2.23-6.84,2.28-10.4q0-3.12,0-6.24C137.05,49.12,134.26,37.43,133.17,29.06Z"/></g><g id="_Ink-2-3" data-name=" Ink-2-3"><path id="Trazado_2076" data-name="Trazado 2076" d="M110.7,84.14a10.49,10.49,0,0,1-2.9-.37,6.13,6.13,0,0,1-2.7-1.48,3.2,3.2,0,0,1-.8-1.22,3,3,0,0,1-.1-1.55.75.75,0,0,1,.3-.47,1,1,0,0,1,1.3.26l.09.14a4.2,4.2,0,0,0,1.7,1.72,5.45,5.45,0,0,0,1.44.43,6.86,6.86,0,0,0,1.5-.07h.27a33.3,33.3,0,0,0,8.11-1.34,46.33,46.33,0,0,0,7.4-2.58,32.6,32.6,0,0,0,6.72-4,11.25,11.25,0,0,0,2.27-2.3,7.91,7.91,0,0,0,1.34-2.92,20.22,20.22,0,0,0,0-6.81c-.06-.49-.12-1-.17-1.5-.5-4.84-1.1-10-2-16.66l-.14-1.11-.15-1.14v.18s-1.19-8.51-1.46-12.79a1.25,1.25,0,0,1-.24-.57l-.05-.3a2.48,2.48,0,0,1,0-.72c0-.87,0-1.69.07-2.52,0-.16,0-.3,0-.46-.81.18-1.68.34-2.64.49a86.62,86.62,0,0,1-12.56.94c-2.08,0-4.19-.08-6.27-.24-2.9-.21-6-.58-9.34-1.13-1.62-.27-3.21-.55-4.72-.86-.92-.18-1.84-.42-2.73-.66h0l-.61-.16a9.38,9.38,0,0,0-1.3,2.75,8.75,8.75,0,0,0-.35,3,11.38,11.38,0,0,0,.66,2.81,15.9,15.9,0,0,1,.54,1.94,5.38,5.38,0,0,1,0,2,3.49,3.49,0,0,1-1.53,2.34A9.35,9.35,0,0,1,89,38.32l-.8.23a2.49,2.49,0,0,0-.77.33,1.11,1.11,0,0,0-.39.75,12.39,12.39,0,0,0,0,2.79c0,.4.06.78.07,1.16L87.23,45c0,1,.09,2.08.11,3.12a1,1,0,0,0,.16.62h0a7.44,7.44,0,0,0-.11,1.7,2.41,2.41,0,0,1-.3,1.29,5,5,0,0,1,.44.66.06.06,0,0,1,0,.08.08.08,0,0,1-.07,0l0,0a4.69,4.69,0,0,0-.53-.47q-.15.18-.33.36v0a1,1,0,0,1-.75.32,1.17,1.17,0,0,1-.78-.3l-.13-.11a1.8,1.8,0,0,1-.71-1.11h0a.22.22,0,0,1,0-.08H84a5.13,5.13,0,0,0-2.51.65,6.14,6.14,0,0,0-2.78,3,3.29,3.29,0,0,0,.77.67,0,0,0,0,1,0,0s0,0,0,0h0a3.29,3.29,0,0,1-.81-.52,6.94,6.94,0,0,0-.42,1.61,7.14,7.14,0,0,0,.23,3.15,5.28,5.28,0,0,0,.69,1.41,4,4,0,0,0,1.13,1.08,6.89,6.89,0,0,0,2.63.92h0c.43-.15.86-.21,1.28-.33.07,0,.21.33.21.33h0s.46-.5.7-.51a1.47,1.47,0,0,1,.74.2h-.06l-.1,0h.19a.85.85,0,0,1,.73.43.9.9,0,0,1,0,.87l0,.09v0l0,.15-.24,0h0l.23,0v0h0l1,1.54a58.5,58.5,0,0,0,3.93,5.46A45.8,45.8,0,0,0,94.61,75a10.34,10.34,0,0,0,2.16,1.48c.4.23.81.47,1.22.74a1.29,1.29,0,0,1,.56.92,1.11,1.11,0,0,1-.33.9,2.49,2.49,0,0,1-1.8.76,4,4,0,0,1-1.88-.54,7.28,7.28,0,0,1-1.6-1.2,24,24,0,0,1-3.31-4.26,31.13,31.13,0,0,1-2.21-4.15c-.3-.72-.58-1.45-.81-2.19A17.94,17.94,0,0,1,86,65.18a2.62,2.62,0,0,1-.87.47,6.69,6.69,0,0,1-2,.33H83a8,8,0,0,1-3.46-.82A6.76,6.76,0,0,1,77,63.1a8.11,8.11,0,0,1-1.37-2.91,9.73,9.73,0,0,1-.14-4.09A8.93,8.93,0,0,1,77,52.36a21.88,21.88,0,0,1-.67-2.62c0-.26-.11-.5-.16-.74l-.11-.46c-.34-1.5-.58-2.73-.77-3.9a32.45,32.45,0,0,1-.39-3.94,18.41,18.41,0,0,1,1.28-7.77A16.69,16.69,0,0,1,77.1,31c.09-.15.21-.31.33-.48A3.45,3.45,0,0,0,78,29.47c.2-.82-.58-1.67-1.27-2.43a6.59,6.59,0,0,1-.84-1,3.63,3.63,0,0,1-.5-1.79,2.74,2.74,0,0,1,1-2.08,4.79,4.79,0,0,1-.6-2.43,4.21,4.21,0,0,1,.83-2.42,4.74,4.74,0,0,1,3-1.87,4.57,4.57,0,0,1,.83-.06,5.94,5.94,0,0,1,1.57.21,56.93,56.93,0,0,1,7-5.57,54.41,54.41,0,0,1,7.82-4.37,62.37,62.37,0,0,1,12.92-4.21A65.64,65.64,0,0,1,130.05.35a63.12,63.12,0,0,1,16.21,3.79l.45.18.23.08a9.15,9.15,0,0,1,3.42,1.9,4,4,0,0,1,.69,1,3.61,3.61,0,0,1,.36,1.11,3.51,3.51,0,0,1-.41,2.29,4.73,4.73,0,0,1-1.27,1.44A5.84,5.84,0,0,1,148,13a10.3,10.3,0,0,1,1.21,1.17,2,2,0,0,1,.5,1.25,1.82,1.82,0,0,1-.12.65,1.62,1.62,0,0,1-.38.59A10.16,10.16,0,0,1,147,18.47a10.66,10.66,0,0,1-2.64,1.09,5.22,5.22,0,0,1-.35,3.12,4.52,4.52,0,0,1-1.13,1.54,5.61,5.61,0,0,1-1.6.94,10.66,10.66,0,0,1-3.8.61c-.36,0-.74,0-1.13,0h-.09l-.15,1.76a2.12,2.12,0,0,1-.48,1.21,1.84,1.84,0,0,1-1.12.61h-.1a144.12,144.12,0,0,1,3.27,16.73c.38,2.56.76,5.27,1.21,8.8l.13,1a8.31,8.31,0,0,1,.08,2.17h0a47.06,47.06,0,0,1,1,7.39,17,17,0,0,1,0,2.14,13.21,13.21,0,0,1-.34,2.06,11.15,11.15,0,0,1-.7,2,10.08,10.08,0,0,1-1.12,1.83,17.11,17.11,0,0,1-6.13,4.83,65.32,65.32,0,0,1-8.16,3.4c-1.41.47-2.84.88-4.24,1.23s-2.91.65-4.35.87l-.39.06A26,26,0,0,1,110.7,84.14ZM87.37,59.36a1.12,1.12,0,0,1-.66-.23c-.29-.21-.55-.44-.8-.66a5.85,5.85,0,0,0-2.09-1.32,9.16,9.16,0,0,0-2.7-.46,4.87,4.87,0,0,0-.93.08h0a.19.19,0,0,1-.15-.11.11.11,0,0,1,0-.13,6,6,0,0,1,1.67-1.08,5,5,0,0,1,1.91-.38l.47,0a7.94,7.94,0,0,1,2.49.63,6.23,6.23,0,0,1,1.12.64,4.36,4.36,0,0,1,.87.9,1.21,1.21,0,0,1,0,1.27A1.49,1.49,0,0,1,87.37,59.36Z"/></g></g><g id="face_Smile_LOL" data-name="face Smile LOL"><g id="eye"><path id="Trazado_2077" data-name="Trazado 2077" class="cls-1" d="M93.49,57.66c.58-1.32,3.21-3.37,3.21-3.37s.8,4.53.18,5.93c-.51,1.15-2.34,3.22-3.69,2.64S92.53,59.82,93.49,57.66Z"/></g><g id="eye-2"><path id="Trazado_2078" data-name="Trazado 2078" class="cls-1" d="M126.15,56.47a11.93,11.93,0,0,0-2.64-2.85s-.65,3.83-.15,5c.42,1,1.93,2.73,3,2.24S126.94,58.3,126.15,56.47Z"/></g><g id="teeth"><path id="Trazado_2079" data-name="Trazado 2079" class="cls-1" d="M103.79,63.11h14.73l.88,2.44s-11,2.55-14.86.9Z"/></g><g id="_Ink-3-2" data-name=" Ink-3-2"><path id="Trazado_2080" data-name="Trazado 2080" d="M110.1,70.31a7.61,7.61,0,0,1-2.49-1.18,8.28,8.28,0,0,1-2.69-3.45,9.59,9.59,0,0,1-.69-2.27,1.85,1.85,0,0,0,0-.23,3.66,3.66,0,0,1,0-1.77,1,1,0,0,1,.7-.65,3.34,3.34,0,0,1,1-.1H106l.83,0,2.15,0c1.54,0,3.11,0,4.62,0H119c1.52,0,2.64,0,3.51.07a.86.86,0,0,1,.68.51,2,2,0,0,1,.26.79,6.66,6.66,0,0,1-1.57,5,9.36,9.36,0,0,1-2,1.79,10.3,10.3,0,0,1-2.39,1.2,13.44,13.44,0,0,1-2.24.59,13.71,13.71,0,0,1-2.39.22A10.6,10.6,0,0,1,110.1,70.31ZM107.57,63a1.49,1.49,0,0,0,.64.8,35.31,35.31,0,0,0,5.44.31c.63,0,1.2,0,1.69,0a22.35,22.35,0,0,0,3.64-.63,17,17,0,0,0,1.69-.48c.46-.17.7-.31.7-.42a4.15,4.15,0,0,0-.33-1.3h0c-.65.56-5.73.61-9.44.65h0a32.36,32.36,0,0,1-3.41,0H108a1.11,1.11,0,0,1-.54.08,1.71,1.71,0,0,0,.13,1.07Zm-1.36-13.88c-.58-.47-.86-1.21-1.5-1.64a2.76,2.76,0,0,0-1.89-.27c-1.47.24-2.62,1.19-4,1.74-.19.08-.3-.16-.23-.3a6.38,6.38,0,0,1,4.52-3.78A4.89,4.89,0,0,1,108.27,48a1.25,1.25,0,0,1-.57,1.39,1.18,1.18,0,0,1-.58.16,1.46,1.46,0,0,1-.91-.36Zm13.91-.33c-.69-.91-.1-2.17.65-2.83a4.82,4.82,0,0,1,2.79-1.17c1.69-.14,3.69.58,4.23,2.32a.08.08,0,0,1-.05.07h0a6.26,6.26,0,0,0-3.23-.41c-.7.12-2.09.62-2.14,1.42a1.18,1.18,0,0,1-1.17,1.16h0a1.33,1.33,0,0,1-1-.56ZM97,42.62a.25.25,0,0,1,0-.24A8.44,8.44,0,0,1,98.79,40a11.79,11.79,0,0,1,2.49-1.7,10.88,10.88,0,0,1,3-1l.31,0a8.08,8.08,0,0,1,1.29-.14,2,2,0,0,1,1.59.59,1.34,1.34,0,0,1,.31,1,.87.87,0,0,1-.31.63,2.47,2.47,0,0,1-1.68.49h-1.18a11.09,11.09,0,0,0-2.5.43,16.85,16.85,0,0,0-4.82,2.49.21.21,0,0,1-.11,0,.25.25,0,0,1-.18-.11Zm31.4-1.07-.14,0a8.21,8.21,0,0,1-1.45-.56l-.47-.24A13.19,13.19,0,0,0,124.6,40a20.21,20.21,0,0,0-3.85-.85,1.43,1.43,0,0,1-.77-.29,1.1,1.1,0,0,1-.43-.66,1.13,1.13,0,0,1,.13-1,1.26,1.26,0,0,1,.61-.53,1.5,1.5,0,0,1,.52-.1l.3,0,.24,0A17.37,17.37,0,0,1,125.5,38a6.49,6.49,0,0,1,3.12,2.87c0,.35,0,.44,0,.5h0l0,0A.35.35,0,0,1,128.35,41.55Z"/></g></g><g id="facial-hair_Chin" data-name="facial-hair Chin"><g id="_Ink-4" data-name=" Ink-4"><path id="Trazado_2081" data-name="Trazado 2081" d="M121.67,78s-7.45,1.1-10.78-.45a67.86,67.86,0,0,1-9.57-5.07,24.42,24.42,0,0,1-7.58-7.76c-1.74-3-3.19-6.1-4.64-9.22-.09-.18-.93-2-1.22-2.6-.45-.94-1.78-.64-1.78.82S86,66.27,88.58,70.63c2.3,3.93,3.76,7.24,7.64,9.64,4.29,2.65,12.44,5,17.56,5.71,4.64.68,17-4.77,20.33-7.94,3.51-3.32,3.73-4.54,5.54-8.85.4-1-8.44,5-8.86,6C130,77,121.67,78,121.67,78Z"/></g></g></g><g id="face_Old" data-name="face Old"><g id="_Ink-5" data-name=" Ink-5"><path id="Trazado_2082" data-name="Trazado 2082" d="M120,59.15a2.42,2.42,0,0,1-2.24,1.07,13.34,13.34,0,0,1-6.21-2c-.45-.29-.43-1.25-.43-1.25a2.12,2.12,0,0,1,0-.71,2.7,2.7,0,0,1,.31-.72,1.81,1.81,0,0,1,1.75-.06l.58.26a16.2,16.2,0,0,0,3.32,1.18l.25,0,.24,0c0-.08,0-.16,0-.24l-.06-.25c0-.08,0-.17-.07-.26-.1-.34-.2-.68-.33-1a18.38,18.38,0,0,0-2-3.52l-.08-.13c-.1-.16-.22-.32-.34-.5a5.68,5.68,0,0,1-1.26-2.61,3.81,3.81,0,0,1,2,.93,13.71,13.71,0,0,1,2.12,1.91,12.38,12.38,0,0,1,2.87,4.88,3.63,3.63,0,0,1-.37,2.93Z"/></g></g></g></g></g><g id="Grupo_82" data-name="Grupo 82"><path id="Trazado_2083" data-name="Trazado 2083" class="cls-1" d="M86.87,87.56a1.5,1.5,0,0,0-.86-.45,2.69,2.69,0,0,0-1,0h0c-1.63.2-3.28.34-4.9.59l-4.85.92-4.81,1.07c-1.59.43-3.19.8-4.76,1.28a59.76,59.76,0,0,0-9.19,3.45l-1.1.54c-.36.18-.7.4-1.05.61a20.74,20.74,0,0,0-2,1.32,14.79,14.79,0,0,0-1.78,1.58,6.85,6.85,0,0,0-.71.9,3.33,3.33,0,0,0-.28.48,1.78,1.78,0,0,0-.18.43l0,.14-.06.1a7.4,7.4,0,0,0-1.1,2.66,23.92,23.92,0,0,0-.5,3,55.44,55.44,0,0,0-.26,6.18c0,4.13.29,8.29.71,12.4v.1c0,2.37.19,4.8.4,7.21s.49,4.84.76,7.25.58,4.84.89,7.25l.48,3.62.25,1.8.31,1.77a114.78,114.78,0,0,0,3.38,14.07c.19.57.38,1.14.6,1.68l.32.82.36.78a5.34,5.34,0,0,0,.39.75,6.25,6.25,0,0,0,.43.7c.17.23.32.47.5.7l.53.66a12.28,12.28,0,0,0,2.51,2.2,10.54,10.54,0,0,0,1.44.79c.24.11.49.2.75.29a5,5,0,0,0,.69.19l1.15.21-.2,1.11-4.32,24.32-1.09,6.08c-.37,2-.73,4-1.06,6s-.64,4-.87,6c-.12,1-.22,2-.28,3,0,.49,0,1,0,1.43a1.72,1.72,0,0,0,0,.32,2,2,0,0,0,0,.28s0,.18,0,.1a0,0,0,0,0,0,0,1.27,1.27,0,0,0-.13-.19l-.1-.09a1,1,0,0,0-.31-.18l-.17,0a1.9,1.9,0,0,0-.25,0,.82.82,0,0,0-.26,0,1.14,1.14,0,0,0-.36.15l.93-.17q12.25,2.49,24.58,4.6,6.17,1.05,12.34,2c4.11.6,8.24,1.14,12.35,1.47,8.24.64,16.58.7,24.9.63s16.67-.33,25-.72l-.46.11,5.53-2.44-.62.59q.28-.65.51-1.32c.15-.48.3-1,.41-1.47a28.4,28.4,0,0,0,.58-3,38.32,38.32,0,0,0,.3-6.24,56.67,56.67,0,0,0-1.84-12.49q-1.53-6.27-3.19-12.5c-1.12-4.14-2.25-8.3-3.47-12.4l1.67-1.31c-.1,0,0,0,0,0l.15,0,.39.06a4.39,4.39,0,0,0,.89,0,8.76,8.76,0,0,0,1.91-.48,20.28,20.28,0,0,0,3.76-1.87c.59-.4,1.2-.76,1.78-1.2l.87-.64c.27-.21.53-.42.78-.64a13.11,13.11,0,0,0,2.51-3.23,23.25,23.25,0,0,0,2.47-8.09,39.54,39.54,0,0,0,.19-8.63l-.09-1h2.82L172,156.7q-3.36-11.25-7-22.44c-1.22-3.72-2.44-7.44-3.76-11.12-.66-1.84-1.33-3.67-2.07-5.48-.36-.9-.74-1.8-1.16-2.66-.21-.44-.42-.87-.66-1.27a6.19,6.19,0,0,0-.36-.57,2,2,0,0,0-.34-.37l-.15,0-.09-.2a41.4,41.4,0,0,0-4.4-7.64c-1.75-2.33-3.85-4.58-6.66-5.43s-5.64-1.93-8.43-3-5.56-2.14-8.32-3.26h0L127.42,92h0l1.24,1.21h0c2.8,1,5.6,2,8.41,3s5.64,1.93,8.49,2.78a8.53,8.53,0,0,1,1.07.38c.18.07.37.13.54.21l.5.29a6.09,6.09,0,0,1,1,.61,10.45,10.45,0,0,1,.91.7,21.6,21.6,0,0,1,3.1,3.31,42.09,42.09,0,0,1,4.67,7.72l-.24-.25a2.24,2.24,0,0,1,.72.65c.15.21.3.43.44.65.27.44.5.88.72,1.33.45.89.86,1.79,1.25,2.7.78,1.81,1.5,3.64,2.21,5.47q2.1,5.52,4,11.09,3.81,11.15,7.3,22.38l.35,1.13h-3l.89-1a41.24,41.24,0,0,1-.07,9.09,25.07,25.07,0,0,1-2.59,8.82,14.93,14.93,0,0,1-2.87,3.79c-.29.27-.61.53-.91.78l-.91.68c-.6.46-1.25.87-1.88,1.3a22.64,22.64,0,0,1-4.15,2.14,11,11,0,0,1-2.38.61,5.84,5.84,0,0,1-1.32.06,4.43,4.43,0,0,1-.72-.09,2.66,2.66,0,0,1-.38-.1,2.33,2.33,0,0,1-.49-.21l1.67-1.31c1.3,4.14,2.48,8.28,3.61,12.45s2.22,8.34,3.26,12.53a60.19,60.19,0,0,1,2,13,41.09,41.09,0,0,1-.3,6.65c-.15,1.11-.36,2.21-.62,3.3-.13.55-.29,1.1-.46,1.65a15.08,15.08,0,0,1-.65,1.69l-.19.4-.43.19-5.52,2.47-.22.1h-.24q-12.56.65-25.09.84-6.28.1-12.57,0c-4.19-.06-8.39-.21-12.6-.56s-8.37-.93-12.52-1.55-8.27-1.3-12.4-2q-12.36-2.19-24.64-4.73l.93-.17a1.62,1.62,0,0,1-.41.17,1.55,1.55,0,0,1-.31,0l-.3,0a1.69,1.69,0,0,1-.6-.3,1.29,1.29,0,0,1-.16-.17,2.08,2.08,0,0,1-.24-.34l-.09-.2a2.88,2.88,0,0,1-.17-.64,4.52,4.52,0,0,1-.05-.49,3.4,3.4,0,0,1,0-.45c0-.58,0-1.11,0-1.65.06-1.07.17-2.12.3-3.15.24-2.08.57-4.12.91-6.16s.72-4.07,1.1-6.1l1.11-6.07,4.46-24.25,1,1.32a6.82,6.82,0,0,1-1.07-.3c-.32-.11-.63-.24-.94-.38A11.58,11.58,0,0,1,59,178a13.93,13.93,0,0,1-2.93-2.65l-.61-.77c-.2-.26-.37-.53-.56-.8s-.35-.56-.51-.86a8,8,0,0,1-.44-.88l-.39-.88-.34-.89c-.23-.59-.41-1.18-.61-1.77a116.48,116.48,0,0,1-3.26-14.39l-.3-1.84-.22-1.83-.43-3.63c-.28-2.43-.55-4.85-.8-7.28s-.48-4.87-.66-7.3-.35-4.88-.3-7.4v.1c-.2-2.1-.33-4.18-.43-6.27s-.12-4.19-.09-6.29a57.79,57.79,0,0,1,.41-6.31,25.55,25.55,0,0,1,.59-3.14,8.59,8.59,0,0,1,1.36-3l-.1.24a2.76,2.76,0,0,1,.28-.72,5,5,0,0,1,.35-.58,10.22,10.22,0,0,1,.84-1,16.18,16.18,0,0,1,1.94-1.66c.69-.48,1.41-.92,2.14-1.33.37-.2.73-.41,1.1-.6l1.13-.53a61,61,0,0,1,9.38-3.28c1.59-.45,3.21-.78,4.81-1.18l4.86-.95,4.89-.78c1.64-.2,3.28-.29,4.92-.44h0a2.8,2.8,0,0,1,1,0A1.5,1.5,0,0,1,86.87,87.56Z"/></g></g></svg>