<svg id="LogotipoUD" xmlns="http://www.w3.org/2000/svg" viewBox="0 0 185.3 111.67"><defs><style>.cls-1{fill:#f75c03;}.cls-2{fill:#fff;}</style></defs><title>UnionDigitalLetras</title><g id="Digital"><path class="cls-1" d="M35.83,59.33q9.93,0,15.75,5.18t5.81,14q0,8.83-5.83,14T35.83,97.69H21.19q-1.32,0-1.32-1.26V60.66q0-1.26,1.32-1.29ZM35.36,89a11.72,11.72,0,0,0,8.28-2.88,10.79,10.79,0,0,0,0-15.18,11.72,11.72,0,0,0-8.28-2.88H30.22V89Z" transform="translate(-19.35 0)"/><path class="cls-1" d="M67.15,66.91a5.69,5.69,0,0,1-4.09-1.54,5,5,0,0,1-1.62-3.79,4.89,4.89,0,0,1,1.62-3.75,5.81,5.81,0,0,1,4.09-1.5,5.69,5.69,0,0,1,4,1.5,4.89,4.89,0,0,1,1.62,3.75,5,5,0,0,1-1.62,3.79A5.62,5.62,0,0,1,67.15,66.91ZM63.42,97.73a1.11,1.11,0,0,1-1.25-1,.81.81,0,0,1,0-.31V72.08a1.1,1.1,0,0,1,1-1.23h7.68c.87,0,1.31.41,1.31,1.23V96.47c0,.84-.44,1.26-1.31,1.26Z" transform="translate(-19.35 0)"/><path class="cls-1" d="M105.78,70.85a1.12,1.12,0,0,1,1.28,1,.88.88,0,0,1,0,.28V98.66a11.71,11.71,0,0,1-4.26,9.43q-4.26,3.55-11.22,3.56a18.38,18.38,0,0,1-10.41-2.77,10.92,10.92,0,0,1-5-7.38c-.14-.87.27-1.31,1.23-1.31h7.28a1.63,1.63,0,0,1,1.48,1c.69,1.86,2.49,2.79,5.38,2.79a5.74,5.74,0,0,0,4-1.4,4.93,4.93,0,0,0,1.51-3.8V96.16a11.85,11.85,0,0,1-7.47,2.3A13.73,13.73,0,0,1,75.24,85.4c0-.4,0-.8,0-1.2a13.83,13.83,0,0,1,4-10.26,14.07,14.07,0,0,1,10.32-4,11.72,11.72,0,0,1,7.79,2.63v-.43a1.1,1.1,0,0,1,1-1.23h.29ZM86.57,89A5.72,5.72,0,0,0,91,90.93,5.64,5.64,0,0,0,95.38,89a7.86,7.86,0,0,0,0-9.77A5.64,5.64,0,0,0,91,77.38a5.72,5.72,0,0,0-4.42,1.9,7.74,7.74,0,0,0,0,9.76Z" transform="translate(-19.35 0)"/><path class="cls-1" d="M116.86,66.91a5.69,5.69,0,0,1-4.09-1.54,5,5,0,0,1-1.62-3.79,4.89,4.89,0,0,1,1.62-3.75,5.81,5.81,0,0,1,4.09-1.5,5.69,5.69,0,0,1,4,1.5,4.89,4.89,0,0,1,1.62,3.75,5,5,0,0,1-1.62,3.79A5.62,5.62,0,0,1,116.86,66.91Zm-3.73,30.82a1.11,1.11,0,0,1-1.25-1,.81.81,0,0,1,0-.31V72.08a1.1,1.1,0,0,1,1-1.23h7.68c.87,0,1.31.41,1.31,1.23V96.47c0,.84-.44,1.26-1.31,1.26Z" transform="translate(-19.35 0)"/><path class="cls-1" d="M142.28,98.72q-6,0-9.29-3.21t-3.32-9V79h-4.5a1.16,1.16,0,0,1-1.31-1,.92.92,0,0,1,0-.33V72.09c0-.81.44-1.22,1.31-1.23h4.5V64.24a1.11,1.11,0,0,1,.94-1.26.86.86,0,0,1,.32,0h7.43q1.32,0,1.32,1.26v6.62h7.79a1.11,1.11,0,0,1,1.26.92,1.61,1.61,0,0,1,0,.31v5.57a1.15,1.15,0,0,1-1,1.28,1.31,1.31,0,0,1-.28,0h-7.81v7.23a3.62,3.62,0,0,0,1.17,2.93,4.8,4.8,0,0,0,3.22,1,16.52,16.52,0,0,0,3.77-.43c.91-.18,1.43.17,1.56,1l.75,5.6a1.23,1.23,0,0,1-.95,1.46h-.05A26.42,26.42,0,0,1,142.28,98.72Z" transform="translate(-19.35 0)"/><path class="cls-1" d="M187.47,96.66a1.17,1.17,0,0,1-.86,1.4l-.14,0a18.41,18.41,0,0,1-4.61.67c-3.69-.07-6.2-1.16-7.52-3.29a15.15,15.15,0,0,1-19.68-.71A14.43,14.43,0,0,1,165,69.91a11.72,11.72,0,0,1,7.79,2.63v-.43c0-.81.44-1.22,1.31-1.23h7.07a1.11,1.11,0,0,1,1.26.92,1.61,1.61,0,0,1,0,.31v16c0,1.53.57,2.3,1.72,2.3a5.65,5.65,0,0,0,1.36-.13c.88-.08,1.33.27,1.37,1Zm-25.56-7.35a6.14,6.14,0,0,0,8.68.21l.21-.21a8.25,8.25,0,0,0,0-10,6.13,6.13,0,0,0-8.65-.24l-.24.24A8.16,8.16,0,0,0,161.91,89.31Z" transform="translate(-19.35 0)"/><path class="cls-1" d="M198.9,98.72a10.63,10.63,0,0,1-6.69-1.91,6.2,6.2,0,0,1-2.46-5.16V58.42a1.13,1.13,0,0,1,1-1.28h7.65a1.14,1.14,0,0,1,1.31,1,1.22,1.22,0,0,1,0,.33V88.14c0,1.47.57,2.2,1.71,2.2a5.34,5.34,0,0,0,1.26-.13c.87-.08,1.33.27,1.36,1l.62,5.38a1.17,1.17,0,0,1-.88,1.4l-.12,0A17.92,17.92,0,0,1,198.9,98.72Z" transform="translate(-19.35 0)"/></g><g id="union"><path class="cls-2" d="M38,42.39q-8.78,0-13.72-4.81T19.36,24.24v-20a1.17,1.17,0,0,1,1-1.29,1.31,1.31,0,0,1,.28,0h7.85a1.16,1.16,0,0,1,1.31,1,1.71,1.71,0,0,1,0,.32V24.45a8.92,8.92,0,0,0,2.22,6.38,7.81,7.81,0,0,0,6,2.35,7.89,7.89,0,0,0,6-2.35,8.89,8.89,0,0,0,2.24-6.38V4.29a1.15,1.15,0,0,1,1-1.29h8.1a1.16,1.16,0,0,1,1.31,1,1.71,1.71,0,0,1,0,.32v20q0,8.54-4.92,13.34T38,42.39Z" transform="translate(-19.35 0)"/><path class="cls-2" d="M81.47,13.55a11.7,11.7,0,0,1,8.59,3.23,11.48,11.48,0,0,1,3.27,8.55V40.14c0,.84-.45,1.26-1.34,1.26H84.65c-.87,0-1.31-.42-1.31-1.26V27.21a5.47,5.47,0,0,0-1.26-3.82A4.36,4.36,0,0,0,78.63,22,4.87,4.87,0,0,0,75,23.33,5,5,0,0,0,73.68,27V40.14a1.11,1.11,0,0,1-.94,1.26.86.86,0,0,1-.32,0H65a1.11,1.11,0,0,1-1.26-.94.86.86,0,0,1,0-.32v-16a2.57,2.57,0,0,0-.44-1.7A1.9,1.9,0,0,0,61.84,22a5.88,5.88,0,0,0-.94.1c-.91,0-1.36-.34-1.36-1v-5.3a1.41,1.41,0,0,1,1-1.45,12.39,12.39,0,0,1,4.55-.75c3.25.07,5.59,1.23,7,3.46Q75.36,13.54,81.47,13.55Z" transform="translate(-19.35 0)"/><path class="cls-2" d="M103.1,10.58A5.69,5.69,0,0,1,99,9a5,5,0,0,1-1.62-3.79A4.89,4.89,0,0,1,99,1.5,5.81,5.81,0,0,1,103.1,0a5.69,5.69,0,0,1,4,1.5,4.89,4.89,0,0,1,1.62,3.75A5,5,0,0,1,107.1,9,5.62,5.62,0,0,1,103.1,10.58ZM99.36,41.4a1.11,1.11,0,0,1-1.25-.95.81.81,0,0,1,0-.31V15.75a1.1,1.1,0,0,1,1-1.23h7.68c.87,0,1.31.41,1.31,1.23V40.14c0,.84-.44,1.26-1.31,1.26Z" transform="translate(-19.35 0)"/><path class="cls-2" d="M138,38.41q-4.31,4-11.33,4t-11.28-4a15,15,0,0,1,0-20.92q4.28-3.94,11.28-3.94t11.33,4a14.79,14.79,0,0,1,0,20.88Zm-16-5.75a7,7,0,0,0,9.34,0,6.48,6.48,0,0,0-4.68-11.16A6.24,6.24,0,0,0,122,23.29a7.15,7.15,0,0,0,0,9.37Zm1.51-22.24a1.06,1.06,0,0,1-1-.44,1,1,0,0,1,.08-1l3.56-6.75a1.59,1.59,0,0,1,1.48-.89H135a1.14,1.14,0,0,1,1,.42c.17.28.11.63-.2,1.06l-4.6,6.85a1.88,1.88,0,0,1-1.53.78Z" transform="translate(-19.35 0)"/><path class="cls-2" d="M165.83,13.55a11.7,11.7,0,0,1,8.59,3.23,11.48,11.48,0,0,1,3.27,8.55V40.14c0,.84-.45,1.26-1.34,1.26H169q-1.32,0-1.32-1.26V27.21a5.47,5.47,0,0,0-1.26-3.82A4.36,4.36,0,0,0,163,22a4.87,4.87,0,0,0-3.6,1.34A5,5,0,0,0,158,27V40.14a1.11,1.11,0,0,1-.94,1.26.86.86,0,0,1-.32,0h-7.42a1.11,1.11,0,0,1-1.26-.94.86.86,0,0,1,0-.32v-16a2.57,2.57,0,0,0-.44-1.7,1.9,1.9,0,0,0-1.49-.49,5.88,5.88,0,0,0-.94.1c-.91,0-1.36-.34-1.36-1v-5.3a1.41,1.41,0,0,1,1-1.45,12.39,12.39,0,0,1,4.55-.75c3.25.07,5.59,1.23,7,3.46Q159.75,13.54,165.83,13.55Z" transform="translate(-19.35 0)"/></g></svg>